<svg width="152" height="138" viewBox="0 0 152 138" fill="none" xmlns="http://www.w3.org/2000/svg">
<path d="M21.632 26.6079H4.96909C2.23278 26.6079 0 24.3751 0 21.6388V4.96909C0 2.23278 2.2394 0 4.96909 0H21.632C24.3684 0 26.6011 2.23278 26.6011 4.96909V21.6388C26.6011 24.3751 24.3617 26.6079 21.632 26.6079ZM63.3393 21.6388V4.96909C63.3393 2.23278 61.0999 0 58.3702 0H41.7006C38.9643 0 36.7315 2.23278 36.7315 4.96909V21.6388C36.7315 24.3751 38.9709 26.6079 41.7006 26.6079H58.3702C61.0999 26.6079 63.3393 24.3751 63.3393 21.6388ZM100.104 21.6388V4.96909C100.104 2.23278 97.8646 0 95.1349 0H78.4719C75.7355 0 73.5028 2.23278 73.5028 4.96909V21.6388C73.5028 24.3751 75.7422 26.6079 78.4719 26.6079H95.1349C97.8712 26.6079 100.104 24.3684 100.104 21.6388ZM136.842 21.6388V4.96909C136.842 2.23278 134.603 0 131.873 0H115.203C112.467 0 110.234 2.23278 110.234 4.96909V21.6388C110.234 24.3751 112.474 26.6079 115.203 26.6079H131.873C134.603 26.6079 136.842 24.3684 136.842 21.6388ZM175.296 21.6388V4.96909C175.296 2.23278 173.057 0 170.327 0H153.664C150.928 0 148.695 2.23278 148.695 4.96909V21.6388C148.695 24.3751 150.934 26.6079 153.664 26.6079H170.327C173.063 26.6079 175.296 24.3684 175.296 21.6388ZM248.799 21.6388V4.96909C248.799 2.23278 246.56 0 243.83 0H227.167C224.431 0 222.198 2.23278 222.198 4.96909V21.6388C222.198 24.3751 224.437 26.6079 227.167 26.6079H243.83C246.566 26.6079 248.799 24.3684 248.799 21.6388ZM285.537 21.6388V4.96909C285.537 2.23278 283.298 0 280.568 0H263.905C261.169 0 258.936 2.23278 258.936 4.96909V21.6388C258.936 24.3751 261.175 26.6079 263.905 26.6079H280.568C283.304 26.6079 285.537 24.3684 285.537 21.6388ZM26.6078 58.4432V41.7735C26.6078 39.0372 24.3684 36.8044 21.6387 36.8044H4.97564C2.23933 36.8044 0.00655105 39.0372 0.00655105 41.7735V58.4432C0.00655105 61.1795 2.24596 63.4123 4.97564 63.4123H21.6387C24.375 63.4123 26.6078 61.1729 26.6078 58.4432ZM100.111 58.4432V41.7735C100.111 39.0372 97.8712 36.8044 95.1415 36.8044H78.4785C75.7422 36.8044 73.5094 39.0372 73.5094 41.7735V58.4432C73.5094 61.1795 75.7488 63.4123 78.4785 63.4123H95.1415C97.8778 63.4123 100.111 61.1729 100.111 58.4432ZM136.849 58.4432V41.7735C136.849 39.0372 134.609 36.8044 131.88 36.8044H115.21C112.474 36.8044 110.241 39.0372 110.241 41.7735V58.4432C110.241 61.1795 112.48 63.4123 115.21 63.4123H131.88C134.609 63.4123 136.849 61.1729 136.849 58.4432ZM175.303 58.4432V41.7735C175.303 39.0372 173.064 36.8044 170.334 36.8044H153.671C150.934 36.8044 148.702 39.0372 148.702 41.7735V58.4432C148.702 61.1795 150.941 63.4123 153.671 63.4123H170.334C173.07 63.4123 175.303 61.1729 175.303 58.4432ZM212.041 58.4432V41.7735C212.041 39.0372 209.802 36.8044 207.072 36.8044H190.409C187.673 36.8044 185.44 39.0372 185.44 41.7735V58.4432C185.44 61.1795 187.679 63.4123 190.409 63.4123H207.072C209.808 63.4123 212.041 61.1729 212.041 58.4432ZM248.812 58.4432V41.7735C248.812 39.0372 246.573 36.8044 243.843 36.8044H227.18C224.444 36.8044 222.211 39.0372 222.211 41.7735V58.4432C222.211 61.1795 224.45 63.4123 227.18 63.4123H243.843C246.58 63.4123 248.812 61.1729 248.812 58.4432ZM26.6144 95.2476V78.578C26.6144 75.8417 24.375 73.6089 21.6453 73.6089H4.98227C2.24596 73.6089 0.013183 75.8417 0.013183 78.578V95.2476C0.013183 97.9839 2.25259 100.217 4.98227 100.217H21.6453C24.3816 100.217 26.6144 97.9772 26.6144 95.2476ZM63.3526 95.2476V78.578C63.3526 75.8417 61.1132 73.6089 58.3835 73.6089H41.7138C38.9775 73.6089 36.7448 75.8417 36.7448 78.578V95.2476C36.7448 97.9839 38.9842 100.217 41.7138 100.217H58.3835C61.1132 100.217 63.3526 97.9772 63.3526 95.2476ZM100.117 95.2476V78.578C100.117 75.8417 97.8778 73.6089 95.1482 73.6089H78.4851C75.7488 73.6089 73.516 75.8417 73.516 78.578V95.2476C73.516 97.9839 75.7554 100.217 78.4851 100.217H95.1482C97.8845 100.217 100.117 97.9772 100.117 95.2476ZM136.855 95.2476V78.578C136.855 75.8417 134.616 73.6089 131.886 73.6089H115.217C112.48 73.6089 110.248 75.8417 110.248 78.578V95.2476C110.248 97.9839 112.487 100.217 115.217 100.217H131.886C134.616 100.217 136.855 97.9772 136.855 95.2476ZM175.31 95.2476V78.578C175.31 75.8417 173.07 73.6089 170.34 73.6089H153.677C150.941 73.6089 148.708 75.8417 148.708 78.578V95.2476C148.708 97.9839 150.948 100.217 153.677 100.217H170.34C173.077 100.217 175.31 97.9772 175.31 95.2476ZM248.812 95.2476V78.578C248.812 75.8417 246.573 73.6089 243.843 73.6089H227.18C224.444 73.6089 222.211 75.8417 222.211 78.578V95.2476C222.211 97.9839 224.45 100.217 227.18 100.217H243.843C246.58 100.217 248.812 97.9772 248.812 95.2476ZM285.551 95.2476V78.578C285.551 75.8417 283.311 73.6089 280.581 73.6089H263.918C261.182 73.6089 258.949 75.8417 258.949 78.578V95.2476C258.949 97.9839 261.189 100.217 263.918 100.217H280.581C283.318 100.217 285.551 97.9772 285.551 95.2476ZM26.621 132.052V115.382C26.621 112.646 24.3816 110.413 21.6519 110.413H4.98891C2.25259 110.413 0.0198149 112.646 0.0198149 115.382V132.052C0.0198149 134.788 2.25922 137.021 4.98891 137.021H21.6519C24.3883 137.021 26.621 134.782 26.621 132.052ZM100.124 132.052V115.382C100.124 112.646 97.8845 110.413 95.1548 110.413H78.4918C75.7554 110.413 73.5227 112.646 73.5227 115.382V132.052C73.5227 134.788 75.7621 137.021 78.4918 137.021H95.1548C97.8911 137.021 100.124 134.782 100.124 132.052ZM136.862 132.052V115.382C136.862 112.646 134.623 110.413 131.893 110.413H115.223C112.487 110.413 110.254 112.646 110.254 115.382V132.052C110.254 134.788 112.494 137.021 115.223 137.021H131.893C134.623 137.021 136.862 134.782 136.862 132.052ZM175.316 132.052V115.382C175.316 112.646 173.077 110.413 170.347 110.413H153.684C150.948 110.413 148.715 112.646 148.715 115.382V132.052C148.715 134.788 150.954 137.021 153.684 137.021H170.347C173.083 137.021 175.316 134.782 175.316 132.052ZM212.054 132.052V115.382C212.054 112.646 209.815 110.413 207.085 110.413H190.422C187.686 110.413 185.453 112.646 185.453 115.382V132.052C185.453 134.788 187.692 137.021 190.422 137.021H207.085C209.822 137.021 212.054 134.782 212.054 132.052ZM248.826 132.052V115.382C248.826 112.646 246.586 110.413 243.856 110.413H227.193C224.457 110.413 222.224 112.646 222.224 115.382V132.052C222.224 134.788 224.464 137.021 227.193 137.021H243.856C246.593 137.021 248.826 134.782 248.826 132.052ZM285.564 132.052V115.382C285.564 112.646 283.324 110.413 280.595 110.413H263.932C261.195 110.413 258.963 112.646 258.963 115.382V132.052C258.963 134.788 261.202 137.021 263.932 137.021H280.595C283.331 137.021 285.564 134.782 285.564 132.052Z" fill="#8000FF"/>
</svg>
