<svg width="316" height="138" viewBox="0 0 316 138" fill="none" xmlns="http://www.w3.org/2000/svg">
<path d="M51.632 26.6079H34.9691C32.2328 26.6079 30 24.3751 30 21.6388V4.96909C30 2.23278 32.2394 0 34.9691 0H51.632C54.3684 0 56.6011 2.23278 56.6011 4.96909V21.6388C56.6011 24.3751 54.3617 26.6079 51.632 26.6079ZM93.3393 21.6388V4.96909C93.3393 2.23278 91.0999 0 88.3702 0H71.7006C68.9643 0 66.7315 2.23278 66.7315 4.96909V21.6388C66.7315 24.3751 68.9709 26.6079 71.7006 26.6079H88.3702C91.0999 26.6079 93.3393 24.3751 93.3393 21.6388ZM130.104 21.6388V4.96909C130.104 2.23278 127.865 0 125.135 0H108.472C105.736 0 103.503 2.23278 103.503 4.96909V21.6388C103.503 24.3751 105.742 26.6079 108.472 26.6079H125.135C127.871 26.6079 130.104 24.3684 130.104 21.6388ZM166.842 21.6388V4.96909C166.842 2.23278 164.603 0 161.873 0H145.203C142.467 0 140.234 2.23278 140.234 4.96909V21.6388C140.234 24.3751 142.474 26.6079 145.203 26.6079H161.873C164.603 26.6079 166.842 24.3684 166.842 21.6388ZM205.296 21.6388V4.96909C205.296 2.23278 203.057 0 200.327 0H183.664C180.928 0 178.695 2.23278 178.695 4.96909V21.6388C178.695 24.3751 180.934 26.6079 183.664 26.6079H200.327C203.063 26.6079 205.296 24.3684 205.296 21.6388ZM278.799 21.6388V4.96909C278.799 2.23278 276.56 0 273.83 0H257.167C254.431 0 252.198 2.23278 252.198 4.96909V21.6388C252.198 24.3751 254.437 26.6079 257.167 26.6079H273.83C276.566 26.6079 278.799 24.3684 278.799 21.6388ZM315.537 21.6388V4.96909C315.537 2.23278 313.298 0 310.568 0H293.905C291.169 0 288.936 2.23278 288.936 4.96909V21.6388C288.936 24.3751 291.175 26.6079 293.905 26.6079H310.568C313.304 26.6079 315.537 24.3684 315.537 21.6388ZM56.6078 58.4432V41.7735C56.6078 39.0372 54.3684 36.8044 51.6387 36.8044H34.9756C32.2393 36.8044 30.0066 39.0372 30.0066 41.7735V58.4432C30.0066 61.1795 32.246 63.4123 34.9756 63.4123H51.6387C54.375 63.4123 56.6078 61.1729 56.6078 58.4432ZM130.111 58.4432V41.7735C130.111 39.0372 127.871 36.8044 125.142 36.8044H108.478C105.742 36.8044 103.509 39.0372 103.509 41.7735V58.4432C103.509 61.1795 105.749 63.4123 108.478 63.4123H125.142C127.878 63.4123 130.111 61.1729 130.111 58.4432ZM166.849 58.4432V41.7735C166.849 39.0372 164.609 36.8044 161.88 36.8044H145.21C142.474 36.8044 140.241 39.0372 140.241 41.7735V58.4432C140.241 61.1795 142.48 63.4123 145.21 63.4123H161.88C164.609 63.4123 166.849 61.1729 166.849 58.4432ZM205.303 58.4432V41.7735C205.303 39.0372 203.064 36.8044 200.334 36.8044H183.671C180.934 36.8044 178.702 39.0372 178.702 41.7735V58.4432C178.702 61.1795 180.941 63.4123 183.671 63.4123H200.334C203.07 63.4123 205.303 61.1729 205.303 58.4432ZM242.041 58.4432V41.7735C242.041 39.0372 239.802 36.8044 237.072 36.8044H220.409C217.673 36.8044 215.44 39.0372 215.44 41.7735V58.4432C215.44 61.1795 217.679 63.4123 220.409 63.4123H237.072C239.808 63.4123 242.041 61.1729 242.041 58.4432ZM278.812 58.4432V41.7735C278.812 39.0372 276.573 36.8044 273.843 36.8044H257.18C254.444 36.8044 252.211 39.0372 252.211 41.7735V58.4432C252.211 61.1795 254.45 63.4123 257.18 63.4123H273.843C276.58 63.4123 278.812 61.1729 278.812 58.4432ZM56.6144 95.2476V78.578C56.6144 75.8417 54.375 73.6089 51.6453 73.6089H34.9823C32.246 73.6089 30.0132 75.8417 30.0132 78.578V95.2476C30.0132 97.9839 32.2526 100.217 34.9823 100.217H51.6453C54.3816 100.217 56.6144 97.9772 56.6144 95.2476ZM93.3526 95.2476V78.578C93.3526 75.8417 91.1132 73.6089 88.3835 73.6089H71.7138C68.9775 73.6089 66.7448 75.8417 66.7448 78.578V95.2476C66.7448 97.9839 68.9842 100.217 71.7138 100.217H88.3835C91.1132 100.217 93.3526 97.9772 93.3526 95.2476ZM130.117 95.2476V78.578C130.117 75.8417 127.878 73.6089 125.148 73.6089H108.485C105.749 73.6089 103.516 75.8417 103.516 78.578V95.2476C103.516 97.9839 105.755 100.217 108.485 100.217H125.148C127.884 100.217 130.117 97.9772 130.117 95.2476ZM166.855 95.2476V78.578C166.855 75.8417 164.616 73.6089 161.886 73.6089H145.217C142.48 73.6089 140.248 75.8417 140.248 78.578V95.2476C140.248 97.9839 142.487 100.217 145.217 100.217H161.886C164.616 100.217 166.855 97.9772 166.855 95.2476ZM205.31 95.2476V78.578C205.31 75.8417 203.07 73.6089 200.34 73.6089H183.677C180.941 73.6089 178.708 75.8417 178.708 78.578V95.2476C178.708 97.9839 180.948 100.217 183.677 100.217H200.34C203.077 100.217 205.31 97.9772 205.31 95.2476ZM278.812 95.2476V78.578C278.812 75.8417 276.573 73.6089 273.843 73.6089H257.18C254.444 73.6089 252.211 75.8417 252.211 78.578V95.2476C252.211 97.9839 254.45 100.217 257.18 100.217H273.843C276.58 100.217 278.812 97.9772 278.812 95.2476ZM315.551 95.2476V78.578C315.551 75.8417 313.311 73.6089 310.581 73.6089H293.918C291.182 73.6089 288.949 75.8417 288.949 78.578V95.2476C288.949 97.9839 291.189 100.217 293.918 100.217H310.581C313.318 100.217 315.551 97.9772 315.551 95.2476ZM56.621 132.052V115.382C56.621 112.646 54.3816 110.413 51.6519 110.413H34.9889C32.2526 110.413 30.0198 112.646 30.0198 115.382V132.052C30.0198 134.788 32.2592 137.021 34.9889 137.021H51.6519C54.3883 137.021 56.621 134.782 56.621 132.052ZM130.124 132.052V115.382C130.124 112.646 127.884 110.413 125.155 110.413H108.492C105.755 110.413 103.523 112.646 103.523 115.382V132.052C103.523 134.788 105.762 137.021 108.492 137.021H125.155C127.891 137.021 130.124 134.782 130.124 132.052ZM166.862 132.052V115.382C166.862 112.646 164.623 110.413 161.893 110.413H145.223C142.487 110.413 140.254 112.646 140.254 115.382V132.052C140.254 134.788 142.494 137.021 145.223 137.021H161.893C164.623 137.021 166.862 134.782 166.862 132.052ZM205.316 132.052V115.382C205.316 112.646 203.077 110.413 200.347 110.413H183.684C180.948 110.413 178.715 112.646 178.715 115.382V132.052C178.715 134.788 180.954 137.021 183.684 137.021H200.347C203.083 137.021 205.316 134.782 205.316 132.052ZM242.054 132.052V115.382C242.054 112.646 239.815 110.413 237.085 110.413H220.422C217.686 110.413 215.453 112.646 215.453 115.382V132.052C215.453 134.788 217.692 137.021 220.422 137.021H237.085C239.822 137.021 242.054 134.782 242.054 132.052ZM278.826 132.052V115.382C278.826 112.646 276.586 110.413 273.856 110.413H257.193C254.457 110.413 252.224 112.646 252.224 115.382V132.052C252.224 134.788 254.464 137.021 257.193 137.021H273.856C276.593 137.021 278.826 134.782 278.826 132.052ZM315.564 132.052V115.382C315.564 112.646 313.324 110.413 310.595 110.413H293.932C291.195 110.413 288.963 112.646 288.963 115.382V132.052C288.963 134.788 291.202 137.021 293.932 137.021H310.595C313.331 137.021 315.564 134.782 315.564 132.052Z" fill="#8000FF"/>
<path d="M-243.368 26.6079H-260.031C-262.767 26.6079 -265 24.3751 -265 21.6388V4.96909C-265 2.23278 -262.761 0 -260.031 0H-243.368C-240.632 0 -238.399 2.23278 -238.399 4.96909V21.6388C-238.399 24.3751 -240.638 26.6079 -243.368 26.6079ZM-201.661 21.6388V4.96909C-201.661 2.23278 -203.9 0 -206.63 0H-223.299C-226.036 0 -228.269 2.23278 -228.269 4.96909V21.6388C-228.269 24.3751 -226.029 26.6079 -223.299 26.6079H-206.63C-203.9 26.6079 -201.661 24.3751 -201.661 21.6388ZM-164.896 21.6388V4.96909C-164.896 2.23278 -167.135 0 -169.865 0H-186.528C-189.264 0 -191.497 2.23278 -191.497 4.96909V21.6388C-191.497 24.3751 -189.258 26.6079 -186.528 26.6079H-169.865C-167.129 26.6079 -164.896 24.3684 -164.896 21.6388ZM-128.158 21.6388V4.96909C-128.158 2.23278 -130.397 0 -133.127 0H-149.797C-152.533 0 -154.766 2.23278 -154.766 4.96909V21.6388C-154.766 24.3751 -152.526 26.6079 -149.797 26.6079H-133.127C-130.397 26.6079 -128.158 24.3684 -128.158 21.6388ZM-89.7037 21.6388V4.96909C-89.7037 2.23278 -91.9431 0 -94.6728 0H-111.336C-114.072 0 -116.305 2.23278 -116.305 4.96909V21.6388C-116.305 24.3751 -114.066 26.6079 -111.336 26.6079H-94.6728C-91.9365 26.6079 -89.7037 24.3684 -89.7037 21.6388ZM-16.201 21.6388V4.96909C-16.201 2.23278 -18.4404 0 -21.17 0H-37.833C-40.5693 0 -42.8021 2.23278 -42.8021 4.96909V21.6388C-42.8021 24.3751 -40.5627 26.6079 -37.833 26.6079H-21.17C-18.4337 26.6079 -16.201 24.3684 -16.201 21.6388ZM20.5372 21.6388V4.96909C20.5372 2.23278 18.2979 0 15.5681 0H-1.09488C-3.83121 0 -6.06396 2.23278 -6.06396 4.96909V21.6388C-6.06396 24.3751 -3.82458 26.6079 -1.09488 26.6079H15.5681C18.3045 26.6079 20.5372 24.3684 20.5372 21.6388ZM-238.392 58.4432V41.7735C-238.392 39.0372 -240.632 36.8044 -243.361 36.8044H-260.024C-262.761 36.8044 -264.993 39.0372 -264.993 41.7735V58.4432C-264.993 61.1795 -262.754 63.4123 -260.024 63.4123H-243.361C-240.625 63.4123 -238.392 61.1729 -238.392 58.4432ZM-164.889 58.4432V41.7735C-164.889 39.0372 -167.129 36.8044 -169.858 36.8044H-186.522C-189.258 36.8044 -191.491 39.0372 -191.491 41.7735V58.4432C-191.491 61.1795 -189.251 63.4123 -186.522 63.4123H-169.858C-167.122 63.4123 -164.889 61.1729 -164.889 58.4432ZM-128.151 58.4432V41.7735C-128.151 39.0372 -130.391 36.8044 -133.12 36.8044H-149.79C-152.526 36.8044 -154.759 39.0372 -154.759 41.7735V58.4432C-154.759 61.1795 -152.52 63.4123 -149.79 63.4123H-133.12C-130.391 63.4123 -128.151 61.1729 -128.151 58.4432ZM-89.6971 58.4432V41.7735C-89.6971 39.0372 -91.9365 36.8044 -94.6662 36.8044H-111.329C-114.066 36.8044 -116.298 39.0372 -116.298 41.7735V58.4432C-116.298 61.1795 -114.059 63.4123 -111.329 63.4123H-94.6662C-91.9299 63.4123 -89.6971 61.1729 -89.6971 58.4432ZM-52.959 58.4432V41.7735C-52.959 39.0372 -55.1984 36.8044 -57.9281 36.8044H-74.5911C-77.3274 36.8044 -79.5602 39.0372 -79.5602 41.7735V58.4432C-79.5602 61.1795 -77.3208 63.4123 -74.5911 63.4123H-57.9281C-55.1918 63.4123 -52.959 61.1729 -52.959 58.4432ZM-16.1877 58.4432V41.7735C-16.1877 39.0372 -18.4271 36.8044 -21.1568 36.8044H-37.8198C-40.5561 36.8044 -42.7889 39.0372 -42.7889 41.7735V58.4432C-42.7889 61.1795 -40.5495 63.4123 -37.8198 63.4123H-21.1568C-18.4205 63.4123 -16.1877 61.1729 -16.1877 58.4432ZM-238.386 95.2476V78.578C-238.386 75.8417 -240.625 73.6089 -243.355 73.6089H-260.018C-262.754 73.6089 -264.987 75.8417 -264.987 78.578V95.2476C-264.987 97.9839 -262.747 100.217 -260.018 100.217H-243.355C-240.618 100.217 -238.386 97.9772 -238.386 95.2476ZM-201.647 95.2476V78.578C-201.647 75.8417 -203.887 73.6089 -206.616 73.6089H-223.286C-226.022 73.6089 -228.255 75.8417 -228.255 78.578V95.2476C-228.255 97.9839 -226.016 100.217 -223.286 100.217H-206.616C-203.887 100.217 -201.647 97.9772 -201.647 95.2476ZM-164.883 95.2476V78.578C-164.883 75.8417 -167.122 73.6089 -169.852 73.6089H-186.515C-189.251 73.6089 -191.484 75.8417 -191.484 78.578V95.2476C-191.484 97.9839 -189.245 100.217 -186.515 100.217H-169.852C-167.116 100.217 -164.883 97.9772 -164.883 95.2476ZM-128.145 95.2476V78.578C-128.145 75.8417 -130.384 73.6089 -133.114 73.6089H-149.783C-152.52 73.6089 -154.752 75.8417 -154.752 78.578V95.2476C-154.752 97.9839 -152.513 100.217 -149.783 100.217H-133.114C-130.384 100.217 -128.145 97.9772 -128.145 95.2476ZM-89.6905 95.2476V78.578C-89.6905 75.8417 -91.9299 73.6089 -94.6595 73.6089H-111.323C-114.059 73.6089 -116.292 75.8417 -116.292 78.578V95.2476C-116.292 97.9839 -114.052 100.217 -111.323 100.217H-94.6595C-91.9232 100.217 -89.6905 97.9772 -89.6905 95.2476ZM-16.1877 95.2476V78.578C-16.1877 75.8417 -18.4271 73.6089 -21.1568 73.6089H-37.8198C-40.5561 73.6089 -42.7889 75.8417 -42.7889 78.578V95.2476C-42.7889 97.9839 -40.5495 100.217 -37.8198 100.217H-21.1568C-18.4205 100.217 -16.1877 97.9772 -16.1877 95.2476ZM20.5505 95.2476V78.578C20.5505 75.8417 18.3111 73.6089 15.5814 73.6089H-1.08163C-3.81793 73.6089 -6.05072 75.8417 -6.05072 78.578V95.2476C-6.05072 97.9839 -3.81131 100.217 -1.08163 100.217H15.5814C18.3177 100.217 20.5505 97.9772 20.5505 95.2476ZM-238.379 132.052V115.382C-238.379 112.646 -240.618 110.413 -243.348 110.413H-260.011C-262.747 110.413 -264.98 112.646 -264.98 115.382V132.052C-264.98 134.788 -262.741 137.021 -260.011 137.021H-243.348C-240.612 137.021 -238.379 134.782 -238.379 132.052ZM-164.876 132.052V115.382C-164.876 112.646 -167.116 110.413 -169.845 110.413H-186.508C-189.245 110.413 -191.477 112.646 -191.477 115.382V132.052C-191.477 134.788 -189.238 137.021 -186.508 137.021H-169.845C-167.109 137.021 -164.876 134.782 -164.876 132.052ZM-128.138 132.052V115.382C-128.138 112.646 -130.377 110.413 -133.107 110.413H-149.777C-152.513 110.413 -154.746 112.646 -154.746 115.382V132.052C-154.746 134.788 -152.506 137.021 -149.777 137.021H-133.107C-130.377 137.021 -128.138 134.782 -128.138 132.052ZM-89.6838 132.052V115.382C-89.6838 112.646 -91.9232 110.413 -94.6529 110.413H-111.316C-114.052 110.413 -116.285 112.646 -116.285 115.382V132.052C-116.285 134.788 -114.046 137.021 -111.316 137.021H-94.6529C-91.9166 137.021 -89.6838 134.782 -89.6838 132.052ZM-52.9457 132.052V115.382C-52.9457 112.646 -55.1851 110.413 -57.9148 110.413H-74.5778C-77.3141 110.413 -79.5469 112.646 -79.5469 115.382V132.052C-79.5469 134.788 -77.3075 137.021 -74.5778 137.021H-57.9148C-55.1785 137.021 -52.9457 134.782 -52.9457 132.052ZM-16.1744 132.052V115.382C-16.1744 112.646 -18.4138 110.413 -21.1435 110.413H-37.8066C-40.5429 110.413 -42.7757 112.646 -42.7757 115.382V132.052C-42.7757 134.788 -40.5363 137.021 -37.8066 137.021H-21.1435C-18.4072 137.021 -16.1744 134.782 -16.1744 132.052ZM20.5637 132.052V115.382C20.5637 112.646 18.3243 110.413 15.5946 110.413H-1.06836C-3.80469 110.413 -6.03745 112.646 -6.03745 115.382V132.052C-6.03745 134.788 -3.79803 137.021 -1.06836 137.021H15.5946C18.3309 137.021 20.5637 134.782 20.5637 132.052Z" fill="#8000FF"/>
</svg>
