<svg width="351" height="143" viewBox="0 0 351 143" fill="none" xmlns="http://www.w3.org/2000/svg">
<path d="M9.78497 0H-6.87798C-11.2574 0.0132509 -14.7888 3.54459 -14.802 7.92402V24.5937C-14.7888 28.9731 -11.2574 32.5045 -6.87798 32.5177H9.78497C14.1644 32.5045 17.6957 28.9731 17.709 24.5937V7.92402C17.6957 3.54459 14.1578 0.0132509 9.78497 0ZM11.8058 24.5871C11.8058 25.137 11.5872 25.6273 11.2095 26.0115C10.8319 26.3892 10.3415 26.6079 9.78497 26.6079H-6.87798C-7.4279 26.6079 -7.91828 26.3892 -8.30255 26.0115C-8.6802 25.6339 -8.89878 25.1436 -8.89878 24.5871V7.91739C-8.89878 7.36747 -8.6802 6.87726 -8.30255 6.49298C-7.9249 6.12195 -7.43452 5.89667 -6.87798 5.89667H9.78497C10.3415 5.89667 10.8319 6.11533 11.2095 6.49298C11.5872 6.87063 11.8058 7.36085 11.8058 7.91739V24.5871Z" fill="#8000FF"/>
<path d="M46.5232 0H29.8536C25.4742 0.0132509 21.9428 3.54459 21.9296 7.92402V24.5937C21.9428 28.9731 25.4742 32.5045 29.8536 32.5177H46.5232C50.9026 32.5045 54.4339 28.9731 54.4472 24.5937V7.92402C54.4339 3.54459 50.9026 0.0132509 46.5232 0ZM48.544 24.5871C48.544 25.137 48.3254 25.6339 47.9477 26.0115C47.5701 26.3892 47.0797 26.6079 46.5232 26.6079H29.8536C29.3037 26.6079 28.8135 26.3892 28.4292 26.0115C28.0515 25.6339 27.8328 25.1436 27.8328 24.5871V7.91739C27.8328 7.36747 28.0515 6.87726 28.4292 6.49298C28.8068 6.12195 29.297 5.89667 29.8536 5.89667H46.5232C47.0797 5.89667 47.5701 6.11533 47.9477 6.49298C48.3254 6.87063 48.544 7.36085 48.544 7.91739V24.5871Z" fill="#8000FF"/>
<path d="M9.78497 36.8041H-6.87798C-11.2574 36.8173 -14.7888 40.3487 -14.802 44.7281V61.3978C-14.7888 65.7772 -11.2574 69.3085 -6.87798 69.3218H9.78497C14.1644 69.3085 17.6957 65.7772 17.709 61.3978V44.7281C17.6957 40.3487 14.1578 36.8173 9.78497 36.8041ZM11.8058 61.3911C11.8058 61.941 11.5872 62.4313 11.2095 62.8156C10.8319 63.1933 10.3415 63.4118 9.78497 63.4118H-6.87798C-7.4279 63.4118 -7.91828 63.1933 -8.30255 62.8156C-8.6802 62.438 -8.89878 61.9477 -8.89878 61.3911V44.7215C-8.89878 44.1716 -8.6802 43.6813 -8.30255 43.297C-7.9249 42.9259 -7.43452 42.7007 -6.87798 42.7007H9.78497C10.3415 42.7007 10.8319 42.9193 11.2095 43.297C11.5872 43.6746 11.8058 44.1649 11.8058 44.7148V61.3845V61.3911Z" fill="#8000FF"/>
<path d="M9.78497 73.6021H-6.87798C-11.2574 73.6153 -14.7888 77.1467 -14.802 81.5262V98.1957C-14.7888 102.575 -11.2574 106.107 -6.87798 106.12H9.78497C14.1644 106.107 17.6957 102.575 17.709 98.1957V81.5262C17.6957 77.1467 14.1578 73.6153 9.78497 73.6021ZM11.8058 98.1891C11.8058 98.739 11.5872 99.2293 11.2095 99.6136C10.8319 99.9912 10.3415 100.21 9.78497 100.21H-6.87798C-7.4279 100.21 -7.91828 99.9912 -8.30255 99.6136C-8.6802 99.2359 -8.89878 98.7456 -8.89878 98.1891V81.5195C-8.89878 80.9696 -8.6802 80.4793 -8.30255 80.095C-7.9249 79.724 -7.43452 79.4987 -6.87798 79.4987H9.78497C10.3415 79.4987 10.8319 79.7174 11.2095 80.095C11.5872 80.4727 11.8058 80.963 11.8058 81.5129V98.1826V98.1891Z" fill="#8000FF"/>
<path d="M46.5232 73.6021H29.8536C25.4742 73.6153 21.9428 77.1467 21.9296 81.5262V98.1957C21.9428 102.575 25.4742 106.107 29.8536 106.12H46.5232C50.9026 106.107 54.4339 102.575 54.4472 98.1957V81.5262C54.4339 77.1467 50.9026 73.6153 46.5232 73.6021ZM48.544 98.1891C48.544 98.739 48.3254 99.2359 47.9477 99.6136C47.5701 99.9912 47.0797 100.21 46.5232 100.21H29.8536C29.3037 100.21 28.8135 99.9912 28.4292 99.6136C28.0515 99.2359 27.8328 98.7456 27.8328 98.1891V81.5195C27.8328 80.9696 28.0515 80.4793 28.4292 80.095C28.8068 79.724 29.297 79.4987 29.8536 79.4987H46.5232C47.0797 79.4987 47.5701 79.7174 47.9477 80.095C48.3254 80.4727 48.544 80.963 48.544 81.5195V98.1891Z" fill="#8000FF"/>
<path d="M9.78497 110.407H-6.87798C-11.2574 110.42 -14.7888 113.951 -14.802 118.331V135C-14.7888 139.38 -11.2574 142.911 -6.87798 142.924H9.78497C14.1644 142.911 17.6957 139.38 17.709 135V118.331C17.6957 113.951 14.1644 110.42 9.78497 110.407ZM11.7991 134.994C11.7991 135.544 11.5806 136.041 11.2029 136.418C10.8253 136.796 10.3349 137.014 9.77834 137.014H-6.88461C-7.43453 137.014 -7.92491 136.796 -8.30919 136.418C-8.68684 136.041 -8.90541 135.55 -8.90541 134.994V118.324C-8.90541 117.774 -8.68684 117.284 -8.30919 116.9C-7.93153 116.529 -7.44115 116.303 -6.88461 116.303H9.77834C10.3349 116.303 10.8253 116.522 11.2029 116.9C11.5806 117.277 11.7991 117.767 11.7991 118.324V134.994Z" fill="#8000FF"/>
<path d="M46.5232 110.407H29.8536C25.4742 110.42 21.9428 113.951 21.9296 118.331V135C21.9428 139.38 25.4742 142.911 29.8536 142.924H46.5232C50.9026 142.911 54.4339 139.38 54.4472 135V118.331C54.4339 113.951 50.9026 110.42 46.5232 110.407ZM48.544 134.994C48.544 135.544 48.3254 136.041 47.9477 136.418C47.5701 136.796 47.0797 137.014 46.5232 137.014H29.8536C29.3037 137.014 28.8135 136.796 28.4292 136.418C28.0515 136.041 27.8328 135.55 27.8328 134.994V118.324C27.8328 117.774 28.0515 117.284 28.4292 116.9C28.8068 116.529 29.297 116.303 29.8536 116.303H46.5232C47.0797 116.303 47.5701 116.522 47.9477 116.9C48.3254 117.277 48.544 117.767 48.544 118.324V134.994Z" fill="#8000FF"/>
<path d="M83.5937 0H66.924C62.5446 0.0132509 59.0133 3.54459 59 7.92402V24.5937C59.0133 28.9731 62.5446 32.5045 66.924 32.5177H83.5937C87.9665 32.5045 91.5045 28.9731 91.5177 24.5937V7.92402C91.5045 3.54459 87.9665 0.0132509 83.5937 0ZM85.6079 24.5871C85.6079 25.137 85.3892 25.6273 85.0115 26.0049C84.6339 26.3826 84.1436 26.6012 83.5871 26.6012H66.9174C66.3608 26.6012 65.8706 26.3826 65.493 26.0049C65.1153 25.6273 64.8967 25.137 64.8967 24.5804V7.91084C64.8967 7.36092 65.1153 6.87062 65.493 6.48635C65.8706 6.11532 66.3608 5.89004 66.9174 5.89004H83.5871C84.137 5.89004 84.6273 6.1087 85.0115 6.48635C85.3892 6.864 85.6079 7.3543 85.6079 7.91084V24.5804V24.5871Z" fill="#8000FF"/>
<path d="M120.332 0H103.662C99.2828 0.0132509 95.7514 3.54459 95.7382 7.92402V24.5937C95.7514 28.9731 99.2828 32.5045 103.662 32.5177H120.332V29.5694V32.5243C124.711 32.5111 128.243 28.9797 128.256 24.6003V7.93065C128.243 3.55122 124.711 0.0198828 120.332 0.00663193V0ZM122.346 24.5871C122.346 25.137 122.127 25.6339 121.75 26.0115C121.372 26.3892 120.882 26.6079 120.325 26.6079H103.656C103.099 26.6079 102.609 26.3892 102.231 26.0115C101.853 25.6339 101.635 25.1436 101.635 24.5871V7.91739C101.635 7.36747 101.853 6.87726 102.231 6.49298C102.609 6.12195 103.099 5.89667 103.656 5.89667H120.325C120.882 5.89667 121.372 6.11533 121.75 6.49298C122.127 6.87063 122.346 7.36085 122.346 7.91739V24.5871Z" fill="#8000FF"/>
<path d="M157.097 0H140.427C136.047 0.0132509 132.516 3.54459 132.503 7.92402V24.5937C132.516 28.9731 136.047 32.5045 140.427 32.5177H157.097C161.476 32.5045 165.007 28.9731 165.021 24.5937V7.92402C165.007 3.54459 161.476 0.0132509 157.097 0ZM159.117 24.5871C159.117 25.137 158.899 25.6339 158.521 26.0115C158.143 26.3892 157.653 26.6079 157.097 26.6079H140.427C139.877 26.6079 139.387 26.3892 139.002 26.0115C138.625 25.6339 138.406 25.1436 138.406 24.5871V7.91739C138.406 7.36747 138.625 6.87726 139.002 6.49298C139.38 6.12195 139.87 5.89667 140.427 5.89667H157.097C157.653 5.89667 158.143 6.11533 158.521 6.49298C158.899 6.87063 159.117 7.36085 159.117 7.91739V24.5871Z" fill="#8000FF"/>
<path d="M193.835 0H177.165C172.792 0.0132509 169.254 3.54459 169.241 7.92402V24.5937C169.254 28.9731 172.786 32.5045 177.165 32.5177H193.835C198.214 32.5045 201.746 28.9731 201.759 24.5937V7.92402C201.746 3.54459 198.214 0.0132509 193.835 0ZM195.856 24.5871C195.856 25.137 195.637 25.6339 195.259 26.0115C194.881 26.3892 194.391 26.6079 193.835 26.6079H177.165C176.615 26.6079 176.125 26.3892 175.741 26.0115C175.363 25.6339 175.144 25.1436 175.144 24.5871V7.91739C175.144 7.36747 175.363 6.87726 175.741 6.49298C176.118 6.11533 176.609 5.89667 177.165 5.89667H193.835C194.391 5.89667 194.881 6.11533 195.259 6.49298C195.637 6.87063 195.856 7.36085 195.856 7.91739V24.5871Z" fill="#8000FF"/>
<path d="M232.282 0H215.619C211.24 0.0132509 207.708 3.54459 207.695 7.92402V24.5937C207.708 28.9731 211.24 32.5045 215.619 32.5177H232.282C236.662 32.5045 240.193 28.9731 240.206 24.5937V7.92402C240.193 3.54459 236.662 0.0132509 232.282 0ZM234.296 24.5871C234.296 25.137 234.078 25.6339 233.7 26.0115C233.322 26.3892 232.832 26.6079 232.276 26.6079H215.613C215.063 26.6079 214.572 26.3892 214.188 26.0115C213.81 25.6339 213.592 25.1436 213.592 24.5871V7.91739C213.592 7.36747 213.81 6.87726 214.188 6.49298C214.566 6.12195 215.056 5.89667 215.613 5.89667H232.276C232.832 5.89667 233.322 6.11533 233.7 6.49298C234.078 6.87063 234.296 7.36085 234.296 7.91739V24.5871Z" fill="#8000FF"/>
<path d="M305.785 0H289.122C284.743 0.0132509 281.211 3.54459 281.198 7.92402V24.5937C281.211 28.9731 284.743 32.5045 289.122 32.5177H305.785C310.164 32.5045 313.696 28.9731 313.709 24.5937V7.92402C313.696 3.54459 310.158 0.0132509 305.785 0ZM307.806 24.5871C307.806 25.137 307.587 25.6273 307.21 26.0115C306.832 26.3892 306.342 26.6079 305.785 26.6079H289.122C288.572 26.6079 288.082 26.3892 287.697 26.0115C287.32 25.6339 287.101 25.1436 287.101 24.5871V7.91739C287.101 7.36747 287.32 6.87726 287.697 6.49298C288.075 6.12195 288.565 5.89667 289.122 5.89667H305.785C306.342 5.89667 306.832 6.11533 307.21 6.49298C307.587 6.87063 307.806 7.36085 307.806 7.91739V24.5871Z" fill="#8000FF"/>
<path d="M342.523 0H325.854C321.474 0.0132509 317.943 3.54459 317.93 7.92402V24.5937C317.943 28.9731 321.474 32.5045 325.854 32.5177H342.523C346.903 32.5045 350.434 28.9731 350.447 24.5937V7.92402C350.434 3.54459 346.903 0.0132509 342.523 0ZM344.544 24.5871C344.544 25.137 344.325 25.6339 343.948 26.0115C343.57 26.3892 343.08 26.6079 342.523 26.6079H325.854C325.304 26.6079 324.813 26.3892 324.429 26.0115C324.052 25.6339 323.833 25.1436 323.833 24.5871V7.91739C323.833 7.36747 324.052 6.87726 324.429 6.49298C324.807 6.12195 325.297 5.89667 325.854 5.89667H342.523C343.08 5.89667 343.57 6.11533 343.948 6.49298C344.325 6.87063 344.544 7.36085 344.544 7.91739V24.5871Z" fill="#8000FF"/>
<path d="M83.5937 36.8041H66.924C62.5446 36.8173 59.0133 40.3487 59 44.7281V61.3978C59.0133 65.7772 62.5446 69.3085 66.924 69.3218H83.5937C87.9731 69.3085 91.5045 65.7772 91.5177 61.3978V44.7281C91.5045 40.3487 87.9665 36.8173 83.5937 36.8041ZM85.6079 61.3911C85.6079 61.941 85.3892 62.4313 85.0115 62.8156C84.6339 63.1933 84.1436 63.4118 83.5871 63.4118H66.9174C66.3675 63.4118 65.8773 63.1933 65.493 62.8156C65.1153 62.438 64.8967 61.9477 64.8967 61.3911V44.7215C64.8967 44.1716 65.1153 43.6813 65.493 43.297C65.8706 42.9259 66.3608 42.7007 66.9174 42.7007H83.5871C84.137 42.7007 84.6273 42.9193 85.0115 43.297C85.3892 43.6746 85.6079 44.1649 85.6079 44.7148V61.3845V61.3911Z" fill="#8000FF"/>
<path d="M157.097 36.8041H140.427C136.047 36.8173 132.516 40.3487 132.503 44.7281V61.3978C132.516 65.7772 136.047 69.3085 140.427 69.3218H157.097C161.476 69.3085 165.007 65.7772 165.021 61.3978V44.7281C165.007 40.3487 161.476 36.8173 157.097 36.8041ZM159.117 61.3911C159.117 61.941 158.899 62.4313 158.521 62.8156C158.143 63.1933 157.653 63.4118 157.097 63.4118H140.427C139.877 63.4118 139.387 63.1933 139.002 62.8156C138.625 62.438 138.406 61.9477 138.406 61.3911V44.7215C138.406 44.1716 138.625 43.6813 139.002 43.297C139.38 42.9259 139.87 42.7007 140.427 42.7007H157.097C157.653 42.7007 158.143 42.9193 158.521 43.297C158.899 43.6746 159.117 44.1649 159.117 44.7215V61.3911Z" fill="#8000FF"/>
<path d="M193.835 36.8041H177.165C172.792 36.8173 169.254 40.3487 169.241 44.7281V61.3978C169.254 65.7772 172.786 69.3085 177.165 69.3218H193.835C198.214 69.3085 201.746 65.7772 201.759 61.3978V44.7281C201.746 40.3487 198.214 36.8173 193.835 36.8041ZM195.856 61.3911C195.856 61.941 195.637 62.438 195.259 62.8156C194.881 63.1933 194.391 63.4118 193.835 63.4118H177.165C176.615 63.4118 176.125 63.1933 175.741 62.8156C175.363 62.438 175.144 61.9477 175.144 61.3911V44.7215C175.144 44.1716 175.363 43.6813 175.741 43.3036C176.118 42.926 176.609 42.7073 177.165 42.7073H193.835C194.391 42.7073 194.881 42.926 195.259 43.3036C195.637 43.6813 195.856 44.1716 195.856 44.7281V61.3978V61.3911Z" fill="#8000FF"/>
<path d="M232.282 36.8041H215.619C211.24 36.8173 207.708 40.3487 207.695 44.7281V61.3978C207.708 65.7772 211.24 69.3085 215.619 69.3218H232.282C236.662 69.3085 240.193 65.7772 240.206 61.3978V44.7281C240.193 40.3487 236.662 36.8173 232.282 36.8041ZM234.296 61.3911C234.296 61.941 234.078 62.438 233.7 62.8156C233.322 63.1933 232.832 63.4118 232.276 63.4118H215.613C215.063 63.4118 214.572 63.1933 214.188 62.8156C213.81 62.438 213.592 61.9477 213.592 61.3911V44.7215C213.592 44.1716 213.81 43.6813 214.188 43.297C214.566 42.9259 215.056 42.7007 215.613 42.7007H232.276C232.832 42.7007 233.322 42.9193 233.7 43.297C234.078 43.6746 234.296 44.1649 234.296 44.7215V61.3911Z" fill="#8000FF"/>
<path d="M269.02 36.8041H252.351C247.971 36.8173 244.44 40.3487 244.427 44.7281V61.3978C244.44 65.7772 247.971 69.3085 252.351 69.3218H269.02C273.4 69.3085 276.931 65.7772 276.944 61.3978V44.7281C276.931 40.3487 273.393 36.8173 269.02 36.8041ZM271.041 61.3911C271.041 61.941 270.822 62.4313 270.445 62.8156C270.067 63.1933 269.577 63.4118 269.02 63.4118H252.351C251.801 63.4118 251.31 63.1933 250.926 62.8156C250.549 62.438 250.33 61.9477 250.33 61.3911V44.7215C250.33 44.1716 250.549 43.6813 250.926 43.297C251.304 42.9259 251.794 42.7007 252.351 42.7007H269.02C269.57 42.7007 270.06 42.9193 270.445 43.297C270.822 43.6746 271.041 44.1649 271.041 44.7148V61.3845V61.3911Z" fill="#8000FF"/>
<path d="M305.785 36.8041H289.122C284.743 36.8173 281.211 40.3487 281.198 44.7281V61.3978C281.211 65.7772 284.743 69.3085 289.122 69.3218H305.785C310.164 69.3085 313.696 65.7772 313.709 61.3978V44.7281C313.696 40.3487 310.158 36.8173 305.785 36.8041ZM307.806 61.3911C307.806 61.941 307.587 62.4313 307.21 62.8156C306.832 63.1933 306.342 63.4118 305.785 63.4118H289.122C288.572 63.4118 288.082 63.1933 287.697 62.8156C287.32 62.438 287.101 61.9477 287.101 61.3911V44.7215C287.101 44.1716 287.32 43.6813 287.697 43.297C288.075 42.9259 288.565 42.7007 289.122 42.7007H305.785C306.342 42.7007 306.832 42.9193 307.21 43.297C307.587 43.6746 307.806 44.1649 307.806 44.7148V61.3845V61.3911Z" fill="#8000FF"/>
<path d="M83.5937 73.6021H66.924C62.5446 73.6153 59.0133 77.1467 59 81.5262V98.1957C59.0133 102.575 62.5446 106.107 66.924 106.12H83.5937C87.9731 106.107 91.5045 102.575 91.5177 98.1957V81.5262C91.5045 77.1467 87.9665 73.6153 83.5937 73.6021ZM85.6079 98.1891C85.6079 98.739 85.3892 99.2293 85.0115 99.6136C84.6339 99.9912 84.1436 100.21 83.5871 100.21H66.9174C66.3675 100.21 65.8773 99.9912 65.493 99.6136C65.1153 99.2359 64.8967 98.7456 64.8967 98.1891V81.5195C64.8967 80.9696 65.1153 80.4793 65.493 80.095C65.8706 79.724 66.3608 79.4987 66.9174 79.4987H83.5871C84.137 79.4987 84.6273 79.7174 85.0115 80.095C85.3892 80.4727 85.6079 80.963 85.6079 81.5129V98.1826V98.1891Z" fill="#8000FF"/>
<path d="M120.332 73.6021H103.662C99.2828 73.6153 95.7514 77.1467 95.7382 81.5262V98.1957C95.7514 102.575 99.2828 106.107 103.662 106.12H120.332C124.711 106.107 128.243 102.575 128.256 98.1957V81.5262C128.243 77.1467 124.711 73.6153 120.332 73.6021ZM122.346 98.1891C122.346 98.739 122.127 99.2359 121.75 99.6136C121.372 99.9912 120.882 100.21 120.325 100.21H103.656C103.106 100.21 102.615 99.9912 102.231 99.6136C101.853 99.2359 101.635 98.7456 101.635 98.1891V81.5195C101.635 80.9696 101.853 80.4793 102.231 80.095C102.609 79.724 103.099 79.4987 103.656 79.4987H120.325C120.882 79.4987 121.372 79.7174 121.75 80.095C122.127 80.4727 122.346 80.963 122.346 81.5195V98.1891Z" fill="#8000FF"/>
<path d="M157.097 73.6021H140.427C136.047 73.6153 132.516 77.1467 132.503 81.5262V98.1957C132.516 102.575 136.047 106.107 140.427 106.12H157.097C161.476 106.107 165.007 102.575 165.021 98.1957V81.5262C165.007 77.1467 161.469 73.6153 157.097 73.6021ZM159.117 98.1891C159.117 98.739 158.899 99.2293 158.521 99.6136C158.143 99.9912 157.653 100.21 157.097 100.21H140.427C139.877 100.21 139.387 99.9912 139.002 99.6136C138.625 99.2359 138.406 98.7456 138.406 98.1891V81.5195C138.406 80.9696 138.625 80.4793 139.002 80.095C139.38 79.724 139.87 79.4987 140.427 79.4987H157.097C157.646 79.4987 158.137 79.7174 158.521 80.095C158.899 80.4727 159.117 80.963 159.117 81.5129V98.1826V98.1891Z" fill="#8000FF"/>
<path d="M193.835 73.6021H177.165C172.786 73.6153 169.254 77.1467 169.241 81.5262V98.1957C169.254 102.575 172.786 106.107 177.165 106.12H193.835C198.214 106.107 201.746 102.575 201.759 98.1957V81.5262C201.746 77.1467 198.214 73.6153 193.835 73.6021ZM195.856 98.1891C195.856 98.739 195.637 99.2359 195.259 99.6136C194.881 99.9912 194.391 100.21 193.835 100.21H177.165C176.615 100.21 176.125 99.9912 175.741 99.6136C175.363 99.2359 175.144 98.7456 175.144 98.1891V81.5195C175.144 80.9696 175.363 80.4793 175.741 80.095C176.118 79.724 176.609 79.4987 177.165 79.4987H193.835C194.391 79.4987 194.881 79.7174 195.259 80.095C195.637 80.4727 195.856 80.963 195.856 81.5195V98.1891Z" fill="#8000FF"/>
<path d="M232.282 73.6021H215.619C211.24 73.6153 207.708 77.1467 207.695 81.5262V98.1957C207.708 102.575 211.24 106.107 215.619 106.12H232.282C236.662 106.107 240.193 102.575 240.206 98.1957V81.5262C240.193 77.1467 236.662 73.6153 232.282 73.6021ZM234.296 98.1891C234.296 98.739 234.078 99.2359 233.7 99.6136C233.322 99.9912 232.832 100.21 232.276 100.21H215.613C215.063 100.21 214.572 99.9912 214.188 99.6136C213.81 99.2359 213.592 98.7456 213.592 98.1891V81.5195C213.592 80.9696 213.81 80.4793 214.188 80.095C214.566 79.724 215.056 79.4987 215.613 79.4987H232.276C232.832 79.4987 233.322 79.7174 233.7 80.095C234.078 80.4727 234.296 80.963 234.296 81.5195V98.1891Z" fill="#8000FF"/>
<path d="M305.785 73.6021H289.122C284.743 73.6153 281.211 77.1467 281.198 81.5262V98.1957C281.211 102.575 284.743 106.107 289.122 106.12H305.785C310.164 106.107 313.696 102.575 313.709 98.1957V81.5262C313.696 77.1467 310.158 73.6153 305.785 73.6021ZM307.806 98.1891C307.806 98.739 307.587 99.2293 307.21 99.6136C306.832 99.9912 306.342 100.21 305.785 100.21H289.122C288.572 100.21 288.082 99.9912 287.697 99.6136C287.32 99.2359 287.101 98.7456 287.101 98.1891V81.5195C287.101 80.9696 287.32 80.4793 287.697 80.095C288.075 79.724 288.565 79.4987 289.122 79.4987H305.785C306.342 79.4987 306.832 79.7174 307.21 80.095C307.587 80.4727 307.806 80.963 307.806 81.5129V98.1826V98.1891Z" fill="#8000FF"/>
<path d="M342.523 73.6021H325.854C321.474 73.6153 317.943 77.1467 317.93 81.5262V98.1957C317.943 102.575 321.474 106.107 325.854 106.12H342.523C346.903 106.107 350.434 102.575 350.447 98.1957V81.5262C350.434 77.1467 346.903 73.6153 342.523 73.6021ZM344.544 98.1891C344.544 98.739 344.325 99.2359 343.948 99.6136C343.57 99.9912 343.08 100.21 342.523 100.21H325.854C325.304 100.21 324.813 99.9912 324.429 99.6136C324.052 99.2359 323.833 98.7456 323.833 98.1891V81.5195C323.833 80.9696 324.052 80.4793 324.429 80.095C324.807 79.724 325.297 79.4987 325.854 79.4987H342.523C343.08 79.4987 343.57 79.7174 343.948 80.095C344.325 80.4727 344.544 80.963 344.544 81.5195V98.1891Z" fill="#8000FF"/>
<path d="M83.5937 110.407H66.924C62.5446 110.42 59.0133 113.951 59 118.331V135C59.0133 139.38 62.5446 142.911 66.924 142.924H83.5937C87.9731 142.911 91.5045 139.38 91.5177 135V118.331C91.5045 113.951 87.9665 110.42 83.5937 110.407ZM85.6079 134.994C85.6079 135.544 85.3892 136.034 85.0115 136.418C84.6339 136.796 84.1436 137.014 83.5871 137.014H66.9174C66.3675 137.014 65.8773 136.796 65.493 136.418C65.1153 136.041 64.8967 135.55 64.8967 134.994V118.324C64.8967 117.774 65.1153 117.284 65.493 116.9C65.8706 116.529 66.3608 116.303 66.9174 116.303H83.5871C84.137 116.303 84.6273 116.522 85.0115 116.9C85.3892 117.277 85.6079 117.767 85.6079 118.324V134.994Z" fill="#8000FF"/>
<path d="M157.097 110.407H140.427C136.047 110.42 132.516 113.951 132.503 118.331V135C132.516 139.38 136.047 142.911 140.427 142.924H157.097C161.476 142.911 165.007 139.38 165.021 135V118.331C165.007 113.951 161.469 110.42 157.097 110.407ZM159.117 134.994C159.117 135.544 158.899 136.034 158.521 136.418C158.143 136.796 157.653 137.014 157.097 137.014H140.427C139.877 137.014 139.387 136.796 139.002 136.418C138.625 136.041 138.406 135.55 138.406 134.994V118.324C138.406 117.774 138.625 117.284 139.002 116.9C139.38 116.529 139.87 116.303 140.427 116.303H157.097C157.646 116.303 158.137 116.522 158.521 116.9C158.899 117.277 159.117 117.767 159.117 118.324V134.994Z" fill="#8000FF"/>
<path d="M193.835 110.407H177.165C172.786 110.42 169.254 113.951 169.241 118.331V135C169.254 139.38 172.786 142.911 177.165 142.924H193.835C198.214 142.911 201.746 139.38 201.759 135V118.331C201.746 113.951 198.214 110.42 193.835 110.407ZM195.856 134.994C195.856 135.544 195.637 136.041 195.259 136.418C194.881 136.796 194.391 137.014 193.835 137.014H177.165C176.615 137.014 176.125 136.796 175.741 136.418C175.363 136.041 175.144 135.55 175.144 134.994V118.324C175.144 117.774 175.363 117.284 175.741 116.9C176.118 116.529 176.609 116.303 177.165 116.303H193.835C194.391 116.303 194.881 116.522 195.259 116.9C195.637 117.277 195.856 117.767 195.856 118.324V134.994Z" fill="#8000FF"/>
<path d="M232.282 110.407H215.619C211.24 110.42 207.708 113.951 207.695 118.331V135C207.708 139.38 211.24 142.911 215.619 142.924H232.282C236.662 142.911 240.193 139.38 240.206 135V118.331C240.193 113.951 236.662 110.42 232.282 110.407ZM234.296 134.994C234.296 135.544 234.078 136.041 233.7 136.418C233.322 136.796 232.832 137.014 232.276 137.014H215.613C215.063 137.014 214.572 136.796 214.188 136.418C213.81 136.041 213.592 135.55 213.592 134.994V118.324C213.592 117.774 213.81 117.284 214.188 116.9C214.566 116.529 215.056 116.303 215.613 116.303H232.276C232.832 116.303 233.322 116.522 233.7 116.9C234.078 117.277 234.296 117.767 234.296 118.324V134.994Z" fill="#8000FF"/>
<path d="M269.02 110.407H252.351C247.971 110.42 244.44 113.951 244.427 118.331V135C244.44 139.38 247.971 142.911 252.351 142.924H269.02C273.4 142.911 276.931 139.38 276.944 135V118.331C276.931 113.951 273.393 110.42 269.02 110.407ZM271.041 134.994C271.041 135.544 270.822 136.034 270.445 136.418C270.067 136.796 269.577 137.014 269.02 137.014H252.351C251.801 137.014 251.31 136.796 250.926 136.418C250.549 136.041 250.33 135.55 250.33 134.994V118.324C250.33 117.774 250.549 117.284 250.926 116.9C251.304 116.529 251.794 116.303 252.351 116.303H269.02C269.57 116.303 270.06 116.522 270.445 116.9C270.822 117.277 271.041 117.767 271.041 118.324V134.994Z" fill="#8000FF"/>
<path d="M305.785 110.407H289.122C284.743 110.42 281.211 113.951 281.198 118.331V135C281.211 139.38 284.743 142.911 289.122 142.924H305.785C310.164 142.911 313.696 139.38 313.709 135V118.331C313.696 113.951 310.164 110.42 305.785 110.407ZM307.799 134.994C307.799 135.544 307.581 136.041 307.203 136.418C306.825 136.796 306.335 137.014 305.778 137.014H289.115C288.565 137.014 288.075 136.796 287.691 136.418C287.313 136.041 287.095 135.55 287.095 134.994V118.324C287.095 117.774 287.313 117.284 287.691 116.9C288.068 116.529 288.559 116.303 289.115 116.303H305.778C306.335 116.303 306.825 116.522 307.203 116.9C307.581 117.277 307.799 117.767 307.799 118.324V134.994Z" fill="#8000FF"/>
<path d="M342.523 110.407H325.854C321.474 110.42 317.943 113.951 317.93 118.331V135C317.943 139.38 321.474 142.911 325.854 142.924H342.523C346.903 142.911 350.434 139.38 350.447 135V118.331C350.434 113.951 346.903 110.42 342.523 110.407ZM344.544 134.994C344.544 135.544 344.325 136.041 343.948 136.418C343.57 136.796 343.08 137.014 342.523 137.014H325.854C325.304 137.014 324.813 136.796 324.429 136.418C324.052 136.041 323.833 135.55 323.833 134.994V118.324C323.833 117.774 324.052 117.284 324.429 116.9C324.807 116.529 325.297 116.303 325.854 116.303H342.523C343.08 116.303 343.57 116.522 343.948 116.9C344.325 117.277 344.544 117.767 344.544 118.324V134.994Z" fill="#8000FF"/>
</svg>
