<svg width="639" height="449" viewBox="0 0 639 449" fill="none" xmlns="http://www.w3.org/2000/svg">
<path d="M235.374 421.219L402.596 421.219C414.875 421.219 425.352 429.779 427.395 441.449L427.582 442.474C428.083 445.372 425.78 448 422.735 448L215.25 447.999C212.205 447.999 209.881 445.352 210.402 442.473L210.596 441.449C212.639 429.779 223.115 421.219 235.394 421.219L235.374 421.219Z" fill="#8000FF" stroke="#8000FF" stroke-width="0.75" stroke-linecap="round" stroke-linejoin="round"/>
<rect x="0.375" y="0.375" width="638.25" height="389.554" rx="15.625" fill="#8000FF" stroke="#8000FF" stroke-width="0.75"/>
<rect x="16.0251" y="13.5254" width="606.95" height="363.253" rx="12" fill="white"/>
<rect x="294.461" y="390.304" width="42.0658" height="30.9152" fill="#E6FF53"/>
<path d="M53.125 64.9766H50.1016V74H48.6953V64.9766H45.6719V63.7891H53.125V64.9766ZM61.6719 69.6641C61.6719 69.8568 61.6693 70.0182 61.6641 70.1484C61.6589 70.2786 61.651 70.401 61.6406 70.5156H56.1328C56.1328 71.3177 56.3568 71.9349 56.8047 72.3672C57.2526 72.7943 57.8984 73.0078 58.7422 73.0078C58.9714 73.0078 59.2005 73 59.4297 72.9844C59.6589 72.9635 59.8802 72.9375 60.0938 72.9062C60.3073 72.875 60.5104 72.8411 60.7031 72.8047C60.901 72.763 61.0833 72.7188 61.25 72.6719V73.7891C60.8802 73.8932 60.4609 73.9766 59.9922 74.0391C59.5286 74.1068 59.0469 74.1406 58.5469 74.1406C57.875 74.1406 57.2969 74.0495 56.8125 73.8672C56.3281 73.6849 55.9297 73.4219 55.6172 73.0781C55.3099 72.7292 55.0807 72.3047 54.9297 71.8047C54.7839 71.2995 54.7109 70.7292 54.7109 70.0938C54.7109 69.5417 54.7891 69.0208 54.9453 68.5312C55.1068 68.0365 55.3385 67.6042 55.6406 67.2344C55.9479 66.8594 56.3229 66.5625 56.7656 66.3438C57.2083 66.125 57.7109 66.0156 58.2734 66.0156C58.8203 66.0156 59.3047 66.1016 59.7266 66.2734C60.1484 66.4453 60.5026 66.6901 60.7891 67.0078C61.0807 67.3203 61.2995 67.7031 61.4453 68.1562C61.5964 68.6042 61.6719 69.1068 61.6719 69.6641ZM60.2578 69.4688C60.2734 69.1198 60.2396 68.8021 60.1562 68.5156C60.0729 68.224 59.9427 67.974 59.7656 67.7656C59.5938 67.5573 59.3776 67.3958 59.1172 67.2812C58.8568 67.1615 58.5547 67.1016 58.2109 67.1016C57.9141 67.1016 57.6432 67.1589 57.3984 67.2734C57.1536 67.388 56.9427 67.5495 56.7656 67.7578C56.5885 67.9661 56.4453 68.2161 56.3359 68.5078C56.2266 68.7995 56.1589 69.1198 56.1328 69.4688H60.2578ZM70.8984 74H69.0312L65.375 69.7969V74H64.0156V66.1562H65.375V69.7422L68.8984 66.1562H70.6953L67.0156 69.7734L70.8984 74ZM78.7344 73.7109C78.3802 73.8464 78.0156 73.9453 77.6406 74.0078C77.2708 74.0755 76.888 74.1094 76.4922 74.1094C75.2526 74.1094 74.2969 73.7734 73.625 73.1016C72.9583 72.4297 72.625 71.4479 72.625 70.1562C72.625 69.5365 72.7214 68.974 72.9141 68.4688C73.1068 67.9635 73.3776 67.5312 73.7266 67.1719C74.0755 66.8125 74.4922 66.5365 74.9766 66.3438C75.4609 66.1458 75.9948 66.0469 76.5781 66.0469C76.9844 66.0469 77.3646 66.0755 77.7188 66.1328C78.0729 66.1901 78.4115 66.2839 78.7344 66.4141V67.7109C78.3958 67.5339 78.0495 67.4062 77.6953 67.3281C77.3464 67.2448 76.9844 67.2031 76.6094 67.2031C76.2604 67.2031 75.9297 67.2708 75.6172 67.4062C75.3099 67.5365 75.0391 67.7266 74.8047 67.9766C74.5703 68.2266 74.3854 68.5312 74.25 68.8906C74.1146 69.25 74.0469 69.6562 74.0469 70.1094C74.0469 71.0573 74.276 71.7682 74.7344 72.2422C75.1979 72.7109 75.8385 72.9453 76.6562 72.9453C77.026 72.9453 77.3828 72.9036 77.7266 72.8203C78.0755 72.737 78.4115 72.612 78.7344 72.4453V73.7109ZM88.25 67.3281H85.2734V74H83.8984V67.3281H80.9219V66.1562H88.25V67.3281ZM105.844 67.3281H102.867V74H101.492V67.3281H98.5156V66.1562H105.844V67.3281ZM114.453 69.6641C114.453 69.8568 114.451 70.0182 114.445 70.1484C114.44 70.2786 114.432 70.401 114.422 70.5156H108.914C108.914 71.3177 109.138 71.9349 109.586 72.3672C110.034 72.7943 110.68 73.0078 111.523 73.0078C111.753 73.0078 111.982 73 112.211 72.9844C112.44 72.9635 112.661 72.9375 112.875 72.9062C113.089 72.875 113.292 72.8411 113.484 72.8047C113.682 72.763 113.865 72.7188 114.031 72.6719V73.7891C113.661 73.8932 113.242 73.9766 112.773 74.0391C112.31 74.1068 111.828 74.1406 111.328 74.1406C110.656 74.1406 110.078 74.0495 109.594 73.8672C109.109 73.6849 108.711 73.4219 108.398 73.0781C108.091 72.7292 107.862 72.3047 107.711 71.8047C107.565 71.2995 107.492 70.7292 107.492 70.0938C107.492 69.5417 107.57 69.0208 107.727 68.5312C107.888 68.0365 108.12 67.6042 108.422 67.2344C108.729 66.8594 109.104 66.5625 109.547 66.3438C109.99 66.125 110.492 66.0156 111.055 66.0156C111.602 66.0156 112.086 66.1016 112.508 66.2734C112.93 66.4453 113.284 66.6901 113.57 67.0078C113.862 67.3203 114.081 67.7031 114.227 68.1562C114.378 68.6042 114.453 69.1068 114.453 69.6641ZM113.039 69.4688C113.055 69.1198 113.021 68.8021 112.938 68.5156C112.854 68.224 112.724 67.974 112.547 67.7656C112.375 67.5573 112.159 67.3958 111.898 67.2812C111.638 67.1615 111.336 67.1016 110.992 67.1016C110.695 67.1016 110.424 67.1589 110.18 67.2734C109.935 67.388 109.724 67.5495 109.547 67.7578C109.37 67.9661 109.227 68.2161 109.117 68.5078C109.008 68.7995 108.94 69.1198 108.914 69.4688H113.039ZM123.68 74H121.812L118.156 69.7969V74H116.797V66.1562H118.156V69.7422L121.68 66.1562H123.477L119.797 69.7734L123.68 74ZM131.516 73.7109C131.161 73.8464 130.797 73.9453 130.422 74.0078C130.052 74.0755 129.669 74.1094 129.273 74.1094C128.034 74.1094 127.078 73.7734 126.406 73.1016C125.74 72.4297 125.406 71.4479 125.406 70.1562C125.406 69.5365 125.503 68.974 125.695 68.4688C125.888 67.9635 126.159 67.5312 126.508 67.1719C126.857 66.8125 127.273 66.5365 127.758 66.3438C128.242 66.1458 128.776 66.0469 129.359 66.0469C129.766 66.0469 130.146 66.0755 130.5 66.1328C130.854 66.1901 131.193 66.2839 131.516 66.4141V67.7109C131.177 67.5339 130.831 67.4062 130.477 67.3281C130.128 67.2448 129.766 67.2031 129.391 67.2031C129.042 67.2031 128.711 67.2708 128.398 67.4062C128.091 67.5365 127.82 67.7266 127.586 67.9766C127.352 68.2266 127.167 68.5312 127.031 68.8906C126.896 69.25 126.828 69.6562 126.828 70.1094C126.828 71.0573 127.057 71.7682 127.516 72.2422C127.979 72.7109 128.62 72.9453 129.438 72.9453C129.807 72.9453 130.164 72.9036 130.508 72.8203C130.857 72.737 131.193 72.612 131.516 72.4453V73.7109ZM141.031 67.3281H138.055V74H136.68V67.3281H133.703V66.1562H141.031V67.3281ZM158.625 67.3281H155.648V74H154.273V67.3281H151.297V66.1562H158.625V67.3281ZM167.234 69.6641C167.234 69.8568 167.232 70.0182 167.227 70.1484C167.221 70.2786 167.214 70.401 167.203 70.5156H161.695C161.695 71.3177 161.919 71.9349 162.367 72.3672C162.815 72.7943 163.461 73.0078 164.305 73.0078C164.534 73.0078 164.763 73 164.992 72.9844C165.221 72.9635 165.443 72.9375 165.656 72.9062C165.87 72.875 166.073 72.8411 166.266 72.8047C166.464 72.763 166.646 72.7188 166.812 72.6719V73.7891C166.443 73.8932 166.023 73.9766 165.555 74.0391C165.091 74.1068 164.609 74.1406 164.109 74.1406C163.438 74.1406 162.859 74.0495 162.375 73.8672C161.891 73.6849 161.492 73.4219 161.18 73.0781C160.872 72.7292 160.643 72.3047 160.492 71.8047C160.346 71.2995 160.273 70.7292 160.273 70.0938C160.273 69.5417 160.352 69.0208 160.508 68.5312C160.669 68.0365 160.901 67.6042 161.203 67.2344C161.51 66.8594 161.885 66.5625 162.328 66.3438C162.771 66.125 163.273 66.0156 163.836 66.0156C164.383 66.0156 164.867 66.1016 165.289 66.2734C165.711 66.4453 166.065 66.6901 166.352 67.0078C166.643 67.3203 166.862 67.7031 167.008 68.1562C167.159 68.6042 167.234 69.1068 167.234 69.6641ZM165.82 69.4688C165.836 69.1198 165.802 68.8021 165.719 68.5156C165.635 68.224 165.505 67.974 165.328 67.7656C165.156 67.5573 164.94 67.3958 164.68 67.2812C164.419 67.1615 164.117 67.1016 163.773 67.1016C163.477 67.1016 163.206 67.1589 162.961 67.2734C162.716 67.388 162.505 67.5495 162.328 67.7578C162.151 67.9661 162.008 68.2161 161.898 68.5078C161.789 68.7995 161.721 69.1198 161.695 69.4688H165.82ZM176.461 74H174.594L170.938 69.7969V74H169.578V66.1562H170.938V69.7422L174.461 66.1562H176.258L172.578 69.7734L176.461 74ZM184.297 73.7109C183.943 73.8464 183.578 73.9453 183.203 74.0078C182.833 74.0755 182.451 74.1094 182.055 74.1094C180.815 74.1094 179.859 73.7734 179.188 73.1016C178.521 72.4297 178.188 71.4479 178.188 70.1562C178.188 69.5365 178.284 68.974 178.477 68.4688C178.669 67.9635 178.94 67.5312 179.289 67.1719C179.638 66.8125 180.055 66.5365 180.539 66.3438C181.023 66.1458 181.557 66.0469 182.141 66.0469C182.547 66.0469 182.927 66.0755 183.281 66.1328C183.635 66.1901 183.974 66.2839 184.297 66.4141V67.7109C183.958 67.5339 183.612 67.4062 183.258 67.3281C182.909 67.2448 182.547 67.2031 182.172 67.2031C181.823 67.2031 181.492 67.2708 181.18 67.4062C180.872 67.5365 180.602 67.7266 180.367 67.9766C180.133 68.2266 179.948 68.5312 179.812 68.8906C179.677 69.25 179.609 69.6562 179.609 70.1094C179.609 71.0573 179.839 71.7682 180.297 72.2422C180.76 72.7109 181.401 72.9453 182.219 72.9453C182.589 72.9453 182.945 72.9036 183.289 72.8203C183.638 72.737 183.974 72.612 184.297 72.4453V73.7109ZM193.812 67.3281H190.836V74H189.461V67.3281H186.484V66.1562H193.812V67.3281ZM211.406 67.3281H208.43V74H207.055V67.3281H204.078V66.1562H211.406V67.3281ZM220.016 69.6641C220.016 69.8568 220.013 70.0182 220.008 70.1484C220.003 70.2786 219.995 70.401 219.984 70.5156H214.477C214.477 71.3177 214.701 71.9349 215.148 72.3672C215.596 72.7943 216.242 73.0078 217.086 73.0078C217.315 73.0078 217.544 73 217.773 72.9844C218.003 72.9635 218.224 72.9375 218.438 72.9062C218.651 72.875 218.854 72.8411 219.047 72.8047C219.245 72.763 219.427 72.7188 219.594 72.6719V73.7891C219.224 73.8932 218.805 73.9766 218.336 74.0391C217.872 74.1068 217.391 74.1406 216.891 74.1406C216.219 74.1406 215.641 74.0495 215.156 73.8672C214.672 73.6849 214.273 73.4219 213.961 73.0781C213.654 72.7292 213.424 72.3047 213.273 71.8047C213.128 71.2995 213.055 70.7292 213.055 70.0938C213.055 69.5417 213.133 69.0208 213.289 68.5312C213.451 68.0365 213.682 67.6042 213.984 67.2344C214.292 66.8594 214.667 66.5625 215.109 66.3438C215.552 66.125 216.055 66.0156 216.617 66.0156C217.164 66.0156 217.648 66.1016 218.07 66.2734C218.492 66.4453 218.846 66.6901 219.133 67.0078C219.424 67.3203 219.643 67.7031 219.789 68.1562C219.94 68.6042 220.016 69.1068 220.016 69.6641ZM218.602 69.4688C218.617 69.1198 218.583 68.8021 218.5 68.5156C218.417 68.224 218.286 67.974 218.109 67.7656C217.938 67.5573 217.721 67.3958 217.461 67.2812C217.201 67.1615 216.898 67.1016 216.555 67.1016C216.258 67.1016 215.987 67.1589 215.742 67.2734C215.497 67.388 215.286 67.5495 215.109 67.7578C214.932 67.9661 214.789 68.2161 214.68 68.5078C214.57 68.7995 214.503 69.1198 214.477 69.4688H218.602ZM229.242 74H227.375L223.719 69.7969V74H222.359V66.1562H223.719V69.7422L227.242 66.1562H229.039L225.359 69.7734L229.242 74ZM237.078 73.7109C236.724 73.8464 236.359 73.9453 235.984 74.0078C235.615 74.0755 235.232 74.1094 234.836 74.1094C233.596 74.1094 232.641 73.7734 231.969 73.1016C231.302 72.4297 230.969 71.4479 230.969 70.1562C230.969 69.5365 231.065 68.974 231.258 68.4688C231.451 67.9635 231.721 67.5312 232.07 67.1719C232.419 66.8125 232.836 66.5365 233.32 66.3438C233.805 66.1458 234.339 66.0469 234.922 66.0469C235.328 66.0469 235.708 66.0755 236.062 66.1328C236.417 66.1901 236.755 66.2839 237.078 66.4141V67.7109C236.74 67.5339 236.393 67.4062 236.039 67.3281C235.69 67.2448 235.328 67.2031 234.953 67.2031C234.604 67.2031 234.273 67.2708 233.961 67.4062C233.654 67.5365 233.383 67.7266 233.148 67.9766C232.914 68.2266 232.729 68.5312 232.594 68.8906C232.458 69.25 232.391 69.6562 232.391 70.1094C232.391 71.0573 232.62 71.7682 233.078 72.2422C233.542 72.7109 234.182 72.9453 235 72.9453C235.37 72.9453 235.727 72.9036 236.07 72.8203C236.419 72.737 236.755 72.612 237.078 72.4453V73.7109ZM246.594 67.3281H243.617V74H242.242V67.3281H239.266V66.1562H246.594V67.3281ZM264.188 67.3281H261.211V74H259.836V67.3281H256.859V66.1562H264.188V67.3281ZM272.797 69.6641C272.797 69.8568 272.794 70.0182 272.789 70.1484C272.784 70.2786 272.776 70.401 272.766 70.5156H267.258C267.258 71.3177 267.482 71.9349 267.93 72.3672C268.378 72.7943 269.023 73.0078 269.867 73.0078C270.096 73.0078 270.326 73 270.555 72.9844C270.784 72.9635 271.005 72.9375 271.219 72.9062C271.432 72.875 271.635 72.8411 271.828 72.8047C272.026 72.763 272.208 72.7188 272.375 72.6719V73.7891C272.005 73.8932 271.586 73.9766 271.117 74.0391C270.654 74.1068 270.172 74.1406 269.672 74.1406C269 74.1406 268.422 74.0495 267.938 73.8672C267.453 73.6849 267.055 73.4219 266.742 73.0781C266.435 72.7292 266.206 72.3047 266.055 71.8047C265.909 71.2995 265.836 70.7292 265.836 70.0938C265.836 69.5417 265.914 69.0208 266.07 68.5312C266.232 68.0365 266.464 67.6042 266.766 67.2344C267.073 66.8594 267.448 66.5625 267.891 66.3438C268.333 66.125 268.836 66.0156 269.398 66.0156C269.945 66.0156 270.43 66.1016 270.852 66.2734C271.273 66.4453 271.628 66.6901 271.914 67.0078C272.206 67.3203 272.424 67.7031 272.57 68.1562C272.721 68.6042 272.797 69.1068 272.797 69.6641ZM271.383 69.4688C271.398 69.1198 271.365 68.8021 271.281 68.5156C271.198 68.224 271.068 67.974 270.891 67.7656C270.719 67.5573 270.503 67.3958 270.242 67.2812C269.982 67.1615 269.68 67.1016 269.336 67.1016C269.039 67.1016 268.768 67.1589 268.523 67.2734C268.279 67.388 268.068 67.5495 267.891 67.7578C267.714 67.9661 267.57 68.2161 267.461 68.5078C267.352 68.7995 267.284 69.1198 267.258 69.4688H271.383ZM282.023 74H280.156L276.5 69.7969V74H275.141V66.1562H276.5V69.7422L280.023 66.1562H281.82L278.141 69.7734L282.023 74ZM289.859 73.7109C289.505 73.8464 289.141 73.9453 288.766 74.0078C288.396 74.0755 288.013 74.1094 287.617 74.1094C286.378 74.1094 285.422 73.7734 284.75 73.1016C284.083 72.4297 283.75 71.4479 283.75 70.1562C283.75 69.5365 283.846 68.974 284.039 68.4688C284.232 67.9635 284.503 67.5312 284.852 67.1719C285.201 66.8125 285.617 66.5365 286.102 66.3438C286.586 66.1458 287.12 66.0469 287.703 66.0469C288.109 66.0469 288.49 66.0755 288.844 66.1328C289.198 66.1901 289.536 66.2839 289.859 66.4141V67.7109C289.521 67.5339 289.174 67.4062 288.82 67.3281C288.471 67.2448 288.109 67.2031 287.734 67.2031C287.385 67.2031 287.055 67.2708 286.742 67.4062C286.435 67.5365 286.164 67.7266 285.93 67.9766C285.695 68.2266 285.51 68.5312 285.375 68.8906C285.24 69.25 285.172 69.6562 285.172 70.1094C285.172 71.0573 285.401 71.7682 285.859 72.2422C286.323 72.7109 286.964 72.9453 287.781 72.9453C288.151 72.9453 288.508 72.9036 288.852 72.8203C289.201 72.737 289.536 72.612 289.859 72.4453V73.7109ZM299.375 67.3281H296.398V74H295.023V67.3281H292.047V66.1562H299.375V67.3281ZM316.969 67.3281H313.992V74H312.617V67.3281H309.641V66.1562H316.969V67.3281ZM325.578 69.6641C325.578 69.8568 325.576 70.0182 325.57 70.1484C325.565 70.2786 325.557 70.401 325.547 70.5156H320.039C320.039 71.3177 320.263 71.9349 320.711 72.3672C321.159 72.7943 321.805 73.0078 322.648 73.0078C322.878 73.0078 323.107 73 323.336 72.9844C323.565 72.9635 323.786 72.9375 324 72.9062C324.214 72.875 324.417 72.8411 324.609 72.8047C324.807 72.763 324.99 72.7188 325.156 72.6719V73.7891C324.786 73.8932 324.367 73.9766 323.898 74.0391C323.435 74.1068 322.953 74.1406 322.453 74.1406C321.781 74.1406 321.203 74.0495 320.719 73.8672C320.234 73.6849 319.836 73.4219 319.523 73.0781C319.216 72.7292 318.987 72.3047 318.836 71.8047C318.69 71.2995 318.617 70.7292 318.617 70.0938C318.617 69.5417 318.695 69.0208 318.852 68.5312C319.013 68.0365 319.245 67.6042 319.547 67.2344C319.854 66.8594 320.229 66.5625 320.672 66.3438C321.115 66.125 321.617 66.0156 322.18 66.0156C322.727 66.0156 323.211 66.1016 323.633 66.2734C324.055 66.4453 324.409 66.6901 324.695 67.0078C324.987 67.3203 325.206 67.7031 325.352 68.1562C325.503 68.6042 325.578 69.1068 325.578 69.6641ZM324.164 69.4688C324.18 69.1198 324.146 68.8021 324.062 68.5156C323.979 68.224 323.849 67.974 323.672 67.7656C323.5 67.5573 323.284 67.3958 323.023 67.2812C322.763 67.1615 322.461 67.1016 322.117 67.1016C321.82 67.1016 321.549 67.1589 321.305 67.2734C321.06 67.388 320.849 67.5495 320.672 67.7578C320.495 67.9661 320.352 68.2161 320.242 68.5078C320.133 68.7995 320.065 69.1198 320.039 69.4688H324.164ZM334.805 74H332.938L329.281 69.7969V74H327.922V66.1562H329.281V69.7422L332.805 66.1562H334.602L330.922 69.7734L334.805 74ZM342.641 73.7109C342.286 73.8464 341.922 73.9453 341.547 74.0078C341.177 74.0755 340.794 74.1094 340.398 74.1094C339.159 74.1094 338.203 73.7734 337.531 73.1016C336.865 72.4297 336.531 71.4479 336.531 70.1562C336.531 69.5365 336.628 68.974 336.82 68.4688C337.013 67.9635 337.284 67.5312 337.633 67.1719C337.982 66.8125 338.398 66.5365 338.883 66.3438C339.367 66.1458 339.901 66.0469 340.484 66.0469C340.891 66.0469 341.271 66.0755 341.625 66.1328C341.979 66.1901 342.318 66.2839 342.641 66.4141V67.7109C342.302 67.5339 341.956 67.4062 341.602 67.3281C341.253 67.2448 340.891 67.2031 340.516 67.2031C340.167 67.2031 339.836 67.2708 339.523 67.4062C339.216 67.5365 338.945 67.7266 338.711 67.9766C338.477 68.2266 338.292 68.5312 338.156 68.8906C338.021 69.25 337.953 69.6562 337.953 70.1094C337.953 71.0573 338.182 71.7682 338.641 72.2422C339.104 72.7109 339.745 72.9453 340.562 72.9453C340.932 72.9453 341.289 72.9036 341.633 72.8203C341.982 72.737 342.318 72.612 342.641 72.4453V73.7109ZM352.156 67.3281H349.18V74H347.805V67.3281H344.828V66.1562H352.156V67.3281ZM369.75 67.3281H366.773V74H365.398V67.3281H362.422V66.1562H369.75V67.3281ZM378.359 69.6641C378.359 69.8568 378.357 70.0182 378.352 70.1484C378.346 70.2786 378.339 70.401 378.328 70.5156H372.82C372.82 71.3177 373.044 71.9349 373.492 72.3672C373.94 72.7943 374.586 73.0078 375.43 73.0078C375.659 73.0078 375.888 73 376.117 72.9844C376.346 72.9635 376.568 72.9375 376.781 72.9062C376.995 72.875 377.198 72.8411 377.391 72.8047C377.589 72.763 377.771 72.7188 377.938 72.6719V73.7891C377.568 73.8932 377.148 73.9766 376.68 74.0391C376.216 74.1068 375.734 74.1406 375.234 74.1406C374.562 74.1406 373.984 74.0495 373.5 73.8672C373.016 73.6849 372.617 73.4219 372.305 73.0781C371.997 72.7292 371.768 72.3047 371.617 71.8047C371.471 71.2995 371.398 70.7292 371.398 70.0938C371.398 69.5417 371.477 69.0208 371.633 68.5312C371.794 68.0365 372.026 67.6042 372.328 67.2344C372.635 66.8594 373.01 66.5625 373.453 66.3438C373.896 66.125 374.398 66.0156 374.961 66.0156C375.508 66.0156 375.992 66.1016 376.414 66.2734C376.836 66.4453 377.19 66.6901 377.477 67.0078C377.768 67.3203 377.987 67.7031 378.133 68.1562C378.284 68.6042 378.359 69.1068 378.359 69.6641ZM376.945 69.4688C376.961 69.1198 376.927 68.8021 376.844 68.5156C376.76 68.224 376.63 67.974 376.453 67.7656C376.281 67.5573 376.065 67.3958 375.805 67.2812C375.544 67.1615 375.242 67.1016 374.898 67.1016C374.602 67.1016 374.331 67.1589 374.086 67.2734C373.841 67.388 373.63 67.5495 373.453 67.7578C373.276 67.9661 373.133 68.2161 373.023 68.5078C372.914 68.7995 372.846 69.1198 372.82 69.4688H376.945ZM387.586 74H385.719L382.062 69.7969V74H380.703V66.1562H382.062V69.7422L385.586 66.1562H387.383L383.703 69.7734L387.586 74ZM395.422 73.7109C395.068 73.8464 394.703 73.9453 394.328 74.0078C393.958 74.0755 393.576 74.1094 393.18 74.1094C391.94 74.1094 390.984 73.7734 390.312 73.1016C389.646 72.4297 389.312 71.4479 389.312 70.1562C389.312 69.5365 389.409 68.974 389.602 68.4688C389.794 67.9635 390.065 67.5312 390.414 67.1719C390.763 66.8125 391.18 66.5365 391.664 66.3438C392.148 66.1458 392.682 66.0469 393.266 66.0469C393.672 66.0469 394.052 66.0755 394.406 66.1328C394.76 66.1901 395.099 66.2839 395.422 66.4141V67.7109C395.083 67.5339 394.737 67.4062 394.383 67.3281C394.034 67.2448 393.672 67.2031 393.297 67.2031C392.948 67.2031 392.617 67.2708 392.305 67.4062C391.997 67.5365 391.727 67.7266 391.492 67.9766C391.258 68.2266 391.073 68.5312 390.938 68.8906C390.802 69.25 390.734 69.6562 390.734 70.1094C390.734 71.0573 390.964 71.7682 391.422 72.2422C391.885 72.7109 392.526 72.9453 393.344 72.9453C393.714 72.9453 394.07 72.9036 394.414 72.8203C394.763 72.737 395.099 72.612 395.422 72.4453V73.7109ZM404.938 67.3281H401.961V74H400.586V67.3281H397.609V66.1562H404.938V67.3281ZM422.594 64.9766H419.57V74H418.164V64.9766H415.141V63.7891H422.594V64.9766ZM431.141 69.6641C431.141 69.8568 431.138 70.0182 431.133 70.1484C431.128 70.2786 431.12 70.401 431.109 70.5156H425.602C425.602 71.3177 425.826 71.9349 426.273 72.3672C426.721 72.7943 427.367 73.0078 428.211 73.0078C428.44 73.0078 428.669 73 428.898 72.9844C429.128 72.9635 429.349 72.9375 429.562 72.9062C429.776 72.875 429.979 72.8411 430.172 72.8047C430.37 72.763 430.552 72.7188 430.719 72.6719V73.7891C430.349 73.8932 429.93 73.9766 429.461 74.0391C428.997 74.1068 428.516 74.1406 428.016 74.1406C427.344 74.1406 426.766 74.0495 426.281 73.8672C425.797 73.6849 425.398 73.4219 425.086 73.0781C424.779 72.7292 424.549 72.3047 424.398 71.8047C424.253 71.2995 424.18 70.7292 424.18 70.0938C424.18 69.5417 424.258 69.0208 424.414 68.5312C424.576 68.0365 424.807 67.6042 425.109 67.2344C425.417 66.8594 425.792 66.5625 426.234 66.3438C426.677 66.125 427.18 66.0156 427.742 66.0156C428.289 66.0156 428.773 66.1016 429.195 66.2734C429.617 66.4453 429.971 66.6901 430.258 67.0078C430.549 67.3203 430.768 67.7031 430.914 68.1562C431.065 68.6042 431.141 69.1068 431.141 69.6641ZM429.727 69.4688C429.742 69.1198 429.708 68.8021 429.625 68.5156C429.542 68.224 429.411 67.974 429.234 67.7656C429.062 67.5573 428.846 67.3958 428.586 67.2812C428.326 67.1615 428.023 67.1016 427.68 67.1016C427.383 67.1016 427.112 67.1589 426.867 67.2734C426.622 67.388 426.411 67.5495 426.234 67.7578C426.057 67.9661 425.914 68.2161 425.805 68.5078C425.695 68.7995 425.628 69.1198 425.602 69.4688H429.727ZM440.367 74H438.5L434.844 69.7969V74H433.484V66.1562H434.844V69.7422L438.367 66.1562H440.164L436.484 69.7734L440.367 74ZM448.203 73.7109C447.849 73.8464 447.484 73.9453 447.109 74.0078C446.74 74.0755 446.357 74.1094 445.961 74.1094C444.721 74.1094 443.766 73.7734 443.094 73.1016C442.427 72.4297 442.094 71.4479 442.094 70.1562C442.094 69.5365 442.19 68.974 442.383 68.4688C442.576 67.9635 442.846 67.5312 443.195 67.1719C443.544 66.8125 443.961 66.5365 444.445 66.3438C444.93 66.1458 445.464 66.0469 446.047 66.0469C446.453 66.0469 446.833 66.0755 447.188 66.1328C447.542 66.1901 447.88 66.2839 448.203 66.4141V67.7109C447.865 67.5339 447.518 67.4062 447.164 67.3281C446.815 67.2448 446.453 67.2031 446.078 67.2031C445.729 67.2031 445.398 67.2708 445.086 67.4062C444.779 67.5365 444.508 67.7266 444.273 67.9766C444.039 68.2266 443.854 68.5312 443.719 68.8906C443.583 69.25 443.516 69.6562 443.516 70.1094C443.516 71.0573 443.745 71.7682 444.203 72.2422C444.667 72.7109 445.307 72.9453 446.125 72.9453C446.495 72.9453 446.852 72.9036 447.195 72.8203C447.544 72.737 447.88 72.612 448.203 72.4453V73.7109ZM457.719 67.3281H454.742V74H453.367V67.3281H450.391V66.1562H457.719V67.3281ZM475.312 67.3281H472.336V74H470.961V67.3281H467.984V66.1562H475.312V67.3281ZM483.922 69.6641C483.922 69.8568 483.919 70.0182 483.914 70.1484C483.909 70.2786 483.901 70.401 483.891 70.5156H478.383C478.383 71.3177 478.607 71.9349 479.055 72.3672C479.503 72.7943 480.148 73.0078 480.992 73.0078C481.221 73.0078 481.451 73 481.68 72.9844C481.909 72.9635 482.13 72.9375 482.344 72.9062C482.557 72.875 482.76 72.8411 482.953 72.8047C483.151 72.763 483.333 72.7188 483.5 72.6719V73.7891C483.13 73.8932 482.711 73.9766 482.242 74.0391C481.779 74.1068 481.297 74.1406 480.797 74.1406C480.125 74.1406 479.547 74.0495 479.062 73.8672C478.578 73.6849 478.18 73.4219 477.867 73.0781C477.56 72.7292 477.331 72.3047 477.18 71.8047C477.034 71.2995 476.961 70.7292 476.961 70.0938C476.961 69.5417 477.039 69.0208 477.195 68.5312C477.357 68.0365 477.589 67.6042 477.891 67.2344C478.198 66.8594 478.573 66.5625 479.016 66.3438C479.458 66.125 479.961 66.0156 480.523 66.0156C481.07 66.0156 481.555 66.1016 481.977 66.2734C482.398 66.4453 482.753 66.6901 483.039 67.0078C483.331 67.3203 483.549 67.7031 483.695 68.1562C483.846 68.6042 483.922 69.1068 483.922 69.6641ZM482.508 69.4688C482.523 69.1198 482.49 68.8021 482.406 68.5156C482.323 68.224 482.193 67.974 482.016 67.7656C481.844 67.5573 481.628 67.3958 481.367 67.2812C481.107 67.1615 480.805 67.1016 480.461 67.1016C480.164 67.1016 479.893 67.1589 479.648 67.2734C479.404 67.388 479.193 67.5495 479.016 67.7578C478.839 67.9661 478.695 68.2161 478.586 68.5078C478.477 68.7995 478.409 69.1198 478.383 69.4688H482.508ZM493.148 74H491.281L487.625 69.7969V74H486.266V66.1562H487.625V69.7422L491.148 66.1562H492.945L489.266 69.7734L493.148 74ZM500.984 73.7109C500.63 73.8464 500.266 73.9453 499.891 74.0078C499.521 74.0755 499.138 74.1094 498.742 74.1094C497.503 74.1094 496.547 73.7734 495.875 73.1016C495.208 72.4297 494.875 71.4479 494.875 70.1562C494.875 69.5365 494.971 68.974 495.164 68.4688C495.357 67.9635 495.628 67.5312 495.977 67.1719C496.326 66.8125 496.742 66.5365 497.227 66.3438C497.711 66.1458 498.245 66.0469 498.828 66.0469C499.234 66.0469 499.615 66.0755 499.969 66.1328C500.323 66.1901 500.661 66.2839 500.984 66.4141V67.7109C500.646 67.5339 500.299 67.4062 499.945 67.3281C499.596 67.2448 499.234 67.2031 498.859 67.2031C498.51 67.2031 498.18 67.2708 497.867 67.4062C497.56 67.5365 497.289 67.7266 497.055 67.9766C496.82 68.2266 496.635 68.5312 496.5 68.8906C496.365 69.25 496.297 69.6562 496.297 70.1094C496.297 71.0573 496.526 71.7682 496.984 72.2422C497.448 72.7109 498.089 72.9453 498.906 72.9453C499.276 72.9453 499.633 72.9036 499.977 72.8203C500.326 72.737 500.661 72.612 500.984 72.4453V73.7109ZM510.5 67.3281H507.523V74H506.148V67.3281H503.172V66.1562H510.5V67.3281ZM528.094 67.3281H525.117V74H523.742V67.3281H520.766V66.1562H528.094V67.3281ZM536.703 69.6641C536.703 69.8568 536.701 70.0182 536.695 70.1484C536.69 70.2786 536.682 70.401 536.672 70.5156H531.164C531.164 71.3177 531.388 71.9349 531.836 72.3672C532.284 72.7943 532.93 73.0078 533.773 73.0078C534.003 73.0078 534.232 73 534.461 72.9844C534.69 72.9635 534.911 72.9375 535.125 72.9062C535.339 72.875 535.542 72.8411 535.734 72.8047C535.932 72.763 536.115 72.7188 536.281 72.6719V73.7891C535.911 73.8932 535.492 73.9766 535.023 74.0391C534.56 74.1068 534.078 74.1406 533.578 74.1406C532.906 74.1406 532.328 74.0495 531.844 73.8672C531.359 73.6849 530.961 73.4219 530.648 73.0781C530.341 72.7292 530.112 72.3047 529.961 71.8047C529.815 71.2995 529.742 70.7292 529.742 70.0938C529.742 69.5417 529.82 69.0208 529.977 68.5312C530.138 68.0365 530.37 67.6042 530.672 67.2344C530.979 66.8594 531.354 66.5625 531.797 66.3438C532.24 66.125 532.742 66.0156 533.305 66.0156C533.852 66.0156 534.336 66.1016 534.758 66.2734C535.18 66.4453 535.534 66.6901 535.82 67.0078C536.112 67.3203 536.331 67.7031 536.477 68.1562C536.628 68.6042 536.703 69.1068 536.703 69.6641ZM535.289 69.4688C535.305 69.1198 535.271 68.8021 535.188 68.5156C535.104 68.224 534.974 67.974 534.797 67.7656C534.625 67.5573 534.409 67.3958 534.148 67.2812C533.888 67.1615 533.586 67.1016 533.242 67.1016C532.945 67.1016 532.674 67.1589 532.43 67.2734C532.185 67.388 531.974 67.5495 531.797 67.7578C531.62 67.9661 531.477 68.2161 531.367 68.5078C531.258 68.7995 531.19 69.1198 531.164 69.4688H535.289ZM545.93 74H544.062L540.406 69.7969V74H539.047V66.1562H540.406V69.7422L543.93 66.1562H545.727L542.047 69.7734L545.93 74ZM553.766 73.7109C553.411 73.8464 553.047 73.9453 552.672 74.0078C552.302 74.0755 551.919 74.1094 551.523 74.1094C550.284 74.1094 549.328 73.7734 548.656 73.1016C547.99 72.4297 547.656 71.4479 547.656 70.1562C547.656 69.5365 547.753 68.974 547.945 68.4688C548.138 67.9635 548.409 67.5312 548.758 67.1719C549.107 66.8125 549.523 66.5365 550.008 66.3438C550.492 66.1458 551.026 66.0469 551.609 66.0469C552.016 66.0469 552.396 66.0755 552.75 66.1328C553.104 66.1901 553.443 66.2839 553.766 66.4141V67.7109C553.427 67.5339 553.081 67.4062 552.727 67.3281C552.378 67.2448 552.016 67.2031 551.641 67.2031C551.292 67.2031 550.961 67.2708 550.648 67.4062C550.341 67.5365 550.07 67.7266 549.836 67.9766C549.602 68.2266 549.417 68.5312 549.281 68.8906C549.146 69.25 549.078 69.6562 549.078 70.1094C549.078 71.0573 549.307 71.7682 549.766 72.2422C550.229 72.7109 550.87 72.9453 551.688 72.9453C552.057 72.9453 552.414 72.9036 552.758 72.8203C553.107 72.737 553.443 72.612 553.766 72.4453V73.7109ZM563.281 67.3281H560.305V74H558.93V67.3281H555.953V66.1562H563.281V67.3281ZM53.0625 86.3281H50.0859V93H48.7109V86.3281H45.7344V85.1562H53.0625V86.3281ZM61.6719 88.6641C61.6719 88.8568 61.6693 89.0182 61.6641 89.1484C61.6589 89.2786 61.651 89.401 61.6406 89.5156H56.1328C56.1328 90.3177 56.3568 90.9349 56.8047 91.3672C57.2526 91.7943 57.8984 92.0078 58.7422 92.0078C58.9714 92.0078 59.2005 92 59.4297 91.9844C59.6589 91.9635 59.8802 91.9375 60.0938 91.9062C60.3073 91.875 60.5104 91.8411 60.7031 91.8047C60.901 91.763 61.0833 91.7188 61.25 91.6719V92.7891C60.8802 92.8932 60.4609 92.9766 59.9922 93.0391C59.5286 93.1068 59.0469 93.1406 58.5469 93.1406C57.875 93.1406 57.2969 93.0495 56.8125 92.8672C56.3281 92.6849 55.9297 92.4219 55.6172 92.0781C55.3099 91.7292 55.0807 91.3047 54.9297 90.8047C54.7839 90.2995 54.7109 89.7292 54.7109 89.0938C54.7109 88.5417 54.7891 88.0208 54.9453 87.5312C55.1068 87.0365 55.3385 86.6042 55.6406 86.2344C55.9479 85.8594 56.3229 85.5625 56.7656 85.3438C57.2083 85.125 57.7109 85.0156 58.2734 85.0156C58.8203 85.0156 59.3047 85.1016 59.7266 85.2734C60.1484 85.4453 60.5026 85.6901 60.7891 86.0078C61.0807 86.3203 61.2995 86.7031 61.4453 87.1562C61.5964 87.6042 61.6719 88.1068 61.6719 88.6641ZM60.2578 88.4688C60.2734 88.1198 60.2396 87.8021 60.1562 87.5156C60.0729 87.224 59.9427 86.974 59.7656 86.7656C59.5938 86.5573 59.3776 86.3958 59.1172 86.2812C58.8568 86.1615 58.5547 86.1016 58.2109 86.1016C57.9141 86.1016 57.6432 86.1589 57.3984 86.2734C57.1536 86.388 56.9427 86.5495 56.7656 86.7578C56.5885 86.9661 56.4453 87.2161 56.3359 87.5078C56.2266 87.7995 56.1589 88.1198 56.1328 88.4688H60.2578ZM70.8984 93H69.0312L65.375 88.7969V93H64.0156V85.1562H65.375V88.7422L68.8984 85.1562H70.6953L67.0156 88.7734L70.8984 93ZM78.7344 92.7109C78.3802 92.8464 78.0156 92.9453 77.6406 93.0078C77.2708 93.0755 76.888 93.1094 76.4922 93.1094C75.2526 93.1094 74.2969 92.7734 73.625 92.1016C72.9583 91.4297 72.625 90.4479 72.625 89.1562C72.625 88.5365 72.7214 87.974 72.9141 87.4688C73.1068 86.9635 73.3776 86.5312 73.7266 86.1719C74.0755 85.8125 74.4922 85.5365 74.9766 85.3438C75.4609 85.1458 75.9948 85.0469 76.5781 85.0469C76.9844 85.0469 77.3646 85.0755 77.7188 85.1328C78.0729 85.1901 78.4115 85.2839 78.7344 85.4141V86.7109C78.3958 86.5339 78.0495 86.4062 77.6953 86.3281C77.3464 86.2448 76.9844 86.2031 76.6094 86.2031C76.2604 86.2031 75.9297 86.2708 75.6172 86.4062C75.3099 86.5365 75.0391 86.7266 74.8047 86.9766C74.5703 87.2266 74.3854 87.5312 74.25 87.8906C74.1146 88.25 74.0469 88.6562 74.0469 89.1094C74.0469 90.0573 74.276 90.7682 74.7344 91.2422C75.1979 91.7109 75.8385 91.9453 76.6562 91.9453C77.026 91.9453 77.3828 91.9036 77.7266 91.8203C78.0755 91.737 78.4115 91.612 78.7344 91.4453V92.7109ZM88.25 86.3281H85.2734V93H83.8984V86.3281H80.9219V85.1562H88.25V86.3281ZM105.844 86.3281H102.867V93H101.492V86.3281H98.5156V85.1562H105.844V86.3281ZM114.453 88.6641C114.453 88.8568 114.451 89.0182 114.445 89.1484C114.44 89.2786 114.432 89.401 114.422 89.5156H108.914C108.914 90.3177 109.138 90.9349 109.586 91.3672C110.034 91.7943 110.68 92.0078 111.523 92.0078C111.753 92.0078 111.982 92 112.211 91.9844C112.44 91.9635 112.661 91.9375 112.875 91.9062C113.089 91.875 113.292 91.8411 113.484 91.8047C113.682 91.763 113.865 91.7188 114.031 91.6719V92.7891C113.661 92.8932 113.242 92.9766 112.773 93.0391C112.31 93.1068 111.828 93.1406 111.328 93.1406C110.656 93.1406 110.078 93.0495 109.594 92.8672C109.109 92.6849 108.711 92.4219 108.398 92.0781C108.091 91.7292 107.862 91.3047 107.711 90.8047C107.565 90.2995 107.492 89.7292 107.492 89.0938C107.492 88.5417 107.57 88.0208 107.727 87.5312C107.888 87.0365 108.12 86.6042 108.422 86.2344C108.729 85.8594 109.104 85.5625 109.547 85.3438C109.99 85.125 110.492 85.0156 111.055 85.0156C111.602 85.0156 112.086 85.1016 112.508 85.2734C112.93 85.4453 113.284 85.6901 113.57 86.0078C113.862 86.3203 114.081 86.7031 114.227 87.1562C114.378 87.6042 114.453 88.1068 114.453 88.6641ZM113.039 88.4688C113.055 88.1198 113.021 87.8021 112.938 87.5156C112.854 87.224 112.724 86.974 112.547 86.7656C112.375 86.5573 112.159 86.3958 111.898 86.2812C111.638 86.1615 111.336 86.1016 110.992 86.1016C110.695 86.1016 110.424 86.1589 110.18 86.2734C109.935 86.388 109.724 86.5495 109.547 86.7578C109.37 86.9661 109.227 87.2161 109.117 87.5078C109.008 87.7995 108.94 88.1198 108.914 88.4688H113.039ZM123.68 93H121.812L118.156 88.7969V93H116.797V85.1562H118.156V88.7422L121.68 85.1562H123.477L119.797 88.7734L123.68 93ZM131.516 92.7109C131.161 92.8464 130.797 92.9453 130.422 93.0078C130.052 93.0755 129.669 93.1094 129.273 93.1094C128.034 93.1094 127.078 92.7734 126.406 92.1016C125.74 91.4297 125.406 90.4479 125.406 89.1562C125.406 88.5365 125.503 87.974 125.695 87.4688C125.888 86.9635 126.159 86.5312 126.508 86.1719C126.857 85.8125 127.273 85.5365 127.758 85.3438C128.242 85.1458 128.776 85.0469 129.359 85.0469C129.766 85.0469 130.146 85.0755 130.5 85.1328C130.854 85.1901 131.193 85.2839 131.516 85.4141V86.7109C131.177 86.5339 130.831 86.4062 130.477 86.3281C130.128 86.2448 129.766 86.2031 129.391 86.2031C129.042 86.2031 128.711 86.2708 128.398 86.4062C128.091 86.5365 127.82 86.7266 127.586 86.9766C127.352 87.2266 127.167 87.5312 127.031 87.8906C126.896 88.25 126.828 88.6562 126.828 89.1094C126.828 90.0573 127.057 90.7682 127.516 91.2422C127.979 91.7109 128.62 91.9453 129.438 91.9453C129.807 91.9453 130.164 91.9036 130.508 91.8203C130.857 91.737 131.193 91.612 131.516 91.4453V92.7109ZM141.031 86.3281H138.055V93H136.68V86.3281H133.703V85.1562H141.031V86.3281ZM158.625 86.3281H155.648V93H154.273V86.3281H151.297V85.1562H158.625V86.3281ZM167.234 88.6641C167.234 88.8568 167.232 89.0182 167.227 89.1484C167.221 89.2786 167.214 89.401 167.203 89.5156H161.695C161.695 90.3177 161.919 90.9349 162.367 91.3672C162.815 91.7943 163.461 92.0078 164.305 92.0078C164.534 92.0078 164.763 92 164.992 91.9844C165.221 91.9635 165.443 91.9375 165.656 91.9062C165.87 91.875 166.073 91.8411 166.266 91.8047C166.464 91.763 166.646 91.7188 166.812 91.6719V92.7891C166.443 92.8932 166.023 92.9766 165.555 93.0391C165.091 93.1068 164.609 93.1406 164.109 93.1406C163.438 93.1406 162.859 93.0495 162.375 92.8672C161.891 92.6849 161.492 92.4219 161.18 92.0781C160.872 91.7292 160.643 91.3047 160.492 90.8047C160.346 90.2995 160.273 89.7292 160.273 89.0938C160.273 88.5417 160.352 88.0208 160.508 87.5312C160.669 87.0365 160.901 86.6042 161.203 86.2344C161.51 85.8594 161.885 85.5625 162.328 85.3438C162.771 85.125 163.273 85.0156 163.836 85.0156C164.383 85.0156 164.867 85.1016 165.289 85.2734C165.711 85.4453 166.065 85.6901 166.352 86.0078C166.643 86.3203 166.862 86.7031 167.008 87.1562C167.159 87.6042 167.234 88.1068 167.234 88.6641ZM165.82 88.4688C165.836 88.1198 165.802 87.8021 165.719 87.5156C165.635 87.224 165.505 86.974 165.328 86.7656C165.156 86.5573 164.94 86.3958 164.68 86.2812C164.419 86.1615 164.117 86.1016 163.773 86.1016C163.477 86.1016 163.206 86.1589 162.961 86.2734C162.716 86.388 162.505 86.5495 162.328 86.7578C162.151 86.9661 162.008 87.2161 161.898 87.5078C161.789 87.7995 161.721 88.1198 161.695 88.4688H165.82ZM176.461 93H174.594L170.938 88.7969V93H169.578V85.1562H170.938V88.7422L174.461 85.1562H176.258L172.578 88.7734L176.461 93ZM184.297 92.7109C183.943 92.8464 183.578 92.9453 183.203 93.0078C182.833 93.0755 182.451 93.1094 182.055 93.1094C180.815 93.1094 179.859 92.7734 179.188 92.1016C178.521 91.4297 178.188 90.4479 178.188 89.1562C178.188 88.5365 178.284 87.974 178.477 87.4688C178.669 86.9635 178.94 86.5312 179.289 86.1719C179.638 85.8125 180.055 85.5365 180.539 85.3438C181.023 85.1458 181.557 85.0469 182.141 85.0469C182.547 85.0469 182.927 85.0755 183.281 85.1328C183.635 85.1901 183.974 85.2839 184.297 85.4141V86.7109C183.958 86.5339 183.612 86.4062 183.258 86.3281C182.909 86.2448 182.547 86.2031 182.172 86.2031C181.823 86.2031 181.492 86.2708 181.18 86.4062C180.872 86.5365 180.602 86.7266 180.367 86.9766C180.133 87.2266 179.948 87.5312 179.812 87.8906C179.677 88.25 179.609 88.6562 179.609 89.1094C179.609 90.0573 179.839 90.7682 180.297 91.2422C180.76 91.7109 181.401 91.9453 182.219 91.9453C182.589 91.9453 182.945 91.9036 183.289 91.8203C183.638 91.737 183.974 91.612 184.297 91.4453V92.7109ZM193.812 86.3281H190.836V93H189.461V86.3281H186.484V85.1562H193.812V86.3281ZM211.406 86.3281H208.43V93H207.055V86.3281H204.078V85.1562H211.406V86.3281ZM220.016 88.6641C220.016 88.8568 220.013 89.0182 220.008 89.1484C220.003 89.2786 219.995 89.401 219.984 89.5156H214.477C214.477 90.3177 214.701 90.9349 215.148 91.3672C215.596 91.7943 216.242 92.0078 217.086 92.0078C217.315 92.0078 217.544 92 217.773 91.9844C218.003 91.9635 218.224 91.9375 218.438 91.9062C218.651 91.875 218.854 91.8411 219.047 91.8047C219.245 91.763 219.427 91.7188 219.594 91.6719V92.7891C219.224 92.8932 218.805 92.9766 218.336 93.0391C217.872 93.1068 217.391 93.1406 216.891 93.1406C216.219 93.1406 215.641 93.0495 215.156 92.8672C214.672 92.6849 214.273 92.4219 213.961 92.0781C213.654 91.7292 213.424 91.3047 213.273 90.8047C213.128 90.2995 213.055 89.7292 213.055 89.0938C213.055 88.5417 213.133 88.0208 213.289 87.5312C213.451 87.0365 213.682 86.6042 213.984 86.2344C214.292 85.8594 214.667 85.5625 215.109 85.3438C215.552 85.125 216.055 85.0156 216.617 85.0156C217.164 85.0156 217.648 85.1016 218.07 85.2734C218.492 85.4453 218.846 85.6901 219.133 86.0078C219.424 86.3203 219.643 86.7031 219.789 87.1562C219.94 87.6042 220.016 88.1068 220.016 88.6641ZM218.602 88.4688C218.617 88.1198 218.583 87.8021 218.5 87.5156C218.417 87.224 218.286 86.974 218.109 86.7656C217.938 86.5573 217.721 86.3958 217.461 86.2812C217.201 86.1615 216.898 86.1016 216.555 86.1016C216.258 86.1016 215.987 86.1589 215.742 86.2734C215.497 86.388 215.286 86.5495 215.109 86.7578C214.932 86.9661 214.789 87.2161 214.68 87.5078C214.57 87.7995 214.503 88.1198 214.477 88.4688H218.602ZM229.242 93H227.375L223.719 88.7969V93H222.359V85.1562H223.719V88.7422L227.242 85.1562H229.039L225.359 88.7734L229.242 93ZM237.078 92.7109C236.724 92.8464 236.359 92.9453 235.984 93.0078C235.615 93.0755 235.232 93.1094 234.836 93.1094C233.596 93.1094 232.641 92.7734 231.969 92.1016C231.302 91.4297 230.969 90.4479 230.969 89.1562C230.969 88.5365 231.065 87.974 231.258 87.4688C231.451 86.9635 231.721 86.5312 232.07 86.1719C232.419 85.8125 232.836 85.5365 233.32 85.3438C233.805 85.1458 234.339 85.0469 234.922 85.0469C235.328 85.0469 235.708 85.0755 236.062 85.1328C236.417 85.1901 236.755 85.2839 237.078 85.4141V86.7109C236.74 86.5339 236.393 86.4062 236.039 86.3281C235.69 86.2448 235.328 86.2031 234.953 86.2031C234.604 86.2031 234.273 86.2708 233.961 86.4062C233.654 86.5365 233.383 86.7266 233.148 86.9766C232.914 87.2266 232.729 87.5312 232.594 87.8906C232.458 88.25 232.391 88.6562 232.391 89.1094C232.391 90.0573 232.62 90.7682 233.078 91.2422C233.542 91.7109 234.182 91.9453 235 91.9453C235.37 91.9453 235.727 91.9036 236.07 91.8203C236.419 91.737 236.755 91.612 237.078 91.4453V92.7109ZM246.594 86.3281H243.617V93H242.242V86.3281H239.266V85.1562H246.594V86.3281ZM264.25 83.9766H261.227V93H259.82V83.9766H256.797V82.7891H264.25V83.9766ZM272.797 88.6641C272.797 88.8568 272.794 89.0182 272.789 89.1484C272.784 89.2786 272.776 89.401 272.766 89.5156H267.258C267.258 90.3177 267.482 90.9349 267.93 91.3672C268.378 91.7943 269.023 92.0078 269.867 92.0078C270.096 92.0078 270.326 92 270.555 91.9844C270.784 91.9635 271.005 91.9375 271.219 91.9062C271.432 91.875 271.635 91.8411 271.828 91.8047C272.026 91.763 272.208 91.7188 272.375 91.6719V92.7891C272.005 92.8932 271.586 92.9766 271.117 93.0391C270.654 93.1068 270.172 93.1406 269.672 93.1406C269 93.1406 268.422 93.0495 267.938 92.8672C267.453 92.6849 267.055 92.4219 266.742 92.0781C266.435 91.7292 266.206 91.3047 266.055 90.8047C265.909 90.2995 265.836 89.7292 265.836 89.0938C265.836 88.5417 265.914 88.0208 266.07 87.5312C266.232 87.0365 266.464 86.6042 266.766 86.2344C267.073 85.8594 267.448 85.5625 267.891 85.3438C268.333 85.125 268.836 85.0156 269.398 85.0156C269.945 85.0156 270.43 85.1016 270.852 85.2734C271.273 85.4453 271.628 85.6901 271.914 86.0078C272.206 86.3203 272.424 86.7031 272.57 87.1562C272.721 87.6042 272.797 88.1068 272.797 88.6641ZM271.383 88.4688C271.398 88.1198 271.365 87.8021 271.281 87.5156C271.198 87.224 271.068 86.974 270.891 86.7656C270.719 86.5573 270.503 86.3958 270.242 86.2812C269.982 86.1615 269.68 86.1016 269.336 86.1016C269.039 86.1016 268.768 86.1589 268.523 86.2734C268.279 86.388 268.068 86.5495 267.891 86.7578C267.714 86.9661 267.57 87.2161 267.461 87.5078C267.352 87.7995 267.284 88.1198 267.258 88.4688H271.383ZM282.023 93H280.156L276.5 88.7969V93H275.141V85.1562H276.5V88.7422L280.023 85.1562H281.82L278.141 88.7734L282.023 93ZM289.859 92.7109C289.505 92.8464 289.141 92.9453 288.766 93.0078C288.396 93.0755 288.013 93.1094 287.617 93.1094C286.378 93.1094 285.422 92.7734 284.75 92.1016C284.083 91.4297 283.75 90.4479 283.75 89.1562C283.75 88.5365 283.846 87.974 284.039 87.4688C284.232 86.9635 284.503 86.5312 284.852 86.1719C285.201 85.8125 285.617 85.5365 286.102 85.3438C286.586 85.1458 287.12 85.0469 287.703 85.0469C288.109 85.0469 288.49 85.0755 288.844 85.1328C289.198 85.1901 289.536 85.2839 289.859 85.4141V86.7109C289.521 86.5339 289.174 86.4062 288.82 86.3281C288.471 86.2448 288.109 86.2031 287.734 86.2031C287.385 86.2031 287.055 86.2708 286.742 86.4062C286.435 86.5365 286.164 86.7266 285.93 86.9766C285.695 87.2266 285.51 87.5312 285.375 87.8906C285.24 88.25 285.172 88.6562 285.172 89.1094C285.172 90.0573 285.401 90.7682 285.859 91.2422C286.323 91.7109 286.964 91.9453 287.781 91.9453C288.151 91.9453 288.508 91.9036 288.852 91.8203C289.201 91.737 289.536 91.612 289.859 91.4453V92.7109ZM299.375 86.3281H296.398V93H295.023V86.3281H292.047V85.1562H299.375V86.3281ZM316.969 86.3281H313.992V93H312.617V86.3281H309.641V85.1562H316.969V86.3281ZM325.578 88.6641C325.578 88.8568 325.576 89.0182 325.57 89.1484C325.565 89.2786 325.557 89.401 325.547 89.5156H320.039C320.039 90.3177 320.263 90.9349 320.711 91.3672C321.159 91.7943 321.805 92.0078 322.648 92.0078C322.878 92.0078 323.107 92 323.336 91.9844C323.565 91.9635 323.786 91.9375 324 91.9062C324.214 91.875 324.417 91.8411 324.609 91.8047C324.807 91.763 324.99 91.7188 325.156 91.6719V92.7891C324.786 92.8932 324.367 92.9766 323.898 93.0391C323.435 93.1068 322.953 93.1406 322.453 93.1406C321.781 93.1406 321.203 93.0495 320.719 92.8672C320.234 92.6849 319.836 92.4219 319.523 92.0781C319.216 91.7292 318.987 91.3047 318.836 90.8047C318.69 90.2995 318.617 89.7292 318.617 89.0938C318.617 88.5417 318.695 88.0208 318.852 87.5312C319.013 87.0365 319.245 86.6042 319.547 86.2344C319.854 85.8594 320.229 85.5625 320.672 85.3438C321.115 85.125 321.617 85.0156 322.18 85.0156C322.727 85.0156 323.211 85.1016 323.633 85.2734C324.055 85.4453 324.409 85.6901 324.695 86.0078C324.987 86.3203 325.206 86.7031 325.352 87.1562C325.503 87.6042 325.578 88.1068 325.578 88.6641ZM324.164 88.4688C324.18 88.1198 324.146 87.8021 324.062 87.5156C323.979 87.224 323.849 86.974 323.672 86.7656C323.5 86.5573 323.284 86.3958 323.023 86.2812C322.763 86.1615 322.461 86.1016 322.117 86.1016C321.82 86.1016 321.549 86.1589 321.305 86.2734C321.06 86.388 320.849 86.5495 320.672 86.7578C320.495 86.9661 320.352 87.2161 320.242 87.5078C320.133 87.7995 320.065 88.1198 320.039 88.4688H324.164ZM334.805 93H332.938L329.281 88.7969V93H327.922V85.1562H329.281V88.7422L332.805 85.1562H334.602L330.922 88.7734L334.805 93ZM342.641 92.7109C342.286 92.8464 341.922 92.9453 341.547 93.0078C341.177 93.0755 340.794 93.1094 340.398 93.1094C339.159 93.1094 338.203 92.7734 337.531 92.1016C336.865 91.4297 336.531 90.4479 336.531 89.1562C336.531 88.5365 336.628 87.974 336.82 87.4688C337.013 86.9635 337.284 86.5312 337.633 86.1719C337.982 85.8125 338.398 85.5365 338.883 85.3438C339.367 85.1458 339.901 85.0469 340.484 85.0469C340.891 85.0469 341.271 85.0755 341.625 85.1328C341.979 85.1901 342.318 85.2839 342.641 85.4141V86.7109C342.302 86.5339 341.956 86.4062 341.602 86.3281C341.253 86.2448 340.891 86.2031 340.516 86.2031C340.167 86.2031 339.836 86.2708 339.523 86.4062C339.216 86.5365 338.945 86.7266 338.711 86.9766C338.477 87.2266 338.292 87.5312 338.156 87.8906C338.021 88.25 337.953 88.6562 337.953 89.1094C337.953 90.0573 338.182 90.7682 338.641 91.2422C339.104 91.7109 339.745 91.9453 340.562 91.9453C340.932 91.9453 341.289 91.9036 341.633 91.8203C341.982 91.737 342.318 91.612 342.641 91.4453V92.7109ZM352.156 86.3281H349.18V93H347.805V86.3281H344.828V85.1562H352.156V86.3281ZM369.75 86.3281H366.773V93H365.398V86.3281H362.422V85.1562H369.75V86.3281ZM378.359 88.6641C378.359 88.8568 378.357 89.0182 378.352 89.1484C378.346 89.2786 378.339 89.401 378.328 89.5156H372.82C372.82 90.3177 373.044 90.9349 373.492 91.3672C373.94 91.7943 374.586 92.0078 375.43 92.0078C375.659 92.0078 375.888 92 376.117 91.9844C376.346 91.9635 376.568 91.9375 376.781 91.9062C376.995 91.875 377.198 91.8411 377.391 91.8047C377.589 91.763 377.771 91.7188 377.938 91.6719V92.7891C377.568 92.8932 377.148 92.9766 376.68 93.0391C376.216 93.1068 375.734 93.1406 375.234 93.1406C374.562 93.1406 373.984 93.0495 373.5 92.8672C373.016 92.6849 372.617 92.4219 372.305 92.0781C371.997 91.7292 371.768 91.3047 371.617 90.8047C371.471 90.2995 371.398 89.7292 371.398 89.0938C371.398 88.5417 371.477 88.0208 371.633 87.5312C371.794 87.0365 372.026 86.6042 372.328 86.2344C372.635 85.8594 373.01 85.5625 373.453 85.3438C373.896 85.125 374.398 85.0156 374.961 85.0156C375.508 85.0156 375.992 85.1016 376.414 85.2734C376.836 85.4453 377.19 85.6901 377.477 86.0078C377.768 86.3203 377.987 86.7031 378.133 87.1562C378.284 87.6042 378.359 88.1068 378.359 88.6641ZM376.945 88.4688C376.961 88.1198 376.927 87.8021 376.844 87.5156C376.76 87.224 376.63 86.974 376.453 86.7656C376.281 86.5573 376.065 86.3958 375.805 86.2812C375.544 86.1615 375.242 86.1016 374.898 86.1016C374.602 86.1016 374.331 86.1589 374.086 86.2734C373.841 86.388 373.63 86.5495 373.453 86.7578C373.276 86.9661 373.133 87.2161 373.023 87.5078C372.914 87.7995 372.846 88.1198 372.82 88.4688H376.945ZM387.586 93H385.719L382.062 88.7969V93H380.703V85.1562H382.062V88.7422L385.586 85.1562H387.383L383.703 88.7734L387.586 93ZM395.422 92.7109C395.068 92.8464 394.703 92.9453 394.328 93.0078C393.958 93.0755 393.576 93.1094 393.18 93.1094C391.94 93.1094 390.984 92.7734 390.312 92.1016C389.646 91.4297 389.312 90.4479 389.312 89.1562C389.312 88.5365 389.409 87.974 389.602 87.4688C389.794 86.9635 390.065 86.5312 390.414 86.1719C390.763 85.8125 391.18 85.5365 391.664 85.3438C392.148 85.1458 392.682 85.0469 393.266 85.0469C393.672 85.0469 394.052 85.0755 394.406 85.1328C394.76 85.1901 395.099 85.2839 395.422 85.4141V86.7109C395.083 86.5339 394.737 86.4062 394.383 86.3281C394.034 86.2448 393.672 86.2031 393.297 86.2031C392.948 86.2031 392.617 86.2708 392.305 86.4062C391.997 86.5365 391.727 86.7266 391.492 86.9766C391.258 87.2266 391.073 87.5312 390.938 87.8906C390.802 88.25 390.734 88.6562 390.734 89.1094C390.734 90.0573 390.964 90.7682 391.422 91.2422C391.885 91.7109 392.526 91.9453 393.344 91.9453C393.714 91.9453 394.07 91.9036 394.414 91.8203C394.763 91.737 395.099 91.612 395.422 91.4453V92.7109ZM404.938 86.3281H401.961V93H400.586V86.3281H397.609V85.1562H404.938V86.3281ZM422.531 86.3281H419.555V93H418.18V86.3281H415.203V85.1562H422.531V86.3281ZM431.141 88.6641C431.141 88.8568 431.138 89.0182 431.133 89.1484C431.128 89.2786 431.12 89.401 431.109 89.5156H425.602C425.602 90.3177 425.826 90.9349 426.273 91.3672C426.721 91.7943 427.367 92.0078 428.211 92.0078C428.44 92.0078 428.669 92 428.898 91.9844C429.128 91.9635 429.349 91.9375 429.562 91.9062C429.776 91.875 429.979 91.8411 430.172 91.8047C430.37 91.763 430.552 91.7188 430.719 91.6719V92.7891C430.349 92.8932 429.93 92.9766 429.461 93.0391C428.997 93.1068 428.516 93.1406 428.016 93.1406C427.344 93.1406 426.766 93.0495 426.281 92.8672C425.797 92.6849 425.398 92.4219 425.086 92.0781C424.779 91.7292 424.549 91.3047 424.398 90.8047C424.253 90.2995 424.18 89.7292 424.18 89.0938C424.18 88.5417 424.258 88.0208 424.414 87.5312C424.576 87.0365 424.807 86.6042 425.109 86.2344C425.417 85.8594 425.792 85.5625 426.234 85.3438C426.677 85.125 427.18 85.0156 427.742 85.0156C428.289 85.0156 428.773 85.1016 429.195 85.2734C429.617 85.4453 429.971 85.6901 430.258 86.0078C430.549 86.3203 430.768 86.7031 430.914 87.1562C431.065 87.6042 431.141 88.1068 431.141 88.6641ZM429.727 88.4688C429.742 88.1198 429.708 87.8021 429.625 87.5156C429.542 87.224 429.411 86.974 429.234 86.7656C429.062 86.5573 428.846 86.3958 428.586 86.2812C428.326 86.1615 428.023 86.1016 427.68 86.1016C427.383 86.1016 427.112 86.1589 426.867 86.2734C426.622 86.388 426.411 86.5495 426.234 86.7578C426.057 86.9661 425.914 87.2161 425.805 87.5078C425.695 87.7995 425.628 88.1198 425.602 88.4688H429.727ZM440.367 93H438.5L434.844 88.7969V93H433.484V85.1562H434.844V88.7422L438.367 85.1562H440.164L436.484 88.7734L440.367 93ZM448.203 92.7109C447.849 92.8464 447.484 92.9453 447.109 93.0078C446.74 93.0755 446.357 93.1094 445.961 93.1094C444.721 93.1094 443.766 92.7734 443.094 92.1016C442.427 91.4297 442.094 90.4479 442.094 89.1562C442.094 88.5365 442.19 87.974 442.383 87.4688C442.576 86.9635 442.846 86.5312 443.195 86.1719C443.544 85.8125 443.961 85.5365 444.445 85.3438C444.93 85.1458 445.464 85.0469 446.047 85.0469C446.453 85.0469 446.833 85.0755 447.188 85.1328C447.542 85.1901 447.88 85.2839 448.203 85.4141V86.7109C447.865 86.5339 447.518 86.4062 447.164 86.3281C446.815 86.2448 446.453 86.2031 446.078 86.2031C445.729 86.2031 445.398 86.2708 445.086 86.4062C444.779 86.5365 444.508 86.7266 444.273 86.9766C444.039 87.2266 443.854 87.5312 443.719 87.8906C443.583 88.25 443.516 88.6562 443.516 89.1094C443.516 90.0573 443.745 90.7682 444.203 91.2422C444.667 91.7109 445.307 91.9453 446.125 91.9453C446.495 91.9453 446.852 91.9036 447.195 91.8203C447.544 91.737 447.88 91.612 448.203 91.4453V92.7109ZM457.719 86.3281H454.742V93H453.367V86.3281H450.391V85.1562H457.719V86.3281ZM475.312 86.3281H472.336V93H470.961V86.3281H467.984V85.1562H475.312V86.3281ZM483.922 88.6641C483.922 88.8568 483.919 89.0182 483.914 89.1484C483.909 89.2786 483.901 89.401 483.891 89.5156H478.383C478.383 90.3177 478.607 90.9349 479.055 91.3672C479.503 91.7943 480.148 92.0078 480.992 92.0078C481.221 92.0078 481.451 92 481.68 91.9844C481.909 91.9635 482.13 91.9375 482.344 91.9062C482.557 91.875 482.76 91.8411 482.953 91.8047C483.151 91.763 483.333 91.7188 483.5 91.6719V92.7891C483.13 92.8932 482.711 92.9766 482.242 93.0391C481.779 93.1068 481.297 93.1406 480.797 93.1406C480.125 93.1406 479.547 93.0495 479.062 92.8672C478.578 92.6849 478.18 92.4219 477.867 92.0781C477.56 91.7292 477.331 91.3047 477.18 90.8047C477.034 90.2995 476.961 89.7292 476.961 89.0938C476.961 88.5417 477.039 88.0208 477.195 87.5312C477.357 87.0365 477.589 86.6042 477.891 86.2344C478.198 85.8594 478.573 85.5625 479.016 85.3438C479.458 85.125 479.961 85.0156 480.523 85.0156C481.07 85.0156 481.555 85.1016 481.977 85.2734C482.398 85.4453 482.753 85.6901 483.039 86.0078C483.331 86.3203 483.549 86.7031 483.695 87.1562C483.846 87.6042 483.922 88.1068 483.922 88.6641ZM482.508 88.4688C482.523 88.1198 482.49 87.8021 482.406 87.5156C482.323 87.224 482.193 86.974 482.016 86.7656C481.844 86.5573 481.628 86.3958 481.367 86.2812C481.107 86.1615 480.805 86.1016 480.461 86.1016C480.164 86.1016 479.893 86.1589 479.648 86.2734C479.404 86.388 479.193 86.5495 479.016 86.7578C478.839 86.9661 478.695 87.2161 478.586 87.5078C478.477 87.7995 478.409 88.1198 478.383 88.4688H482.508ZM493.148 93H491.281L487.625 88.7969V93H486.266V85.1562H487.625V88.7422L491.148 85.1562H492.945L489.266 88.7734L493.148 93ZM500.984 92.7109C500.63 92.8464 500.266 92.9453 499.891 93.0078C499.521 93.0755 499.138 93.1094 498.742 93.1094C497.503 93.1094 496.547 92.7734 495.875 92.1016C495.208 91.4297 494.875 90.4479 494.875 89.1562C494.875 88.5365 494.971 87.974 495.164 87.4688C495.357 86.9635 495.628 86.5312 495.977 86.1719C496.326 85.8125 496.742 85.5365 497.227 85.3438C497.711 85.1458 498.245 85.0469 498.828 85.0469C499.234 85.0469 499.615 85.0755 499.969 85.1328C500.323 85.1901 500.661 85.2839 500.984 85.4141V86.7109C500.646 86.5339 500.299 86.4062 499.945 86.3281C499.596 86.2448 499.234 86.2031 498.859 86.2031C498.51 86.2031 498.18 86.2708 497.867 86.4062C497.56 86.5365 497.289 86.7266 497.055 86.9766C496.82 87.2266 496.635 87.5312 496.5 87.8906C496.365 88.25 496.297 88.6562 496.297 89.1094C496.297 90.0573 496.526 90.7682 496.984 91.2422C497.448 91.7109 498.089 91.9453 498.906 91.9453C499.276 91.9453 499.633 91.9036 499.977 91.8203C500.326 91.737 500.661 91.612 500.984 91.4453V92.7109ZM510.5 86.3281H507.523V93H506.148V86.3281H503.172V85.1562H510.5V86.3281ZM528.094 86.3281H525.117V93H523.742V86.3281H520.766V85.1562H528.094V86.3281ZM536.703 88.6641C536.703 88.8568 536.701 89.0182 536.695 89.1484C536.69 89.2786 536.682 89.401 536.672 89.5156H531.164C531.164 90.3177 531.388 90.9349 531.836 91.3672C532.284 91.7943 532.93 92.0078 533.773 92.0078C534.003 92.0078 534.232 92 534.461 91.9844C534.69 91.9635 534.911 91.9375 535.125 91.9062C535.339 91.875 535.542 91.8411 535.734 91.8047C535.932 91.763 536.115 91.7188 536.281 91.6719V92.7891C535.911 92.8932 535.492 92.9766 535.023 93.0391C534.56 93.1068 534.078 93.1406 533.578 93.1406C532.906 93.1406 532.328 93.0495 531.844 92.8672C531.359 92.6849 530.961 92.4219 530.648 92.0781C530.341 91.7292 530.112 91.3047 529.961 90.8047C529.815 90.2995 529.742 89.7292 529.742 89.0938C529.742 88.5417 529.82 88.0208 529.977 87.5312C530.138 87.0365 530.37 86.6042 530.672 86.2344C530.979 85.8594 531.354 85.5625 531.797 85.3438C532.24 85.125 532.742 85.0156 533.305 85.0156C533.852 85.0156 534.336 85.1016 534.758 85.2734C535.18 85.4453 535.534 85.6901 535.82 86.0078C536.112 86.3203 536.331 86.7031 536.477 87.1562C536.628 87.6042 536.703 88.1068 536.703 88.6641ZM535.289 88.4688C535.305 88.1198 535.271 87.8021 535.188 87.5156C535.104 87.224 534.974 86.974 534.797 86.7656C534.625 86.5573 534.409 86.3958 534.148 86.2812C533.888 86.1615 533.586 86.1016 533.242 86.1016C532.945 86.1016 532.674 86.1589 532.43 86.2734C532.185 86.388 531.974 86.5495 531.797 86.7578C531.62 86.9661 531.477 87.2161 531.367 87.5078C531.258 87.7995 531.19 88.1198 531.164 88.4688H535.289ZM545.93 93H544.062L540.406 88.7969V93H539.047V85.1562H540.406V88.7422L543.93 85.1562H545.727L542.047 88.7734L545.93 93ZM553.766 92.7109C553.411 92.8464 553.047 92.9453 552.672 93.0078C552.302 93.0755 551.919 93.1094 551.523 93.1094C550.284 93.1094 549.328 92.7734 548.656 92.1016C547.99 91.4297 547.656 90.4479 547.656 89.1562C547.656 88.5365 547.753 87.974 547.945 87.4688C548.138 86.9635 548.409 86.5312 548.758 86.1719C549.107 85.8125 549.523 85.5365 550.008 85.3438C550.492 85.1458 551.026 85.0469 551.609 85.0469C552.016 85.0469 552.396 85.0755 552.75 85.1328C553.104 85.1901 553.443 85.2839 553.766 85.4141V86.7109C553.427 86.5339 553.081 86.4062 552.727 86.3281C552.378 86.2448 552.016 86.2031 551.641 86.2031C551.292 86.2031 550.961 86.2708 550.648 86.4062C550.341 86.5365 550.07 86.7266 549.836 86.9766C549.602 87.2266 549.417 87.5312 549.281 87.8906C549.146 88.25 549.078 88.6562 549.078 89.1094C549.078 90.0573 549.307 90.7682 549.766 91.2422C550.229 91.7109 550.87 91.9453 551.688 91.9453C552.057 91.9453 552.414 91.9036 552.758 91.8203C553.107 91.737 553.443 91.612 553.766 91.4453V92.7109ZM563.281 86.3281H560.305V93H558.93V86.3281H555.953V85.1562H563.281V86.3281ZM53.0625 105.328H50.0859V112H48.7109V105.328H45.7344V104.156H53.0625V105.328ZM61.6719 107.664C61.6719 107.857 61.6693 108.018 61.6641 108.148C61.6589 108.279 61.651 108.401 61.6406 108.516H56.1328C56.1328 109.318 56.3568 109.935 56.8047 110.367C57.2526 110.794 57.8984 111.008 58.7422 111.008C58.9714 111.008 59.2005 111 59.4297 110.984C59.6589 110.964 59.8802 110.938 60.0938 110.906C60.3073 110.875 60.5104 110.841 60.7031 110.805C60.901 110.763 61.0833 110.719 61.25 110.672V111.789C60.8802 111.893 60.4609 111.977 59.9922 112.039C59.5286 112.107 59.0469 112.141 58.5469 112.141C57.875 112.141 57.2969 112.049 56.8125 111.867C56.3281 111.685 55.9297 111.422 55.6172 111.078C55.3099 110.729 55.0807 110.305 54.9297 109.805C54.7839 109.299 54.7109 108.729 54.7109 108.094C54.7109 107.542 54.7891 107.021 54.9453 106.531C55.1068 106.036 55.3385 105.604 55.6406 105.234C55.9479 104.859 56.3229 104.562 56.7656 104.344C57.2083 104.125 57.7109 104.016 58.2734 104.016C58.8203 104.016 59.3047 104.102 59.7266 104.273C60.1484 104.445 60.5026 104.69 60.7891 105.008C61.0807 105.32 61.2995 105.703 61.4453 106.156C61.5964 106.604 61.6719 107.107 61.6719 107.664ZM60.2578 107.469C60.2734 107.12 60.2396 106.802 60.1562 106.516C60.0729 106.224 59.9427 105.974 59.7656 105.766C59.5938 105.557 59.3776 105.396 59.1172 105.281C58.8568 105.161 58.5547 105.102 58.2109 105.102C57.9141 105.102 57.6432 105.159 57.3984 105.273C57.1536 105.388 56.9427 105.549 56.7656 105.758C56.5885 105.966 56.4453 106.216 56.3359 106.508C56.2266 106.799 56.1589 107.12 56.1328 107.469H60.2578ZM70.8984 112H69.0312L65.375 107.797V112H64.0156V104.156H65.375V107.742L68.8984 104.156H70.6953L67.0156 107.773L70.8984 112ZM78.7344 111.711C78.3802 111.846 78.0156 111.945 77.6406 112.008C77.2708 112.076 76.888 112.109 76.4922 112.109C75.2526 112.109 74.2969 111.773 73.625 111.102C72.9583 110.43 72.625 109.448 72.625 108.156C72.625 107.536 72.7214 106.974 72.9141 106.469C73.1068 105.964 73.3776 105.531 73.7266 105.172C74.0755 104.812 74.4922 104.536 74.9766 104.344C75.4609 104.146 75.9948 104.047 76.5781 104.047C76.9844 104.047 77.3646 104.076 77.7188 104.133C78.0729 104.19 78.4115 104.284 78.7344 104.414V105.711C78.3958 105.534 78.0495 105.406 77.6953 105.328C77.3464 105.245 76.9844 105.203 76.6094 105.203C76.2604 105.203 75.9297 105.271 75.6172 105.406C75.3099 105.536 75.0391 105.727 74.8047 105.977C74.5703 106.227 74.3854 106.531 74.25 106.891C74.1146 107.25 74.0469 107.656 74.0469 108.109C74.0469 109.057 74.276 109.768 74.7344 110.242C75.1979 110.711 75.8385 110.945 76.6562 110.945C77.026 110.945 77.3828 110.904 77.7266 110.82C78.0755 110.737 78.4115 110.612 78.7344 110.445V111.711ZM88.25 105.328H85.2734V112H83.8984V105.328H80.9219V104.156H88.25V105.328ZM105.906 102.977H102.883V112H101.477V102.977H98.4531V101.789H105.906V102.977ZM114.453 107.664C114.453 107.857 114.451 108.018 114.445 108.148C114.44 108.279 114.432 108.401 114.422 108.516H108.914C108.914 109.318 109.138 109.935 109.586 110.367C110.034 110.794 110.68 111.008 111.523 111.008C111.753 111.008 111.982 111 112.211 110.984C112.44 110.964 112.661 110.938 112.875 110.906C113.089 110.875 113.292 110.841 113.484 110.805C113.682 110.763 113.865 110.719 114.031 110.672V111.789C113.661 111.893 113.242 111.977 112.773 112.039C112.31 112.107 111.828 112.141 111.328 112.141C110.656 112.141 110.078 112.049 109.594 111.867C109.109 111.685 108.711 111.422 108.398 111.078C108.091 110.729 107.862 110.305 107.711 109.805C107.565 109.299 107.492 108.729 107.492 108.094C107.492 107.542 107.57 107.021 107.727 106.531C107.888 106.036 108.12 105.604 108.422 105.234C108.729 104.859 109.104 104.562 109.547 104.344C109.99 104.125 110.492 104.016 111.055 104.016C111.602 104.016 112.086 104.102 112.508 104.273C112.93 104.445 113.284 104.69 113.57 105.008C113.862 105.32 114.081 105.703 114.227 106.156C114.378 106.604 114.453 107.107 114.453 107.664ZM113.039 107.469C113.055 107.12 113.021 106.802 112.938 106.516C112.854 106.224 112.724 105.974 112.547 105.766C112.375 105.557 112.159 105.396 111.898 105.281C111.638 105.161 111.336 105.102 110.992 105.102C110.695 105.102 110.424 105.159 110.18 105.273C109.935 105.388 109.724 105.549 109.547 105.758C109.37 105.966 109.227 106.216 109.117 106.508C109.008 106.799 108.94 107.12 108.914 107.469H113.039ZM123.68 112H121.812L118.156 107.797V112H116.797V104.156H118.156V107.742L121.68 104.156H123.477L119.797 107.773L123.68 112ZM131.516 111.711C131.161 111.846 130.797 111.945 130.422 112.008C130.052 112.076 129.669 112.109 129.273 112.109C128.034 112.109 127.078 111.773 126.406 111.102C125.74 110.43 125.406 109.448 125.406 108.156C125.406 107.536 125.503 106.974 125.695 106.469C125.888 105.964 126.159 105.531 126.508 105.172C126.857 104.812 127.273 104.536 127.758 104.344C128.242 104.146 128.776 104.047 129.359 104.047C129.766 104.047 130.146 104.076 130.5 104.133C130.854 104.19 131.193 104.284 131.516 104.414V105.711C131.177 105.534 130.831 105.406 130.477 105.328C130.128 105.245 129.766 105.203 129.391 105.203C129.042 105.203 128.711 105.271 128.398 105.406C128.091 105.536 127.82 105.727 127.586 105.977C127.352 106.227 127.167 106.531 127.031 106.891C126.896 107.25 126.828 107.656 126.828 108.109C126.828 109.057 127.057 109.768 127.516 110.242C127.979 110.711 128.62 110.945 129.438 110.945C129.807 110.945 130.164 110.904 130.508 110.82C130.857 110.737 131.193 110.612 131.516 110.445V111.711ZM141.031 105.328H138.055V112H136.68V105.328H133.703V104.156H141.031V105.328ZM158.625 105.328H155.648V112H154.273V105.328H151.297V104.156H158.625V105.328ZM167.234 107.664C167.234 107.857 167.232 108.018 167.227 108.148C167.221 108.279 167.214 108.401 167.203 108.516H161.695C161.695 109.318 161.919 109.935 162.367 110.367C162.815 110.794 163.461 111.008 164.305 111.008C164.534 111.008 164.763 111 164.992 110.984C165.221 110.964 165.443 110.938 165.656 110.906C165.87 110.875 166.073 110.841 166.266 110.805C166.464 110.763 166.646 110.719 166.812 110.672V111.789C166.443 111.893 166.023 111.977 165.555 112.039C165.091 112.107 164.609 112.141 164.109 112.141C163.438 112.141 162.859 112.049 162.375 111.867C161.891 111.685 161.492 111.422 161.18 111.078C160.872 110.729 160.643 110.305 160.492 109.805C160.346 109.299 160.273 108.729 160.273 108.094C160.273 107.542 160.352 107.021 160.508 106.531C160.669 106.036 160.901 105.604 161.203 105.234C161.51 104.859 161.885 104.562 162.328 104.344C162.771 104.125 163.273 104.016 163.836 104.016C164.383 104.016 164.867 104.102 165.289 104.273C165.711 104.445 166.065 104.69 166.352 105.008C166.643 105.32 166.862 105.703 167.008 106.156C167.159 106.604 167.234 107.107 167.234 107.664ZM165.82 107.469C165.836 107.12 165.802 106.802 165.719 106.516C165.635 106.224 165.505 105.974 165.328 105.766C165.156 105.557 164.94 105.396 164.68 105.281C164.419 105.161 164.117 105.102 163.773 105.102C163.477 105.102 163.206 105.159 162.961 105.273C162.716 105.388 162.505 105.549 162.328 105.758C162.151 105.966 162.008 106.216 161.898 106.508C161.789 106.799 161.721 107.12 161.695 107.469H165.82ZM176.461 112H174.594L170.938 107.797V112H169.578V104.156H170.938V107.742L174.461 104.156H176.258L172.578 107.773L176.461 112ZM184.297 111.711C183.943 111.846 183.578 111.945 183.203 112.008C182.833 112.076 182.451 112.109 182.055 112.109C180.815 112.109 179.859 111.773 179.188 111.102C178.521 110.43 178.188 109.448 178.188 108.156C178.188 107.536 178.284 106.974 178.477 106.469C178.669 105.964 178.94 105.531 179.289 105.172C179.638 104.812 180.055 104.536 180.539 104.344C181.023 104.146 181.557 104.047 182.141 104.047C182.547 104.047 182.927 104.076 183.281 104.133C183.635 104.19 183.974 104.284 184.297 104.414V105.711C183.958 105.534 183.612 105.406 183.258 105.328C182.909 105.245 182.547 105.203 182.172 105.203C181.823 105.203 181.492 105.271 181.18 105.406C180.872 105.536 180.602 105.727 180.367 105.977C180.133 106.227 179.948 106.531 179.812 106.891C179.677 107.25 179.609 107.656 179.609 108.109C179.609 109.057 179.839 109.768 180.297 110.242C180.76 110.711 181.401 110.945 182.219 110.945C182.589 110.945 182.945 110.904 183.289 110.82C183.638 110.737 183.974 110.612 184.297 110.445V111.711ZM193.812 105.328H190.836V112H189.461V105.328H186.484V104.156H193.812V105.328ZM211.406 105.328H208.43V112H207.055V105.328H204.078V104.156H211.406V105.328ZM220.016 107.664C220.016 107.857 220.013 108.018 220.008 108.148C220.003 108.279 219.995 108.401 219.984 108.516H214.477C214.477 109.318 214.701 109.935 215.148 110.367C215.596 110.794 216.242 111.008 217.086 111.008C217.315 111.008 217.544 111 217.773 110.984C218.003 110.964 218.224 110.938 218.438 110.906C218.651 110.875 218.854 110.841 219.047 110.805C219.245 110.763 219.427 110.719 219.594 110.672V111.789C219.224 111.893 218.805 111.977 218.336 112.039C217.872 112.107 217.391 112.141 216.891 112.141C216.219 112.141 215.641 112.049 215.156 111.867C214.672 111.685 214.273 111.422 213.961 111.078C213.654 110.729 213.424 110.305 213.273 109.805C213.128 109.299 213.055 108.729 213.055 108.094C213.055 107.542 213.133 107.021 213.289 106.531C213.451 106.036 213.682 105.604 213.984 105.234C214.292 104.859 214.667 104.562 215.109 104.344C215.552 104.125 216.055 104.016 216.617 104.016C217.164 104.016 217.648 104.102 218.07 104.273C218.492 104.445 218.846 104.69 219.133 105.008C219.424 105.32 219.643 105.703 219.789 106.156C219.94 106.604 220.016 107.107 220.016 107.664ZM218.602 107.469C218.617 107.12 218.583 106.802 218.5 106.516C218.417 106.224 218.286 105.974 218.109 105.766C217.938 105.557 217.721 105.396 217.461 105.281C217.201 105.161 216.898 105.102 216.555 105.102C216.258 105.102 215.987 105.159 215.742 105.273C215.497 105.388 215.286 105.549 215.109 105.758C214.932 105.966 214.789 106.216 214.68 106.508C214.57 106.799 214.503 107.12 214.477 107.469H218.602ZM229.242 112H227.375L223.719 107.797V112H222.359V104.156H223.719V107.742L227.242 104.156H229.039L225.359 107.773L229.242 112ZM237.078 111.711C236.724 111.846 236.359 111.945 235.984 112.008C235.615 112.076 235.232 112.109 234.836 112.109C233.596 112.109 232.641 111.773 231.969 111.102C231.302 110.43 230.969 109.448 230.969 108.156C230.969 107.536 231.065 106.974 231.258 106.469C231.451 105.964 231.721 105.531 232.07 105.172C232.419 104.812 232.836 104.536 233.32 104.344C233.805 104.146 234.339 104.047 234.922 104.047C235.328 104.047 235.708 104.076 236.062 104.133C236.417 104.19 236.755 104.284 237.078 104.414V105.711C236.74 105.534 236.393 105.406 236.039 105.328C235.69 105.245 235.328 105.203 234.953 105.203C234.604 105.203 234.273 105.271 233.961 105.406C233.654 105.536 233.383 105.727 233.148 105.977C232.914 106.227 232.729 106.531 232.594 106.891C232.458 107.25 232.391 107.656 232.391 108.109C232.391 109.057 232.62 109.768 233.078 110.242C233.542 110.711 234.182 110.945 235 110.945C235.37 110.945 235.727 110.904 236.07 110.82C236.419 110.737 236.755 110.612 237.078 110.445V111.711ZM246.594 105.328H243.617V112H242.242V105.328H239.266V104.156H246.594V105.328ZM264.188 105.328H261.211V112H259.836V105.328H256.859V104.156H264.188V105.328ZM272.797 107.664C272.797 107.857 272.794 108.018 272.789 108.148C272.784 108.279 272.776 108.401 272.766 108.516H267.258C267.258 109.318 267.482 109.935 267.93 110.367C268.378 110.794 269.023 111.008 269.867 111.008C270.096 111.008 270.326 111 270.555 110.984C270.784 110.964 271.005 110.938 271.219 110.906C271.432 110.875 271.635 110.841 271.828 110.805C272.026 110.763 272.208 110.719 272.375 110.672V111.789C272.005 111.893 271.586 111.977 271.117 112.039C270.654 112.107 270.172 112.141 269.672 112.141C269 112.141 268.422 112.049 267.938 111.867C267.453 111.685 267.055 111.422 266.742 111.078C266.435 110.729 266.206 110.305 266.055 109.805C265.909 109.299 265.836 108.729 265.836 108.094C265.836 107.542 265.914 107.021 266.07 106.531C266.232 106.036 266.464 105.604 266.766 105.234C267.073 104.859 267.448 104.562 267.891 104.344C268.333 104.125 268.836 104.016 269.398 104.016C269.945 104.016 270.43 104.102 270.852 104.273C271.273 104.445 271.628 104.69 271.914 105.008C272.206 105.32 272.424 105.703 272.57 106.156C272.721 106.604 272.797 107.107 272.797 107.664ZM271.383 107.469C271.398 107.12 271.365 106.802 271.281 106.516C271.198 106.224 271.068 105.974 270.891 105.766C270.719 105.557 270.503 105.396 270.242 105.281C269.982 105.161 269.68 105.102 269.336 105.102C269.039 105.102 268.768 105.159 268.523 105.273C268.279 105.388 268.068 105.549 267.891 105.758C267.714 105.966 267.57 106.216 267.461 106.508C267.352 106.799 267.284 107.12 267.258 107.469H271.383ZM282.023 112H280.156L276.5 107.797V112H275.141V104.156H276.5V107.742L280.023 104.156H281.82L278.141 107.773L282.023 112ZM289.859 111.711C289.505 111.846 289.141 111.945 288.766 112.008C288.396 112.076 288.013 112.109 287.617 112.109C286.378 112.109 285.422 111.773 284.75 111.102C284.083 110.43 283.75 109.448 283.75 108.156C283.75 107.536 283.846 106.974 284.039 106.469C284.232 105.964 284.503 105.531 284.852 105.172C285.201 104.812 285.617 104.536 286.102 104.344C286.586 104.146 287.12 104.047 287.703 104.047C288.109 104.047 288.49 104.076 288.844 104.133C289.198 104.19 289.536 104.284 289.859 104.414V105.711C289.521 105.534 289.174 105.406 288.82 105.328C288.471 105.245 288.109 105.203 287.734 105.203C287.385 105.203 287.055 105.271 286.742 105.406C286.435 105.536 286.164 105.727 285.93 105.977C285.695 106.227 285.51 106.531 285.375 106.891C285.24 107.25 285.172 107.656 285.172 108.109C285.172 109.057 285.401 109.768 285.859 110.242C286.323 110.711 286.964 110.945 287.781 110.945C288.151 110.945 288.508 110.904 288.852 110.82C289.201 110.737 289.536 110.612 289.859 110.445V111.711ZM299.375 105.328H296.398V112H295.023V105.328H292.047V104.156H299.375V105.328ZM316.969 105.328H313.992V112H312.617V105.328H309.641V104.156H316.969V105.328ZM325.578 107.664C325.578 107.857 325.576 108.018 325.57 108.148C325.565 108.279 325.557 108.401 325.547 108.516H320.039C320.039 109.318 320.263 109.935 320.711 110.367C321.159 110.794 321.805 111.008 322.648 111.008C322.878 111.008 323.107 111 323.336 110.984C323.565 110.964 323.786 110.938 324 110.906C324.214 110.875 324.417 110.841 324.609 110.805C324.807 110.763 324.99 110.719 325.156 110.672V111.789C324.786 111.893 324.367 111.977 323.898 112.039C323.435 112.107 322.953 112.141 322.453 112.141C321.781 112.141 321.203 112.049 320.719 111.867C320.234 111.685 319.836 111.422 319.523 111.078C319.216 110.729 318.987 110.305 318.836 109.805C318.69 109.299 318.617 108.729 318.617 108.094C318.617 107.542 318.695 107.021 318.852 106.531C319.013 106.036 319.245 105.604 319.547 105.234C319.854 104.859 320.229 104.562 320.672 104.344C321.115 104.125 321.617 104.016 322.18 104.016C322.727 104.016 323.211 104.102 323.633 104.273C324.055 104.445 324.409 104.69 324.695 105.008C324.987 105.32 325.206 105.703 325.352 106.156C325.503 106.604 325.578 107.107 325.578 107.664ZM324.164 107.469C324.18 107.12 324.146 106.802 324.062 106.516C323.979 106.224 323.849 105.974 323.672 105.766C323.5 105.557 323.284 105.396 323.023 105.281C322.763 105.161 322.461 105.102 322.117 105.102C321.82 105.102 321.549 105.159 321.305 105.273C321.06 105.388 320.849 105.549 320.672 105.758C320.495 105.966 320.352 106.216 320.242 106.508C320.133 106.799 320.065 107.12 320.039 107.469H324.164ZM334.805 112H332.938L329.281 107.797V112H327.922V104.156H329.281V107.742L332.805 104.156H334.602L330.922 107.773L334.805 112ZM342.641 111.711C342.286 111.846 341.922 111.945 341.547 112.008C341.177 112.076 340.794 112.109 340.398 112.109C339.159 112.109 338.203 111.773 337.531 111.102C336.865 110.43 336.531 109.448 336.531 108.156C336.531 107.536 336.628 106.974 336.82 106.469C337.013 105.964 337.284 105.531 337.633 105.172C337.982 104.812 338.398 104.536 338.883 104.344C339.367 104.146 339.901 104.047 340.484 104.047C340.891 104.047 341.271 104.076 341.625 104.133C341.979 104.19 342.318 104.284 342.641 104.414V105.711C342.302 105.534 341.956 105.406 341.602 105.328C341.253 105.245 340.891 105.203 340.516 105.203C340.167 105.203 339.836 105.271 339.523 105.406C339.216 105.536 338.945 105.727 338.711 105.977C338.477 106.227 338.292 106.531 338.156 106.891C338.021 107.25 337.953 107.656 337.953 108.109C337.953 109.057 338.182 109.768 338.641 110.242C339.104 110.711 339.745 110.945 340.562 110.945C340.932 110.945 341.289 110.904 341.633 110.82C341.982 110.737 342.318 110.612 342.641 110.445V111.711ZM352.156 105.328H349.18V112H347.805V105.328H344.828V104.156H352.156V105.328ZM369.75 105.328H366.773V112H365.398V105.328H362.422V104.156H369.75V105.328ZM378.359 107.664C378.359 107.857 378.357 108.018 378.352 108.148C378.346 108.279 378.339 108.401 378.328 108.516H372.82C372.82 109.318 373.044 109.935 373.492 110.367C373.94 110.794 374.586 111.008 375.43 111.008C375.659 111.008 375.888 111 376.117 110.984C376.346 110.964 376.568 110.938 376.781 110.906C376.995 110.875 377.198 110.841 377.391 110.805C377.589 110.763 377.771 110.719 377.938 110.672V111.789C377.568 111.893 377.148 111.977 376.68 112.039C376.216 112.107 375.734 112.141 375.234 112.141C374.562 112.141 373.984 112.049 373.5 111.867C373.016 111.685 372.617 111.422 372.305 111.078C371.997 110.729 371.768 110.305 371.617 109.805C371.471 109.299 371.398 108.729 371.398 108.094C371.398 107.542 371.477 107.021 371.633 106.531C371.794 106.036 372.026 105.604 372.328 105.234C372.635 104.859 373.01 104.562 373.453 104.344C373.896 104.125 374.398 104.016 374.961 104.016C375.508 104.016 375.992 104.102 376.414 104.273C376.836 104.445 377.19 104.69 377.477 105.008C377.768 105.32 377.987 105.703 378.133 106.156C378.284 106.604 378.359 107.107 378.359 107.664ZM376.945 107.469C376.961 107.12 376.927 106.802 376.844 106.516C376.76 106.224 376.63 105.974 376.453 105.766C376.281 105.557 376.065 105.396 375.805 105.281C375.544 105.161 375.242 105.102 374.898 105.102C374.602 105.102 374.331 105.159 374.086 105.273C373.841 105.388 373.63 105.549 373.453 105.758C373.276 105.966 373.133 106.216 373.023 106.508C372.914 106.799 372.846 107.12 372.82 107.469H376.945ZM387.586 112H385.719L382.062 107.797V112H380.703V104.156H382.062V107.742L385.586 104.156H387.383L383.703 107.773L387.586 112ZM395.422 111.711C395.068 111.846 394.703 111.945 394.328 112.008C393.958 112.076 393.576 112.109 393.18 112.109C391.94 112.109 390.984 111.773 390.312 111.102C389.646 110.43 389.312 109.448 389.312 108.156C389.312 107.536 389.409 106.974 389.602 106.469C389.794 105.964 390.065 105.531 390.414 105.172C390.763 104.812 391.18 104.536 391.664 104.344C392.148 104.146 392.682 104.047 393.266 104.047C393.672 104.047 394.052 104.076 394.406 104.133C394.76 104.19 395.099 104.284 395.422 104.414V105.711C395.083 105.534 394.737 105.406 394.383 105.328C394.034 105.245 393.672 105.203 393.297 105.203C392.948 105.203 392.617 105.271 392.305 105.406C391.997 105.536 391.727 105.727 391.492 105.977C391.258 106.227 391.073 106.531 390.938 106.891C390.802 107.25 390.734 107.656 390.734 108.109C390.734 109.057 390.964 109.768 391.422 110.242C391.885 110.711 392.526 110.945 393.344 110.945C393.714 110.945 394.07 110.904 394.414 110.82C394.763 110.737 395.099 110.612 395.422 110.445V111.711ZM404.938 105.328H401.961V112H400.586V105.328H397.609V104.156H404.938V105.328ZM422.531 105.328H419.555V112H418.18V105.328H415.203V104.156H422.531V105.328ZM431.141 107.664C431.141 107.857 431.138 108.018 431.133 108.148C431.128 108.279 431.12 108.401 431.109 108.516H425.602C425.602 109.318 425.826 109.935 426.273 110.367C426.721 110.794 427.367 111.008 428.211 111.008C428.44 111.008 428.669 111 428.898 110.984C429.128 110.964 429.349 110.938 429.562 110.906C429.776 110.875 429.979 110.841 430.172 110.805C430.37 110.763 430.552 110.719 430.719 110.672V111.789C430.349 111.893 429.93 111.977 429.461 112.039C428.997 112.107 428.516 112.141 428.016 112.141C427.344 112.141 426.766 112.049 426.281 111.867C425.797 111.685 425.398 111.422 425.086 111.078C424.779 110.729 424.549 110.305 424.398 109.805C424.253 109.299 424.18 108.729 424.18 108.094C424.18 107.542 424.258 107.021 424.414 106.531C424.576 106.036 424.807 105.604 425.109 105.234C425.417 104.859 425.792 104.562 426.234 104.344C426.677 104.125 427.18 104.016 427.742 104.016C428.289 104.016 428.773 104.102 429.195 104.273C429.617 104.445 429.971 104.69 430.258 105.008C430.549 105.32 430.768 105.703 430.914 106.156C431.065 106.604 431.141 107.107 431.141 107.664ZM429.727 107.469C429.742 107.12 429.708 106.802 429.625 106.516C429.542 106.224 429.411 105.974 429.234 105.766C429.062 105.557 428.846 105.396 428.586 105.281C428.326 105.161 428.023 105.102 427.68 105.102C427.383 105.102 427.112 105.159 426.867 105.273C426.622 105.388 426.411 105.549 426.234 105.758C426.057 105.966 425.914 106.216 425.805 106.508C425.695 106.799 425.628 107.12 425.602 107.469H429.727ZM440.367 112H438.5L434.844 107.797V112H433.484V104.156H434.844V107.742L438.367 104.156H440.164L436.484 107.773L440.367 112ZM448.203 111.711C447.849 111.846 447.484 111.945 447.109 112.008C446.74 112.076 446.357 112.109 445.961 112.109C444.721 112.109 443.766 111.773 443.094 111.102C442.427 110.43 442.094 109.448 442.094 108.156C442.094 107.536 442.19 106.974 442.383 106.469C442.576 105.964 442.846 105.531 443.195 105.172C443.544 104.812 443.961 104.536 444.445 104.344C444.93 104.146 445.464 104.047 446.047 104.047C446.453 104.047 446.833 104.076 447.188 104.133C447.542 104.19 447.88 104.284 448.203 104.414V105.711C447.865 105.534 447.518 105.406 447.164 105.328C446.815 105.245 446.453 105.203 446.078 105.203C445.729 105.203 445.398 105.271 445.086 105.406C444.779 105.536 444.508 105.727 444.273 105.977C444.039 106.227 443.854 106.531 443.719 106.891C443.583 107.25 443.516 107.656 443.516 108.109C443.516 109.057 443.745 109.768 444.203 110.242C444.667 110.711 445.307 110.945 446.125 110.945C446.495 110.945 446.852 110.904 447.195 110.82C447.544 110.737 447.88 110.612 448.203 110.445V111.711ZM457.719 105.328H454.742V112H453.367V105.328H450.391V104.156H457.719V105.328ZM475.375 102.977H472.352V112H470.945V102.977H467.922V101.789H475.375V102.977ZM483.922 107.664C483.922 107.857 483.919 108.018 483.914 108.148C483.909 108.279 483.901 108.401 483.891 108.516H478.383C478.383 109.318 478.607 109.935 479.055 110.367C479.503 110.794 480.148 111.008 480.992 111.008C481.221 111.008 481.451 111 481.68 110.984C481.909 110.964 482.13 110.938 482.344 110.906C482.557 110.875 482.76 110.841 482.953 110.805C483.151 110.763 483.333 110.719 483.5 110.672V111.789C483.13 111.893 482.711 111.977 482.242 112.039C481.779 112.107 481.297 112.141 480.797 112.141C480.125 112.141 479.547 112.049 479.062 111.867C478.578 111.685 478.18 111.422 477.867 111.078C477.56 110.729 477.331 110.305 477.18 109.805C477.034 109.299 476.961 108.729 476.961 108.094C476.961 107.542 477.039 107.021 477.195 106.531C477.357 106.036 477.589 105.604 477.891 105.234C478.198 104.859 478.573 104.562 479.016 104.344C479.458 104.125 479.961 104.016 480.523 104.016C481.07 104.016 481.555 104.102 481.977 104.273C482.398 104.445 482.753 104.69 483.039 105.008C483.331 105.32 483.549 105.703 483.695 106.156C483.846 106.604 483.922 107.107 483.922 107.664ZM482.508 107.469C482.523 107.12 482.49 106.802 482.406 106.516C482.323 106.224 482.193 105.974 482.016 105.766C481.844 105.557 481.628 105.396 481.367 105.281C481.107 105.161 480.805 105.102 480.461 105.102C480.164 105.102 479.893 105.159 479.648 105.273C479.404 105.388 479.193 105.549 479.016 105.758C478.839 105.966 478.695 106.216 478.586 106.508C478.477 106.799 478.409 107.12 478.383 107.469H482.508ZM493.148 112H491.281L487.625 107.797V112H486.266V104.156H487.625V107.742L491.148 104.156H492.945L489.266 107.773L493.148 112ZM500.984 111.711C500.63 111.846 500.266 111.945 499.891 112.008C499.521 112.076 499.138 112.109 498.742 112.109C497.503 112.109 496.547 111.773 495.875 111.102C495.208 110.43 494.875 109.448 494.875 108.156C494.875 107.536 494.971 106.974 495.164 106.469C495.357 105.964 495.628 105.531 495.977 105.172C496.326 104.812 496.742 104.536 497.227 104.344C497.711 104.146 498.245 104.047 498.828 104.047C499.234 104.047 499.615 104.076 499.969 104.133C500.323 104.19 500.661 104.284 500.984 104.414V105.711C500.646 105.534 500.299 105.406 499.945 105.328C499.596 105.245 499.234 105.203 498.859 105.203C498.51 105.203 498.18 105.271 497.867 105.406C497.56 105.536 497.289 105.727 497.055 105.977C496.82 106.227 496.635 106.531 496.5 106.891C496.365 107.25 496.297 107.656 496.297 108.109C496.297 109.057 496.526 109.768 496.984 110.242C497.448 110.711 498.089 110.945 498.906 110.945C499.276 110.945 499.633 110.904 499.977 110.82C500.326 110.737 500.661 110.612 500.984 110.445V111.711ZM510.5 105.328H507.523V112H506.148V105.328H503.172V104.156H510.5V105.328ZM528.094 105.328H525.117V112H523.742V105.328H520.766V104.156H528.094V105.328ZM536.703 107.664C536.703 107.857 536.701 108.018 536.695 108.148C536.69 108.279 536.682 108.401 536.672 108.516H531.164C531.164 109.318 531.388 109.935 531.836 110.367C532.284 110.794 532.93 111.008 533.773 111.008C534.003 111.008 534.232 111 534.461 110.984C534.69 110.964 534.911 110.938 535.125 110.906C535.339 110.875 535.542 110.841 535.734 110.805C535.932 110.763 536.115 110.719 536.281 110.672V111.789C535.911 111.893 535.492 111.977 535.023 112.039C534.56 112.107 534.078 112.141 533.578 112.141C532.906 112.141 532.328 112.049 531.844 111.867C531.359 111.685 530.961 111.422 530.648 111.078C530.341 110.729 530.112 110.305 529.961 109.805C529.815 109.299 529.742 108.729 529.742 108.094C529.742 107.542 529.82 107.021 529.977 106.531C530.138 106.036 530.37 105.604 530.672 105.234C530.979 104.859 531.354 104.562 531.797 104.344C532.24 104.125 532.742 104.016 533.305 104.016C533.852 104.016 534.336 104.102 534.758 104.273C535.18 104.445 535.534 104.69 535.82 105.008C536.112 105.32 536.331 105.703 536.477 106.156C536.628 106.604 536.703 107.107 536.703 107.664ZM535.289 107.469C535.305 107.12 535.271 106.802 535.188 106.516C535.104 106.224 534.974 105.974 534.797 105.766C534.625 105.557 534.409 105.396 534.148 105.281C533.888 105.161 533.586 105.102 533.242 105.102C532.945 105.102 532.674 105.159 532.43 105.273C532.185 105.388 531.974 105.549 531.797 105.758C531.62 105.966 531.477 106.216 531.367 106.508C531.258 106.799 531.19 107.12 531.164 107.469H535.289ZM545.93 112H544.062L540.406 107.797V112H539.047V104.156H540.406V107.742L543.93 104.156H545.727L542.047 107.773L545.93 112ZM553.766 111.711C553.411 111.846 553.047 111.945 552.672 112.008C552.302 112.076 551.919 112.109 551.523 112.109C550.284 112.109 549.328 111.773 548.656 111.102C547.99 110.43 547.656 109.448 547.656 108.156C547.656 107.536 547.753 106.974 547.945 106.469C548.138 105.964 548.409 105.531 548.758 105.172C549.107 104.812 549.523 104.536 550.008 104.344C550.492 104.146 551.026 104.047 551.609 104.047C552.016 104.047 552.396 104.076 552.75 104.133C553.104 104.19 553.443 104.284 553.766 104.414V105.711C553.427 105.534 553.081 105.406 552.727 105.328C552.378 105.245 552.016 105.203 551.641 105.203C551.292 105.203 550.961 105.271 550.648 105.406C550.341 105.536 550.07 105.727 549.836 105.977C549.602 106.227 549.417 106.531 549.281 106.891C549.146 107.25 549.078 107.656 549.078 108.109C549.078 109.057 549.307 109.768 549.766 110.242C550.229 110.711 550.87 110.945 551.688 110.945C552.057 110.945 552.414 110.904 552.758 110.82C553.107 110.737 553.443 110.612 553.766 110.445V111.711ZM563.281 105.328H560.305V112H558.93V105.328H555.953V104.156H563.281V105.328ZM53.0625 124.328H50.0859V131H48.7109V124.328H45.7344V123.156H53.0625V124.328ZM61.6719 126.664C61.6719 126.857 61.6693 127.018 61.6641 127.148C61.6589 127.279 61.651 127.401 61.6406 127.516H56.1328C56.1328 128.318 56.3568 128.935 56.8047 129.367C57.2526 129.794 57.8984 130.008 58.7422 130.008C58.9714 130.008 59.2005 130 59.4297 129.984C59.6589 129.964 59.8802 129.938 60.0938 129.906C60.3073 129.875 60.5104 129.841 60.7031 129.805C60.901 129.763 61.0833 129.719 61.25 129.672V130.789C60.8802 130.893 60.4609 130.977 59.9922 131.039C59.5286 131.107 59.0469 131.141 58.5469 131.141C57.875 131.141 57.2969 131.049 56.8125 130.867C56.3281 130.685 55.9297 130.422 55.6172 130.078C55.3099 129.729 55.0807 129.305 54.9297 128.805C54.7839 128.299 54.7109 127.729 54.7109 127.094C54.7109 126.542 54.7891 126.021 54.9453 125.531C55.1068 125.036 55.3385 124.604 55.6406 124.234C55.9479 123.859 56.3229 123.562 56.7656 123.344C57.2083 123.125 57.7109 123.016 58.2734 123.016C58.8203 123.016 59.3047 123.102 59.7266 123.273C60.1484 123.445 60.5026 123.69 60.7891 124.008C61.0807 124.32 61.2995 124.703 61.4453 125.156C61.5964 125.604 61.6719 126.107 61.6719 126.664ZM60.2578 126.469C60.2734 126.12 60.2396 125.802 60.1562 125.516C60.0729 125.224 59.9427 124.974 59.7656 124.766C59.5938 124.557 59.3776 124.396 59.1172 124.281C58.8568 124.161 58.5547 124.102 58.2109 124.102C57.9141 124.102 57.6432 124.159 57.3984 124.273C57.1536 124.388 56.9427 124.549 56.7656 124.758C56.5885 124.966 56.4453 125.216 56.3359 125.508C56.2266 125.799 56.1589 126.12 56.1328 126.469H60.2578ZM70.8984 131H69.0312L65.375 126.797V131H64.0156V123.156H65.375V126.742L68.8984 123.156H70.6953L67.0156 126.773L70.8984 131ZM78.7344 130.711C78.3802 130.846 78.0156 130.945 77.6406 131.008C77.2708 131.076 76.888 131.109 76.4922 131.109C75.2526 131.109 74.2969 130.773 73.625 130.102C72.9583 129.43 72.625 128.448 72.625 127.156C72.625 126.536 72.7214 125.974 72.9141 125.469C73.1068 124.964 73.3776 124.531 73.7266 124.172C74.0755 123.812 74.4922 123.536 74.9766 123.344C75.4609 123.146 75.9948 123.047 76.5781 123.047C76.9844 123.047 77.3646 123.076 77.7188 123.133C78.0729 123.19 78.4115 123.284 78.7344 123.414V124.711C78.3958 124.534 78.0495 124.406 77.6953 124.328C77.3464 124.245 76.9844 124.203 76.6094 124.203C76.2604 124.203 75.9297 124.271 75.6172 124.406C75.3099 124.536 75.0391 124.727 74.8047 124.977C74.5703 125.227 74.3854 125.531 74.25 125.891C74.1146 126.25 74.0469 126.656 74.0469 127.109C74.0469 128.057 74.276 128.768 74.7344 129.242C75.1979 129.711 75.8385 129.945 76.6562 129.945C77.026 129.945 77.3828 129.904 77.7266 129.82C78.0755 129.737 78.4115 129.612 78.7344 129.445V130.711ZM88.25 124.328H85.2734V131H83.8984V124.328H80.9219V123.156H88.25V124.328ZM105.844 124.328H102.867V131H101.492V124.328H98.5156V123.156H105.844V124.328ZM114.453 126.664C114.453 126.857 114.451 127.018 114.445 127.148C114.44 127.279 114.432 127.401 114.422 127.516H108.914C108.914 128.318 109.138 128.935 109.586 129.367C110.034 129.794 110.68 130.008 111.523 130.008C111.753 130.008 111.982 130 112.211 129.984C112.44 129.964 112.661 129.938 112.875 129.906C113.089 129.875 113.292 129.841 113.484 129.805C113.682 129.763 113.865 129.719 114.031 129.672V130.789C113.661 130.893 113.242 130.977 112.773 131.039C112.31 131.107 111.828 131.141 111.328 131.141C110.656 131.141 110.078 131.049 109.594 130.867C109.109 130.685 108.711 130.422 108.398 130.078C108.091 129.729 107.862 129.305 107.711 128.805C107.565 128.299 107.492 127.729 107.492 127.094C107.492 126.542 107.57 126.021 107.727 125.531C107.888 125.036 108.12 124.604 108.422 124.234C108.729 123.859 109.104 123.562 109.547 123.344C109.99 123.125 110.492 123.016 111.055 123.016C111.602 123.016 112.086 123.102 112.508 123.273C112.93 123.445 113.284 123.69 113.57 124.008C113.862 124.32 114.081 124.703 114.227 125.156C114.378 125.604 114.453 126.107 114.453 126.664ZM113.039 126.469C113.055 126.12 113.021 125.802 112.938 125.516C112.854 125.224 112.724 124.974 112.547 124.766C112.375 124.557 112.159 124.396 111.898 124.281C111.638 124.161 111.336 124.102 110.992 124.102C110.695 124.102 110.424 124.159 110.18 124.273C109.935 124.388 109.724 124.549 109.547 124.758C109.37 124.966 109.227 125.216 109.117 125.508C109.008 125.799 108.94 126.12 108.914 126.469H113.039ZM123.68 131H121.812L118.156 126.797V131H116.797V123.156H118.156V126.742L121.68 123.156H123.477L119.797 126.773L123.68 131ZM131.516 130.711C131.161 130.846 130.797 130.945 130.422 131.008C130.052 131.076 129.669 131.109 129.273 131.109C128.034 131.109 127.078 130.773 126.406 130.102C125.74 129.43 125.406 128.448 125.406 127.156C125.406 126.536 125.503 125.974 125.695 125.469C125.888 124.964 126.159 124.531 126.508 124.172C126.857 123.812 127.273 123.536 127.758 123.344C128.242 123.146 128.776 123.047 129.359 123.047C129.766 123.047 130.146 123.076 130.5 123.133C130.854 123.19 131.193 123.284 131.516 123.414V124.711C131.177 124.534 130.831 124.406 130.477 124.328C130.128 124.245 129.766 124.203 129.391 124.203C129.042 124.203 128.711 124.271 128.398 124.406C128.091 124.536 127.82 124.727 127.586 124.977C127.352 125.227 127.167 125.531 127.031 125.891C126.896 126.25 126.828 126.656 126.828 127.109C126.828 128.057 127.057 128.768 127.516 129.242C127.979 129.711 128.62 129.945 129.438 129.945C129.807 129.945 130.164 129.904 130.508 129.82C130.857 129.737 131.193 129.612 131.516 129.445V130.711ZM141.031 124.328H138.055V131H136.68V124.328H133.703V123.156H141.031V124.328ZM158.625 124.328H155.648V131H154.273V124.328H151.297V123.156H158.625V124.328ZM167.234 126.664C167.234 126.857 167.232 127.018 167.227 127.148C167.221 127.279 167.214 127.401 167.203 127.516H161.695C161.695 128.318 161.919 128.935 162.367 129.367C162.815 129.794 163.461 130.008 164.305 130.008C164.534 130.008 164.763 130 164.992 129.984C165.221 129.964 165.443 129.938 165.656 129.906C165.87 129.875 166.073 129.841 166.266 129.805C166.464 129.763 166.646 129.719 166.812 129.672V130.789C166.443 130.893 166.023 130.977 165.555 131.039C165.091 131.107 164.609 131.141 164.109 131.141C163.438 131.141 162.859 131.049 162.375 130.867C161.891 130.685 161.492 130.422 161.18 130.078C160.872 129.729 160.643 129.305 160.492 128.805C160.346 128.299 160.273 127.729 160.273 127.094C160.273 126.542 160.352 126.021 160.508 125.531C160.669 125.036 160.901 124.604 161.203 124.234C161.51 123.859 161.885 123.562 162.328 123.344C162.771 123.125 163.273 123.016 163.836 123.016C164.383 123.016 164.867 123.102 165.289 123.273C165.711 123.445 166.065 123.69 166.352 124.008C166.643 124.32 166.862 124.703 167.008 125.156C167.159 125.604 167.234 126.107 167.234 126.664ZM165.82 126.469C165.836 126.12 165.802 125.802 165.719 125.516C165.635 125.224 165.505 124.974 165.328 124.766C165.156 124.557 164.94 124.396 164.68 124.281C164.419 124.161 164.117 124.102 163.773 124.102C163.477 124.102 163.206 124.159 162.961 124.273C162.716 124.388 162.505 124.549 162.328 124.758C162.151 124.966 162.008 125.216 161.898 125.508C161.789 125.799 161.721 126.12 161.695 126.469H165.82ZM176.461 131H174.594L170.938 126.797V131H169.578V123.156H170.938V126.742L174.461 123.156H176.258L172.578 126.773L176.461 131ZM184.297 130.711C183.943 130.846 183.578 130.945 183.203 131.008C182.833 131.076 182.451 131.109 182.055 131.109C180.815 131.109 179.859 130.773 179.188 130.102C178.521 129.43 178.188 128.448 178.188 127.156C178.188 126.536 178.284 125.974 178.477 125.469C178.669 124.964 178.94 124.531 179.289 124.172C179.638 123.812 180.055 123.536 180.539 123.344C181.023 123.146 181.557 123.047 182.141 123.047C182.547 123.047 182.927 123.076 183.281 123.133C183.635 123.19 183.974 123.284 184.297 123.414V124.711C183.958 124.534 183.612 124.406 183.258 124.328C182.909 124.245 182.547 124.203 182.172 124.203C181.823 124.203 181.492 124.271 181.18 124.406C180.872 124.536 180.602 124.727 180.367 124.977C180.133 125.227 179.948 125.531 179.812 125.891C179.677 126.25 179.609 126.656 179.609 127.109C179.609 128.057 179.839 128.768 180.297 129.242C180.76 129.711 181.401 129.945 182.219 129.945C182.589 129.945 182.945 129.904 183.289 129.82C183.638 129.737 183.974 129.612 184.297 129.445V130.711ZM193.812 124.328H190.836V131H189.461V124.328H186.484V123.156H193.812V124.328ZM211.406 124.328H208.43V131H207.055V124.328H204.078V123.156H211.406V124.328ZM220.016 126.664C220.016 126.857 220.013 127.018 220.008 127.148C220.003 127.279 219.995 127.401 219.984 127.516H214.477C214.477 128.318 214.701 128.935 215.148 129.367C215.596 129.794 216.242 130.008 217.086 130.008C217.315 130.008 217.544 130 217.773 129.984C218.003 129.964 218.224 129.938 218.438 129.906C218.651 129.875 218.854 129.841 219.047 129.805C219.245 129.763 219.427 129.719 219.594 129.672V130.789C219.224 130.893 218.805 130.977 218.336 131.039C217.872 131.107 217.391 131.141 216.891 131.141C216.219 131.141 215.641 131.049 215.156 130.867C214.672 130.685 214.273 130.422 213.961 130.078C213.654 129.729 213.424 129.305 213.273 128.805C213.128 128.299 213.055 127.729 213.055 127.094C213.055 126.542 213.133 126.021 213.289 125.531C213.451 125.036 213.682 124.604 213.984 124.234C214.292 123.859 214.667 123.562 215.109 123.344C215.552 123.125 216.055 123.016 216.617 123.016C217.164 123.016 217.648 123.102 218.07 123.273C218.492 123.445 218.846 123.69 219.133 124.008C219.424 124.32 219.643 124.703 219.789 125.156C219.94 125.604 220.016 126.107 220.016 126.664ZM218.602 126.469C218.617 126.12 218.583 125.802 218.5 125.516C218.417 125.224 218.286 124.974 218.109 124.766C217.938 124.557 217.721 124.396 217.461 124.281C217.201 124.161 216.898 124.102 216.555 124.102C216.258 124.102 215.987 124.159 215.742 124.273C215.497 124.388 215.286 124.549 215.109 124.758C214.932 124.966 214.789 125.216 214.68 125.508C214.57 125.799 214.503 126.12 214.477 126.469H218.602ZM229.242 131H227.375L223.719 126.797V131H222.359V123.156H223.719V126.742L227.242 123.156H229.039L225.359 126.773L229.242 131ZM237.078 130.711C236.724 130.846 236.359 130.945 235.984 131.008C235.615 131.076 235.232 131.109 234.836 131.109C233.596 131.109 232.641 130.773 231.969 130.102C231.302 129.43 230.969 128.448 230.969 127.156C230.969 126.536 231.065 125.974 231.258 125.469C231.451 124.964 231.721 124.531 232.07 124.172C232.419 123.812 232.836 123.536 233.32 123.344C233.805 123.146 234.339 123.047 234.922 123.047C235.328 123.047 235.708 123.076 236.062 123.133C236.417 123.19 236.755 123.284 237.078 123.414V124.711C236.74 124.534 236.393 124.406 236.039 124.328C235.69 124.245 235.328 124.203 234.953 124.203C234.604 124.203 234.273 124.271 233.961 124.406C233.654 124.536 233.383 124.727 233.148 124.977C232.914 125.227 232.729 125.531 232.594 125.891C232.458 126.25 232.391 126.656 232.391 127.109C232.391 128.057 232.62 128.768 233.078 129.242C233.542 129.711 234.182 129.945 235 129.945C235.37 129.945 235.727 129.904 236.07 129.82C236.419 129.737 236.755 129.612 237.078 129.445V130.711ZM246.594 124.328H243.617V131H242.242V124.328H239.266V123.156H246.594V124.328ZM264.188 124.328H261.211V131H259.836V124.328H256.859V123.156H264.188V124.328ZM272.797 126.664C272.797 126.857 272.794 127.018 272.789 127.148C272.784 127.279 272.776 127.401 272.766 127.516H267.258C267.258 128.318 267.482 128.935 267.93 129.367C268.378 129.794 269.023 130.008 269.867 130.008C270.096 130.008 270.326 130 270.555 129.984C270.784 129.964 271.005 129.938 271.219 129.906C271.432 129.875 271.635 129.841 271.828 129.805C272.026 129.763 272.208 129.719 272.375 129.672V130.789C272.005 130.893 271.586 130.977 271.117 131.039C270.654 131.107 270.172 131.141 269.672 131.141C269 131.141 268.422 131.049 267.938 130.867C267.453 130.685 267.055 130.422 266.742 130.078C266.435 129.729 266.206 129.305 266.055 128.805C265.909 128.299 265.836 127.729 265.836 127.094C265.836 126.542 265.914 126.021 266.07 125.531C266.232 125.036 266.464 124.604 266.766 124.234C267.073 123.859 267.448 123.562 267.891 123.344C268.333 123.125 268.836 123.016 269.398 123.016C269.945 123.016 270.43 123.102 270.852 123.273C271.273 123.445 271.628 123.69 271.914 124.008C272.206 124.32 272.424 124.703 272.57 125.156C272.721 125.604 272.797 126.107 272.797 126.664ZM271.383 126.469C271.398 126.12 271.365 125.802 271.281 125.516C271.198 125.224 271.068 124.974 270.891 124.766C270.719 124.557 270.503 124.396 270.242 124.281C269.982 124.161 269.68 124.102 269.336 124.102C269.039 124.102 268.768 124.159 268.523 124.273C268.279 124.388 268.068 124.549 267.891 124.758C267.714 124.966 267.57 125.216 267.461 125.508C267.352 125.799 267.284 126.12 267.258 126.469H271.383ZM282.023 131H280.156L276.5 126.797V131H275.141V123.156H276.5V126.742L280.023 123.156H281.82L278.141 126.773L282.023 131ZM289.859 130.711C289.505 130.846 289.141 130.945 288.766 131.008C288.396 131.076 288.013 131.109 287.617 131.109C286.378 131.109 285.422 130.773 284.75 130.102C284.083 129.43 283.75 128.448 283.75 127.156C283.75 126.536 283.846 125.974 284.039 125.469C284.232 124.964 284.503 124.531 284.852 124.172C285.201 123.812 285.617 123.536 286.102 123.344C286.586 123.146 287.12 123.047 287.703 123.047C288.109 123.047 288.49 123.076 288.844 123.133C289.198 123.19 289.536 123.284 289.859 123.414V124.711C289.521 124.534 289.174 124.406 288.82 124.328C288.471 124.245 288.109 124.203 287.734 124.203C287.385 124.203 287.055 124.271 286.742 124.406C286.435 124.536 286.164 124.727 285.93 124.977C285.695 125.227 285.51 125.531 285.375 125.891C285.24 126.25 285.172 126.656 285.172 127.109C285.172 128.057 285.401 128.768 285.859 129.242C286.323 129.711 286.964 129.945 287.781 129.945C288.151 129.945 288.508 129.904 288.852 129.82C289.201 129.737 289.536 129.612 289.859 129.445V130.711ZM299.375 124.328H296.398V131H295.023V124.328H292.047V123.156H299.375V124.328ZM316.969 124.328H313.992V131H312.617V124.328H309.641V123.156H316.969V124.328ZM325.578 126.664C325.578 126.857 325.576 127.018 325.57 127.148C325.565 127.279 325.557 127.401 325.547 127.516H320.039C320.039 128.318 320.263 128.935 320.711 129.367C321.159 129.794 321.805 130.008 322.648 130.008C322.878 130.008 323.107 130 323.336 129.984C323.565 129.964 323.786 129.938 324 129.906C324.214 129.875 324.417 129.841 324.609 129.805C324.807 129.763 324.99 129.719 325.156 129.672V130.789C324.786 130.893 324.367 130.977 323.898 131.039C323.435 131.107 322.953 131.141 322.453 131.141C321.781 131.141 321.203 131.049 320.719 130.867C320.234 130.685 319.836 130.422 319.523 130.078C319.216 129.729 318.987 129.305 318.836 128.805C318.69 128.299 318.617 127.729 318.617 127.094C318.617 126.542 318.695 126.021 318.852 125.531C319.013 125.036 319.245 124.604 319.547 124.234C319.854 123.859 320.229 123.562 320.672 123.344C321.115 123.125 321.617 123.016 322.18 123.016C322.727 123.016 323.211 123.102 323.633 123.273C324.055 123.445 324.409 123.69 324.695 124.008C324.987 124.32 325.206 124.703 325.352 125.156C325.503 125.604 325.578 126.107 325.578 126.664ZM324.164 126.469C324.18 126.12 324.146 125.802 324.062 125.516C323.979 125.224 323.849 124.974 323.672 124.766C323.5 124.557 323.284 124.396 323.023 124.281C322.763 124.161 322.461 124.102 322.117 124.102C321.82 124.102 321.549 124.159 321.305 124.273C321.06 124.388 320.849 124.549 320.672 124.758C320.495 124.966 320.352 125.216 320.242 125.508C320.133 125.799 320.065 126.12 320.039 126.469H324.164ZM334.805 131H332.938L329.281 126.797V131H327.922V123.156H329.281V126.742L332.805 123.156H334.602L330.922 126.773L334.805 131ZM342.641 130.711C342.286 130.846 341.922 130.945 341.547 131.008C341.177 131.076 340.794 131.109 340.398 131.109C339.159 131.109 338.203 130.773 337.531 130.102C336.865 129.43 336.531 128.448 336.531 127.156C336.531 126.536 336.628 125.974 336.82 125.469C337.013 124.964 337.284 124.531 337.633 124.172C337.982 123.812 338.398 123.536 338.883 123.344C339.367 123.146 339.901 123.047 340.484 123.047C340.891 123.047 341.271 123.076 341.625 123.133C341.979 123.19 342.318 123.284 342.641 123.414V124.711C342.302 124.534 341.956 124.406 341.602 124.328C341.253 124.245 340.891 124.203 340.516 124.203C340.167 124.203 339.836 124.271 339.523 124.406C339.216 124.536 338.945 124.727 338.711 124.977C338.477 125.227 338.292 125.531 338.156 125.891C338.021 126.25 337.953 126.656 337.953 127.109C337.953 128.057 338.182 128.768 338.641 129.242C339.104 129.711 339.745 129.945 340.562 129.945C340.932 129.945 341.289 129.904 341.633 129.82C341.982 129.737 342.318 129.612 342.641 129.445V130.711ZM352.156 124.328H349.18V131H347.805V124.328H344.828V123.156H352.156V124.328Z" fill="black"/>
</svg>
