<svg width="85" height="33" viewBox="0 0 85 33" fill="none" xmlns="http://www.w3.org/2000/svg">
<path d="M67.9682 0.667249C65.8971 7.78457 60.3741 13.3954 53.3685 15.491C52.4898 15.756 52.4898 17.0094 53.3685 17.2743C60.3702 19.3739 65.8971 24.9808 67.9682 32.0981C68.2271 32.9878 69.4784 32.9878 69.7412 32.0981C71.8124 24.9808 77.3353 19.37 84.341 17.2743C85.2196 17.0094 85.2196 15.756 84.341 15.491C77.3392 13.3954 71.8124 7.78457 69.7412 0.667249C69.4824 -0.222416 68.2311 -0.222416 67.9682 0.667249Z" fill="#E6FF53"/>
<path d="M68.9125 6.38511C64.9798 5.60172 65.6937 8.50377 63.3939 11.1591C61.6509 13.1727 54.8806 13.0329 52.2189 13.0329H24.8567C22.195 13.0329 19.7756 11.7335 18.0327 9.72C15.7328 7.06464 12.0959 5.59857 8.16315 6.38511C4.23988 7.16851 1.04967 10.3178 0.231662 14.2348C-1.1558 20.8795 3.87807 26.7282 10.2774 26.7282C13.4298 26.7282 16.2488 25.3062 18.1302 23.0661C19.8228 21.0525 22.302 19.8664 24.9322 19.8664H52.1434C54.7767 19.8664 61.7012 19.1177 63.3939 21.1312C65.2753 23.3681 63.6458 26.7282 66.7982 26.7282C73.1975 26.7282 78.2314 20.8795 76.844 14.2348C76.0259 10.3178 72.8357 7.16851 68.9125 6.38511Z" fill="#E6FF53"/>
</svg>
