<svg width="107" height="107" viewBox="0 0 107 107" fill="none" xmlns="http://www.w3.org/2000/svg">
<g clip-path="url(#clip0_221_44)">
<path fill-rule="evenodd" clip-rule="evenodd" d="M14.0115 0C14.5732 0 15.1174 -0.190499 15.5632 -0.532125C26.0758 -8.58818 39.227 -13.375 53.5 -13.375C67.7714 -13.375 80.9224 -8.58817 91.4352 -0.532105C91.881 -0.190491 92.4252 0 92.9868 0H95.5C101.851 0 107 5.14873 107 11.5V16.1738C107 16.6285 107.125 17.0739 107.355 17.4659C112.797 26.7285 115.917 37.5199 115.917 49.0417C115.917 60.564 112.797 71.3561 107.355 80.619C107.125 81.011 107 81.4564 107 81.9111V95.5C107 101.851 101.851 107 95.5 107H77.1996C76.881 107 76.5656 107.061 76.2689 107.178C69.2153 109.941 61.5355 111.458 53.5 111.458C45.4656 111.458 37.7862 109.941 30.7328 107.178C30.4361 107.061 30.1208 107 29.8021 107H11.5C5.14877 107 4.00543e-05 101.851 4.00543e-05 95.5V81.9096C4.00543e-05 81.4549 -0.124953 81.0095 -0.355268 80.6174C-5.79665 71.3548 -8.91663 60.5634 -8.91663 49.0417C-8.91663 37.5193 -5.79675 26.7273 -0.355259 17.4644C-0.12495 17.0723 4.00543e-05 16.6269 4.00543e-05 16.1722V11.5C4.00543e-05 5.14873 5.14877 0 11.5 0H14.0115ZM73.9123 77.6607L84.1561 29.3892C84.1565 29.3875 84.1559 29.3857 84.1547 29.3844C84.1534 29.3832 84.1529 29.3814 84.1533 29.3796C84.2214 29.0613 84.2705 28.7573 84.302 28.4678C84.3463 28.0601 84.2001 27.659 83.9327 27.348C83.2353 26.5372 82.5061 25.7546 81.7469 25.0021C81.2341 24.4938 80.5032 24.2289 79.8238 24.4737L19.646 47.6806C15.5185 49.2913 15.595 51.5826 18.9413 52.6377L33.2433 57.1021C33.9418 57.3202 34.7008 57.2212 35.3201 56.8314L70.0827 34.9476C71.7458 33.8402 73.2841 34.4684 72.0237 35.5758L43.8545 61.0265C43.3747 61.46 43.0815 62.0625 43.0366 62.7076L42.1857 74.9103C42.0849 76.356 43.3589 77.6387 44.4616 76.6984C44.6942 76.5 44.9144 76.2798 45.1443 76.05L51.1511 70.2649C52.0287 69.4197 53.3878 69.3302 54.3686 70.0531L68.2747 80.3024C71.1177 81.9131 73.1553 81.0836 73.9123 77.6607Z" fill="#E6FF53"/>
</g>
<defs>
<clipPath id="clip0_221_44">
<rect width="107" height="107" fill="white"/>
</clipPath>
</defs>
</svg>
