<svg width="107" height="107" viewBox="0 0 107 107" fill="none" xmlns="http://www.w3.org/2000/svg">
<g clip-path="url(#clip0_221_40)">
<path d="M95.5357 0H11.4643C5.13504 0 0 5.13504 0 11.4643V95.5357C0 101.865 5.13504 107 11.4643 107H95.5357C101.865 107 107 101.865 107 95.5357V11.4643C107 5.13504 101.865 0 95.5357 0ZM66.2301 91.6426C64.2239 92.0009 63.4835 90.7589 63.4835 89.7319C63.4835 88.4422 63.5312 81.8502 63.5312 76.5241C63.5312 72.7982 62.2893 70.4337 60.8324 69.1917C69.6694 68.2125 78.9842 66.9944 78.9842 51.7326C78.9842 47.3857 77.4317 45.2123 74.9 42.4179C75.306 41.3909 76.6674 37.1634 74.494 31.6701C71.1741 30.6431 63.579 35.9453 63.579 35.9453C60.4263 35.0616 57.0109 34.6078 53.6433 34.6078C50.2757 34.6078 46.8603 35.0616 43.7076 35.9453C43.7076 35.9453 36.1125 30.6431 32.7926 31.6701C30.6192 37.1395 31.9567 41.367 32.3866 42.4179C29.8549 45.2123 28.6607 47.3857 28.6607 51.7326C28.6607 66.9228 37.5694 68.2125 46.4065 69.1917C45.26 70.2188 44.233 71.9862 43.8748 74.5179C41.6058 75.5449 35.802 77.3123 32.3388 71.198C30.1654 67.4243 26.2484 67.1138 26.2484 67.1138C22.3792 67.0661 25.9857 69.55 25.9857 69.55C28.5652 70.7442 30.3804 75.3299 30.3804 75.3299C32.6971 82.4234 43.7792 80.035 43.7792 80.035C43.7792 83.3549 43.827 88.7527 43.827 89.7319C43.827 90.7589 43.1105 92.0009 41.0804 91.6426C25.317 86.3643 14.2826 71.3652 14.2826 53.8344C14.2826 31.9089 31.0491 15.2618 52.9746 15.2618C74.9 15.2618 92.6696 31.9089 92.6696 53.8344C92.6935 71.3652 81.9935 86.3882 66.2301 91.6426ZM42.8 77.0496C42.3462 77.1451 41.9163 76.954 41.8685 76.6435C41.8208 76.2853 42.1312 75.9748 42.585 75.8792C43.0388 75.8315 43.4688 76.0225 43.5165 76.333C43.5882 76.6435 43.2777 76.954 42.8 77.0496ZM40.531 76.8346C40.531 77.1451 40.1728 77.4078 39.6951 77.4078C39.1696 77.4556 38.8114 77.1929 38.8114 76.8346C38.8114 76.5241 39.1696 76.2614 39.6473 76.2614C40.1011 76.2136 40.531 76.4763 40.531 76.8346ZM37.2589 76.5719C37.1634 76.8824 36.6857 77.0257 36.2797 76.8824C35.8259 76.7868 35.5154 76.4286 35.6109 76.1181C35.7065 75.8076 36.1842 75.6643 36.5902 75.7598C37.0679 75.9031 37.3783 76.2614 37.2589 76.5719ZM34.3212 75.2821C34.1063 75.5449 33.6525 75.4971 33.2942 75.1388C32.9359 74.8283 32.8404 74.3745 33.0792 74.1596C33.2942 73.8969 33.748 73.9446 34.1063 74.3029C34.4167 74.6134 34.5362 75.0911 34.3212 75.2821ZM32.1478 73.1087C31.9328 73.252 31.5268 73.1087 31.2641 72.7505C31.0013 72.3922 31.0013 71.9862 31.2641 71.819C31.5268 71.604 31.9328 71.7712 32.1478 72.1295C32.4105 72.4877 32.4105 72.9176 32.1478 73.1087ZM30.5953 70.792C30.3804 71.0069 30.0221 70.8875 29.7594 70.6487C29.4967 70.3382 29.4489 69.9799 29.6638 69.8127C29.8788 69.5978 30.2371 69.7172 30.4998 69.956C30.7625 70.2665 30.8103 70.6248 30.5953 70.792ZM28.9951 69.0246C28.8996 69.2395 28.5891 69.2873 28.3263 69.1201C28.0158 68.9768 27.8725 68.7141 27.9681 68.4991C28.0636 68.3558 28.3263 68.2841 28.6368 68.4036C28.9473 68.5708 29.0906 68.8335 28.9951 69.0246Z" fill="#E6FF53"/>
</g>
<defs>
<clipPath id="clip0_221_40">
<rect width="107" height="107" fill="white"/>
</clipPath>
</defs>
</svg>
