<svg width="632" height="450" viewBox="0 0 632 450" fill="none" xmlns="http://www.w3.org/2000/svg">
<path d="M605.923 1H32.4529C18.3681 1 6.9501 12.372 6.9501 26.4V423.6C6.9501 437.628 18.3681 449 32.4529 449H605.923C620.008 449 631.426 437.628 631.426 423.6V26.4C631.426 12.372 620.008 1 605.923 1Z" fill="#8000FF"/>
<path d="M599.973 1H26.5028C12.418 1 1 12.372 1 26.4V423.6C1 437.628 12.418 449 26.5028 449H599.973C614.058 449 625.476 437.628 625.476 423.6V26.4C625.476 12.372 614.058 1 599.973 1Z" fill="white" stroke="#8000FF" stroke-width="0.75" stroke-miterlimit="10"/>
<path d="M32.4383 1H605.923C619.991 1 631.426 12.3742 631.426 26.4V40.1506H6.9501V26.4C6.9501 12.3742 18.3703 1 32.4383 1Z" fill="#8000FF"/>
<path d="M26.5028 1H599.988C614.056 1 625.49 12.3742 625.49 26.4V40.1506H1V26.4C1 12.3742 12.4348 1 26.5028 1Z" fill="#E6FF53" stroke="#8000FF" stroke-width="0.75" stroke-miterlimit="10"/>
<path d="M521.506 23.6307H539.287" stroke="#8000FF" stroke-width="1.4" stroke-linecap="round" stroke-linejoin="round"/>
<path d="M588.687 30.0966L603.236 15.5484" stroke="#8000FF" stroke-width="1.4" stroke-linecap="round" stroke-linejoin="round"/>
<path d="M589.415 15.5483L603.964 30.0965" stroke="#8000FF" stroke-width="1.4" stroke-linecap="round" stroke-linejoin="round"/>
<rect x="555.452" y="15.5483" width="16.1648" height="16.1648" stroke="#8000FF" stroke-width="1.4" stroke-linejoin="round"/>
</svg>
