<svg width="581" height="138" viewBox="0 0 581 138" fill="none" xmlns="http://www.w3.org/2000/svg">
<path d="M316.632 26.6079H299.969C297.233 26.6079 295 24.3751 295 21.6388V4.96909C295 2.23278 297.239 0 299.969 0H316.632C319.368 0 321.601 2.23278 321.601 4.96909V21.6388C321.601 24.3751 319.362 26.6079 316.632 26.6079ZM358.339 21.6388V4.96909C358.339 2.23278 356.1 0 353.37 0H336.701C333.964 0 331.731 2.23278 331.731 4.96909V21.6388C331.731 24.3751 333.971 26.6079 336.701 26.6079H353.37C356.1 26.6079 358.339 24.3751 358.339 21.6388ZM395.104 21.6388V4.96909C395.104 2.23278 392.865 0 390.135 0H373.472C370.736 0 368.503 2.23278 368.503 4.96909V21.6388C368.503 24.3751 370.742 26.6079 373.472 26.6079H390.135C392.871 26.6079 395.104 24.3684 395.104 21.6388ZM431.842 21.6388V4.96909C431.842 2.23278 429.603 0 426.873 0H410.203C407.467 0 405.234 2.23278 405.234 4.96909V21.6388C405.234 24.3751 407.474 26.6079 410.203 26.6079H426.873C429.603 26.6079 431.842 24.3684 431.842 21.6388ZM470.296 21.6388V4.96909C470.296 2.23278 468.057 0 465.327 0H448.664C445.928 0 443.695 2.23278 443.695 4.96909V21.6388C443.695 24.3751 445.934 26.6079 448.664 26.6079H465.327C468.063 26.6079 470.296 24.3684 470.296 21.6388ZM543.799 21.6388V4.96909C543.799 2.23278 541.56 0 538.83 0H522.167C519.431 0 517.198 2.23278 517.198 4.96909V21.6388C517.198 24.3751 519.437 26.6079 522.167 26.6079H538.83C541.566 26.6079 543.799 24.3684 543.799 21.6388ZM580.537 21.6388V4.96909C580.537 2.23278 578.298 0 575.568 0H558.905C556.169 0 553.936 2.23278 553.936 4.96909V21.6388C553.936 24.3751 556.175 26.6079 558.905 26.6079H575.568C578.304 26.6079 580.537 24.3684 580.537 21.6388ZM321.608 58.4432V41.7735C321.608 39.0372 319.368 36.8044 316.639 36.8044H299.976C297.239 36.8044 295.007 39.0372 295.007 41.7735V58.4432C295.007 61.1795 297.246 63.4123 299.976 63.4123H316.639C319.375 63.4123 321.608 61.1729 321.608 58.4432ZM395.111 58.4432V41.7735C395.111 39.0372 392.871 36.8044 390.142 36.8044H373.478C370.742 36.8044 368.509 39.0372 368.509 41.7735V58.4432C368.509 61.1795 370.749 63.4123 373.478 63.4123H390.142C392.878 63.4123 395.111 61.1729 395.111 58.4432ZM431.849 58.4432V41.7735C431.849 39.0372 429.609 36.8044 426.88 36.8044H410.21C407.474 36.8044 405.241 39.0372 405.241 41.7735V58.4432C405.241 61.1795 407.48 63.4123 410.21 63.4123H426.88C429.609 63.4123 431.849 61.1729 431.849 58.4432ZM470.303 58.4432V41.7735C470.303 39.0372 468.064 36.8044 465.334 36.8044H448.671C445.934 36.8044 443.702 39.0372 443.702 41.7735V58.4432C443.702 61.1795 445.941 63.4123 448.671 63.4123H465.334C468.07 63.4123 470.303 61.1729 470.303 58.4432ZM507.041 58.4432V41.7735C507.041 39.0372 504.802 36.8044 502.072 36.8044H485.409C482.673 36.8044 480.44 39.0372 480.44 41.7735V58.4432C480.44 61.1795 482.679 63.4123 485.409 63.4123H502.072C504.808 63.4123 507.041 61.1729 507.041 58.4432ZM543.812 58.4432V41.7735C543.812 39.0372 541.573 36.8044 538.843 36.8044H522.18C519.444 36.8044 517.211 39.0372 517.211 41.7735V58.4432C517.211 61.1795 519.45 63.4123 522.18 63.4123H538.843C541.58 63.4123 543.812 61.1729 543.812 58.4432ZM321.614 95.2476V78.578C321.614 75.8417 319.375 73.6089 316.645 73.6089H299.982C297.246 73.6089 295.013 75.8417 295.013 78.578V95.2476C295.013 97.9839 297.253 100.217 299.982 100.217H316.645C319.382 100.217 321.614 97.9772 321.614 95.2476ZM358.353 95.2476V78.578C358.353 75.8417 356.113 73.6089 353.384 73.6089H336.714C333.978 73.6089 331.745 75.8417 331.745 78.578V95.2476C331.745 97.9839 333.984 100.217 336.714 100.217H353.384C356.113 100.217 358.353 97.9772 358.353 95.2476ZM395.117 95.2476V78.578C395.117 75.8417 392.878 73.6089 390.148 73.6089H373.485C370.749 73.6089 368.516 75.8417 368.516 78.578V95.2476C368.516 97.9839 370.755 100.217 373.485 100.217H390.148C392.884 100.217 395.117 97.9772 395.117 95.2476ZM431.855 95.2476V78.578C431.855 75.8417 429.616 73.6089 426.886 73.6089H410.217C407.48 73.6089 405.248 75.8417 405.248 78.578V95.2476C405.248 97.9839 407.487 100.217 410.217 100.217H426.886C429.616 100.217 431.855 97.9772 431.855 95.2476ZM470.31 95.2476V78.578C470.31 75.8417 468.07 73.6089 465.34 73.6089H448.677C445.941 73.6089 443.708 75.8417 443.708 78.578V95.2476C443.708 97.9839 445.948 100.217 448.677 100.217H465.34C468.077 100.217 470.31 97.9772 470.31 95.2476ZM543.812 95.2476V78.578C543.812 75.8417 541.573 73.6089 538.843 73.6089H522.18C519.444 73.6089 517.211 75.8417 517.211 78.578V95.2476C517.211 97.9839 519.45 100.217 522.18 100.217H538.843C541.58 100.217 543.812 97.9772 543.812 95.2476ZM580.551 95.2476V78.578C580.551 75.8417 578.311 73.6089 575.581 73.6089H558.918C556.182 73.6089 553.949 75.8417 553.949 78.578V95.2476C553.949 97.9839 556.189 100.217 558.918 100.217H575.581C578.318 100.217 580.551 97.9772 580.551 95.2476ZM321.621 132.052V115.382C321.621 112.646 319.382 110.413 316.652 110.413H299.989C297.253 110.413 295.02 112.646 295.02 115.382V132.052C295.02 134.788 297.259 137.021 299.989 137.021H316.652C319.388 137.021 321.621 134.782 321.621 132.052ZM395.124 132.052V115.382C395.124 112.646 392.884 110.413 390.155 110.413H373.492C370.755 110.413 368.523 112.646 368.523 115.382V132.052C368.523 134.788 370.762 137.021 373.492 137.021H390.155C392.891 137.021 395.124 134.782 395.124 132.052ZM431.862 132.052V115.382C431.862 112.646 429.623 110.413 426.893 110.413H410.223C407.487 110.413 405.254 112.646 405.254 115.382V132.052C405.254 134.788 407.494 137.021 410.223 137.021H426.893C429.623 137.021 431.862 134.782 431.862 132.052ZM470.316 132.052V115.382C470.316 112.646 468.077 110.413 465.347 110.413H448.684C445.948 110.413 443.715 112.646 443.715 115.382V132.052C443.715 134.788 445.954 137.021 448.684 137.021H465.347C468.083 137.021 470.316 134.782 470.316 132.052ZM507.054 132.052V115.382C507.054 112.646 504.815 110.413 502.085 110.413H485.422C482.686 110.413 480.453 112.646 480.453 115.382V132.052C480.453 134.788 482.692 137.021 485.422 137.021H502.085C504.822 137.021 507.054 134.782 507.054 132.052ZM543.826 132.052V115.382C543.826 112.646 541.586 110.413 538.856 110.413H522.193C519.457 110.413 517.224 112.646 517.224 115.382V132.052C517.224 134.788 519.464 137.021 522.193 137.021H538.856C541.593 137.021 543.826 134.782 543.826 132.052ZM580.564 132.052V115.382C580.564 112.646 578.324 110.413 575.595 110.413H558.932C556.195 110.413 553.963 112.646 553.963 115.382V132.052C553.963 134.788 556.202 137.021 558.932 137.021H575.595C578.331 137.021 580.564 134.782 580.564 132.052Z" fill="#8000FF"/>
<path d="M21.632 26.6079H4.96909C2.23278 26.6079 0 24.3751 0 21.6388V4.96909C0 2.23278 2.2394 0 4.96909 0H21.632C24.3684 0 26.6011 2.23278 26.6011 4.96909V21.6388C26.6011 24.3751 24.3617 26.6079 21.632 26.6079ZM63.3393 21.6388V4.96909C63.3393 2.23278 61.0999 0 58.3702 0H41.7006C38.9643 0 36.7315 2.23278 36.7315 4.96909V21.6388C36.7315 24.3751 38.9709 26.6079 41.7006 26.6079H58.3702C61.0999 26.6079 63.3393 24.3751 63.3393 21.6388ZM100.104 21.6388V4.96909C100.104 2.23278 97.8646 0 95.1349 0H78.4719C75.7355 0 73.5028 2.23278 73.5028 4.96909V21.6388C73.5028 24.3751 75.7422 26.6079 78.4719 26.6079H95.1349C97.8712 26.6079 100.104 24.3684 100.104 21.6388ZM136.842 21.6388V4.96909C136.842 2.23278 134.603 0 131.873 0H115.203C112.467 0 110.234 2.23278 110.234 4.96909V21.6388C110.234 24.3751 112.474 26.6079 115.203 26.6079H131.873C134.603 26.6079 136.842 24.3684 136.842 21.6388ZM175.296 21.6388V4.96909C175.296 2.23278 173.057 0 170.327 0H153.664C150.928 0 148.695 2.23278 148.695 4.96909V21.6388C148.695 24.3751 150.934 26.6079 153.664 26.6079H170.327C173.063 26.6079 175.296 24.3684 175.296 21.6388ZM248.799 21.6388V4.96909C248.799 2.23278 246.56 0 243.83 0H227.167C224.431 0 222.198 2.23278 222.198 4.96909V21.6388C222.198 24.3751 224.437 26.6079 227.167 26.6079H243.83C246.566 26.6079 248.799 24.3684 248.799 21.6388ZM285.537 21.6388V4.96909C285.537 2.23278 283.298 0 280.568 0H263.905C261.169 0 258.936 2.23278 258.936 4.96909V21.6388C258.936 24.3751 261.175 26.6079 263.905 26.6079H280.568C283.304 26.6079 285.537 24.3684 285.537 21.6388ZM26.6078 58.4432V41.7735C26.6078 39.0372 24.3684 36.8044 21.6387 36.8044H4.97564C2.23933 36.8044 0.00655105 39.0372 0.00655105 41.7735V58.4432C0.00655105 61.1795 2.24596 63.4123 4.97564 63.4123H21.6387C24.375 63.4123 26.6078 61.1729 26.6078 58.4432ZM100.111 58.4432V41.7735C100.111 39.0372 97.8712 36.8044 95.1415 36.8044H78.4785C75.7422 36.8044 73.5094 39.0372 73.5094 41.7735V58.4432C73.5094 61.1795 75.7488 63.4123 78.4785 63.4123H95.1415C97.8778 63.4123 100.111 61.1729 100.111 58.4432ZM136.849 58.4432V41.7735C136.849 39.0372 134.609 36.8044 131.88 36.8044H115.21C112.474 36.8044 110.241 39.0372 110.241 41.7735V58.4432C110.241 61.1795 112.48 63.4123 115.21 63.4123H131.88C134.609 63.4123 136.849 61.1729 136.849 58.4432ZM175.303 58.4432V41.7735C175.303 39.0372 173.064 36.8044 170.334 36.8044H153.671C150.934 36.8044 148.702 39.0372 148.702 41.7735V58.4432C148.702 61.1795 150.941 63.4123 153.671 63.4123H170.334C173.07 63.4123 175.303 61.1729 175.303 58.4432ZM212.041 58.4432V41.7735C212.041 39.0372 209.802 36.8044 207.072 36.8044H190.409C187.673 36.8044 185.44 39.0372 185.44 41.7735V58.4432C185.44 61.1795 187.679 63.4123 190.409 63.4123H207.072C209.808 63.4123 212.041 61.1729 212.041 58.4432ZM248.812 58.4432V41.7735C248.812 39.0372 246.573 36.8044 243.843 36.8044H227.18C224.444 36.8044 222.211 39.0372 222.211 41.7735V58.4432C222.211 61.1795 224.45 63.4123 227.18 63.4123H243.843C246.58 63.4123 248.812 61.1729 248.812 58.4432ZM26.6144 95.2476V78.578C26.6144 75.8417 24.375 73.6089 21.6453 73.6089H4.98227C2.24596 73.6089 0.013183 75.8417 0.013183 78.578V95.2476C0.013183 97.9839 2.25259 100.217 4.98227 100.217H21.6453C24.3816 100.217 26.6144 97.9772 26.6144 95.2476ZM63.3526 95.2476V78.578C63.3526 75.8417 61.1132 73.6089 58.3835 73.6089H41.7138C38.9775 73.6089 36.7448 75.8417 36.7448 78.578V95.2476C36.7448 97.9839 38.9842 100.217 41.7138 100.217H58.3835C61.1132 100.217 63.3526 97.9772 63.3526 95.2476ZM100.117 95.2476V78.578C100.117 75.8417 97.8778 73.6089 95.1482 73.6089H78.4851C75.7488 73.6089 73.516 75.8417 73.516 78.578V95.2476C73.516 97.9839 75.7554 100.217 78.4851 100.217H95.1482C97.8845 100.217 100.117 97.9772 100.117 95.2476ZM136.855 95.2476V78.578C136.855 75.8417 134.616 73.6089 131.886 73.6089H115.217C112.48 73.6089 110.248 75.8417 110.248 78.578V95.2476C110.248 97.9839 112.487 100.217 115.217 100.217H131.886C134.616 100.217 136.855 97.9772 136.855 95.2476ZM175.31 95.2476V78.578C175.31 75.8417 173.07 73.6089 170.34 73.6089H153.677C150.941 73.6089 148.708 75.8417 148.708 78.578V95.2476C148.708 97.9839 150.948 100.217 153.677 100.217H170.34C173.077 100.217 175.31 97.9772 175.31 95.2476ZM248.812 95.2476V78.578C248.812 75.8417 246.573 73.6089 243.843 73.6089H227.18C224.444 73.6089 222.211 75.8417 222.211 78.578V95.2476C222.211 97.9839 224.45 100.217 227.18 100.217H243.843C246.58 100.217 248.812 97.9772 248.812 95.2476ZM285.551 95.2476V78.578C285.551 75.8417 283.311 73.6089 280.581 73.6089H263.918C261.182 73.6089 258.949 75.8417 258.949 78.578V95.2476C258.949 97.9839 261.189 100.217 263.918 100.217H280.581C283.318 100.217 285.551 97.9772 285.551 95.2476ZM26.621 132.052V115.382C26.621 112.646 24.3816 110.413 21.6519 110.413H4.98891C2.25259 110.413 0.0198149 112.646 0.0198149 115.382V132.052C0.0198149 134.788 2.25922 137.021 4.98891 137.021H21.6519C24.3883 137.021 26.621 134.782 26.621 132.052ZM100.124 132.052V115.382C100.124 112.646 97.8845 110.413 95.1548 110.413H78.4918C75.7554 110.413 73.5227 112.646 73.5227 115.382V132.052C73.5227 134.788 75.7621 137.021 78.4918 137.021H95.1548C97.8911 137.021 100.124 134.782 100.124 132.052ZM136.862 132.052V115.382C136.862 112.646 134.623 110.413 131.893 110.413H115.223C112.487 110.413 110.254 112.646 110.254 115.382V132.052C110.254 134.788 112.494 137.021 115.223 137.021H131.893C134.623 137.021 136.862 134.782 136.862 132.052ZM175.316 132.052V115.382C175.316 112.646 173.077 110.413 170.347 110.413H153.684C150.948 110.413 148.715 112.646 148.715 115.382V132.052C148.715 134.788 150.954 137.021 153.684 137.021H170.347C173.083 137.021 175.316 134.782 175.316 132.052ZM212.054 132.052V115.382C212.054 112.646 209.815 110.413 207.085 110.413H190.422C187.686 110.413 185.453 112.646 185.453 115.382V132.052C185.453 134.788 187.692 137.021 190.422 137.021H207.085C209.822 137.021 212.054 134.782 212.054 132.052ZM248.826 132.052V115.382C248.826 112.646 246.586 110.413 243.856 110.413H227.193C224.457 110.413 222.224 112.646 222.224 115.382V132.052C222.224 134.788 224.464 137.021 227.193 137.021H243.856C246.593 137.021 248.826 134.782 248.826 132.052ZM285.564 132.052V115.382C285.564 112.646 283.324 110.413 280.595 110.413H263.932C261.195 110.413 258.963 112.646 258.963 115.382V132.052C258.963 134.788 261.202 137.021 263.932 137.021H280.595C283.331 137.021 285.564 134.782 285.564 132.052Z" fill="#8000FF"/>
</svg>
