<svg width="585" height="208" viewBox="0 0 585 208" fill="none" xmlns="http://www.w3.org/2000/svg">
<path d="M71.5337 1.5H528.669C559.531 1.5 584.5 25.1498 584.5 54.2652V153.625C584.5 182.74 559.531 206.39 528.669 206.39H71.5337C40.6726 206.39 15.7031 182.74 15.7031 153.625V54.2652C15.7031 25.1498 40.6726 1.5 71.5337 1.5Z" fill="#8000FF" stroke="#E6FF53"/>
<path d="M514.466 1H57.3306C26.2201 1 1 24.8477 1 54.2652V153.625C1 183.042 26.2201 206.89 57.3306 206.89H514.466C545.577 206.89 570.797 183.042 570.797 153.625V54.2652C570.797 24.8477 545.577 1 514.466 1Z" fill="white" stroke="#E6FF53" stroke-width="0.75" stroke-linecap="round" stroke-linejoin="round"/>
<path d="M91.3965 101.414V94.207H87.793V101.414H91.3965ZM77 123V87H102.189V108.604H87.793V123H77ZM120.189 115.811V94.207H116.586V115.811H120.189ZM105.793 123V87H130.982V123H105.793ZM148.982 101.414V94.207H145.379V101.414H148.982ZM134.586 123V87H159.775V101.414H156.172V105H159.775V123H148.982V108.604H145.379V123H134.586ZM170.568 123V94.207H163.379V87H188.568V94.207H181.379V123H170.568ZM192.172 123V87H202.965V94.207H206.568V101.414H213.758V94.207H217.361V87H228.172V123H217.361V108.604H213.758V115.811H206.568V108.604H202.965V123H192.172ZM231.758 123V87H242.551V123H231.758ZM246.172 123V87H256.965V115.811H267.758V123H246.172ZM271.379 123V87H282.172V97.8105H285.775V87H296.568V101.414H289.379V105H296.568V123H285.775V112.207H282.172V123H271.379Z" fill="black"/>
</svg>
