<svg width="585" height="208" viewBox="0 0 585 208" fill="none" xmlns="http://www.w3.org/2000/svg">
<path d="M71.5337 1.5H528.669C559.531 1.5 584.5 25.1498 584.5 54.2652V153.625C584.5 182.74 559.531 206.39 528.669 206.39H71.5337C40.6726 206.39 15.7031 182.74 15.7031 153.625V54.2652C15.7031 25.1498 40.6726 1.5 71.5337 1.5Z" fill="#8000FF" stroke="#E6FF53"/>
<path d="M514.466 1H57.3306C26.2201 1 1 24.8477 1 54.2652V153.625C1 183.042 26.2201 206.89 57.3306 206.89H514.466C545.577 206.89 570.797 183.042 570.797 153.625V54.2652C570.797 24.8477 545.577 1 514.466 1Z" fill="white" stroke="#E6FF53" stroke-width="0.75" stroke-linecap="round" stroke-linejoin="round"/>
</svg>
