<svg width="618" height="152" viewBox="0 0 618 152" fill="none" xmlns="http://www.w3.org/2000/svg">
<path d="M497.725 2H476V32.3609C476 51.4914 491.509 67 510.639 67H541V45.2807C541 21.3797 521.62 2 497.719 2H497.725Z" fill="#8000FF"/>
<path d="M497.725 150H476V119.639C476 100.509 491.509 85 510.639 85H541V106.719C541 130.62 521.62 150 497.719 150H497.725Z" fill="#8000FF"/>
<path d="M596.275 150H618V119.639C618 100.509 602.491 85 583.361 85H553V106.719C553 130.62 572.38 150 596.281 150H596.275Z" fill="#8000FF"/>
<path d="M596.275 2H618V32.3609C618 51.4914 602.491 67 583.361 67H553V45.2807C553 21.3797 572.38 2 596.281 2H596.275Z" fill="#8000FF"/>
<path d="M339.692 2H318V32.4158C318 51.5809 333.489 67.1175 352.595 67.1175H382.918V45.3589C382.918 21.4147 363.563 2 339.692 2ZM339.692 150H318V119.584C318 100.419 333.489 84.8825 352.595 84.8825H382.918V106.641C382.918 130.585 363.563 150 339.692 150ZM396.076 106.641V84.8825H426.399C445.505 84.8825 460.994 100.419 460.994 119.584V150H439.296C415.425 150 396.07 130.585 396.07 106.641H396.076ZM439.302 2H461V32.4158C461 51.5809 445.511 67.1175 426.405 67.1175H396.082V45.3589C396.082 21.4147 415.437 2 439.308 2H439.302Z" fill="#8000FF"/>
<path d="M183.246 82.1016H216.063V106.343C216.063 131.549 195.632 151.98 170.426 151.98H146.184V119.163C146.184 98.6907 162.78 82.1016 183.246 82.1016ZM151.557 146.601H170.426C181.552 146.601 191.598 142.096 198.895 134.812C206.185 127.515 210.684 117.469 210.684 106.343V87.4745H183.246C174.49 87.4745 166.585 91.0203 160.838 96.755C155.097 102.496 151.557 110.401 151.557 119.163V146.601Z" fill="#8000FF"/>
<path d="M293.641 119.163V151.98H269.4C244.193 151.98 223.769 131.549 223.763 106.343V82.1016H256.579C277.052 82.1016 293.641 98.6968 293.641 119.163ZM229.142 106.343C229.142 117.469 233.647 127.515 240.931 134.812C248.228 142.102 258.274 146.601 269.4 146.607H288.268V119.169C288.268 110.413 284.722 102.508 278.988 96.761C273.247 91.0203 265.341 87.4805 256.579 87.4805H229.142V106.349V106.343Z" fill="#8000FF"/>
<path d="M170.432 0.0060361C195.638 0.0060361 216.062 20.4364 216.068 45.6367V69.8781H183.252C162.786 69.8781 146.19 53.289 146.19 32.8165V0H170.432V0.0060361ZM160.844 55.2248C166.585 60.9595 174.49 64.5053 183.252 64.5053H210.69V45.6367C210.69 34.5109 206.185 24.4646 198.9 17.1681C191.604 9.87755 181.558 5.37898 170.432 5.37898H151.563V32.8165C151.563 41.5723 155.103 49.478 160.844 55.2187V55.2248Z" fill="#8000FF"/>
<path d="M269.394 0.00585938H293.635V32.8223C293.635 53.2889 277.04 69.878 256.573 69.884H223.757V45.6426C223.757 20.4423 244.187 0.0118955 269.394 0.0118955V0.00585938ZM229.136 64.5051H256.579C265.335 64.5051 273.241 60.9653 278.982 55.2246C284.722 49.4838 288.262 41.5782 288.262 32.8223V5.38484H269.394C258.268 5.38484 248.221 9.88944 240.925 17.1739C233.634 24.4705 229.136 34.5168 229.136 45.6426V64.5051Z" fill="#8000FF"/>
<path d="M13.3368 0.00603716C38.6359 0.00603716 59.1416 20.44 59.1416 45.6447V69.8903H26.2043C5.66232 69.8903 -10.9939 53.2983 -10.9939 32.8222V0H13.3368V0.00603716ZM3.71341 55.2344C9.47533 60.9701 17.4101 64.5165 26.1982 64.5165H53.7428V45.6447C53.7428 34.517 49.2216 24.4689 41.9103 17.1711C34.5869 9.87927 24.5035 5.37992 13.3368 5.37992H-5.59523V32.8222C-5.59523 41.5796 -2.04243 49.4866 3.71947 55.2284L3.71341 55.2344ZM26.1982 82.1097H59.1355V106.355C59.1355 131.566 38.6299 152 13.3307 152H-11V119.178C-11 98.7017 5.65021 82.1097 26.1982 82.1097ZM-5.60129 146.62H13.3368C24.5035 146.62 34.5869 142.115 41.9103 134.829C49.2277 127.531 53.7428 117.483 53.7428 106.355V87.4836H26.1982C17.4101 87.4836 9.47533 91.03 3.71341 96.7657C-2.04849 102.507 -5.60129 110.414 -5.60129 119.178V146.62ZM137 119.178V152H112.669C87.3701 152 66.8705 131.566 66.8645 106.355V82.1097H99.8018C120.35 82.1097 137 98.7078 137 119.178ZM72.2632 106.355C72.2632 117.483 76.7844 127.531 84.0957 134.829C91.4191 142.121 101.503 146.62 112.669 146.626H131.607V119.184C131.607 110.427 128.055 102.52 122.293 96.7717C116.531 91.03 108.596 87.4896 99.8018 87.4896H72.2632V106.361V106.355ZM112.669 0H137V32.8222C137 53.2983 120.344 69.8843 99.8018 69.8903H66.8645V45.6447C66.8645 20.44 87.3701 0.00603716 112.669 0.00603716V0ZM72.2632 64.5105H99.8018C108.59 64.5105 116.525 60.9701 122.293 55.2284C128.055 49.4866 131.607 41.5796 131.607 32.8222V5.37992H112.669C101.503 5.37992 91.4191 9.8853 84.0957 17.1711C76.7783 24.4689 72.2632 34.517 72.2632 45.6447V64.5165V64.5105Z" fill="#8000FF"/>
</svg>
