<svg width="585" height="207" viewBox="0 0 585 207" fill="none" xmlns="http://www.w3.org/2000/svg">
<path d="M71.5337 1.05493H528.669C559.531 1.05493 584.5 24.7047 584.5 53.8202V153.18C584.5 182.295 559.531 205.945 528.669 205.945H71.5337C40.6726 205.945 15.7031 182.295 15.7031 153.18V53.8202C15.7031 24.7047 40.6726 1.05493 71.5337 1.05493Z" fill="#8000FF" stroke="#E6FF53"/>
<path d="M514.466 0.554932H57.3306C26.2201 0.554932 1 24.4026 1 53.8202V153.18C1 182.597 26.2201 206.445 57.3306 206.445H514.466C545.577 206.445 570.797 182.597 570.797 153.18V53.8202C570.797 24.4026 545.577 0.554932 514.466 0.554932Z" fill="white" stroke="#E6FF53" stroke-width="0.75" stroke-linecap="round" stroke-linejoin="round"/>
<path d="M91.3965 100.414V93.207H87.793V100.414H91.3965ZM77 122V86H102.189V100.414H98.5859V104H102.189V122H91.3965V107.604H87.793V122H77ZM120.189 100.414V93.207H116.586V100.414H120.189ZM105.793 122V86H130.982V122H120.189V107.604H116.586V122H105.793ZM141.775 122V104H134.586V86H145.379V96.8105H148.982V86H159.775V104H152.586V122H141.775ZM163.379 122V86H188.568V93.207H174.172V100.414H184.965V107.604H174.172V114.811H188.568V122H163.379ZM199.361 122V114.811H195.758V107.604H192.172V86H202.965V100.414H206.568V86H217.361V107.604H213.758V114.811H210.172V122H199.361ZM220.965 122V114.811H235.361V107.604H220.965V86H246.154V93.207H231.758V100.414H246.154V122H220.965ZM249.758 122V86H260.551V96.8105H264.154V86H274.947V100.414H267.758V104H274.947V122H264.154V111.207H260.551V122H249.758ZM292.947 100.414V93.207H289.344V100.414H292.947ZM278.551 122V86H303.74V122H292.947V107.604H289.344V122H278.551ZM314.533 122V104H307.344V86H318.137V96.8105H321.74V86H332.533V104H325.344V122H314.533ZM350.533 100.414V93.207H346.93V100.414H350.533ZM336.137 122V86H361.326V122H350.533V107.604H346.93V122H336.137Z" fill="black"/>
</svg>
