<svg width="585" height="207" viewBox="0 0 585 207" fill="none" xmlns="http://www.w3.org/2000/svg">
<path d="M71.5337 1.05493H528.669C559.531 1.05493 584.5 24.7047 584.5 53.8202V153.18C584.5 182.295 559.531 205.945 528.669 205.945H71.5337C40.6726 205.945 15.7031 182.295 15.7031 153.18V53.8202C15.7031 24.7047 40.6726 1.05493 71.5337 1.05493Z" fill="#8000FF" stroke="#E6FF53"/>
<path d="M514.466 0.554932H57.3306C26.2201 0.554932 1 24.4026 1 53.8202V153.18C1 182.597 26.2201 206.445 57.3306 206.445H514.466C545.577 206.445 570.797 182.597 570.797 153.18V53.8202C570.797 24.4026 545.577 0.554932 514.466 0.554932Z" fill="white" stroke="#E6FF53" stroke-width="0.75" stroke-linecap="round" stroke-linejoin="round"/>
</svg>
