<svg width="585" height="208" viewBox="0 0 585 208" fill="none" xmlns="http://www.w3.org/2000/svg">
<path d="M71.5337 1.60986H528.669C559.531 1.60986 584.5 25.2597 584.5 54.3751V153.735C584.5 182.85 559.531 206.5 528.669 206.5H71.5337C40.6726 206.5 15.7031 182.85 15.7031 153.735V54.3751C15.7031 25.2597 40.6726 1.60986 71.5337 1.60986Z" fill="#8000FF" stroke="#E6FF53"/>
<path d="M514.466 1.10986H57.3306C26.2201 1.10986 1 24.9575 1 54.3751V153.735C1 183.152 26.2201 207 57.3306 207H514.466C545.577 207 570.797 183.152 570.797 153.735V54.3751C570.797 24.9575 545.577 1.10986 514.466 1.10986Z" fill="white" stroke="#E6FF53" stroke-width="0.75" stroke-linecap="round" stroke-linejoin="round"/>
</svg>
