<svg width="585" height="208" viewBox="0 0 585 208" fill="none" xmlns="http://www.w3.org/2000/svg">
<path d="M71.5337 1.60986H528.669C559.531 1.60986 584.5 25.2597 584.5 54.3751V153.735C584.5 182.85 559.531 206.5 528.669 206.5H71.5337C40.6726 206.5 15.7031 182.85 15.7031 153.735V54.3751C15.7031 25.2597 40.6726 1.60986 71.5337 1.60986Z" fill="#8000FF" stroke="#E6FF53"/>
<path d="M514.466 1.10986H57.3306C26.2201 1.10986 1 24.9575 1 54.3751V153.735C1 183.152 26.2201 207 57.3306 207H514.466C545.577 207 570.797 183.152 570.797 153.735V54.3751C570.797 24.9575 545.577 1.10986 514.466 1.10986Z" fill="white" stroke="#E6FF53" stroke-width="0.75" stroke-linecap="round" stroke-linejoin="round"/>
<path d="M91.3965 102.414V95.207H87.793V102.414H91.3965ZM77 124V88H102.189V102.414H98.5859V106H102.189V124H91.3965V109.604H87.793V124H77ZM120.189 116.811V95.207H116.586V116.811H120.189ZM105.793 124V88H130.982V124H105.793ZM148.982 102.414V95.207H145.379V102.414H148.982ZM134.586 124V88H159.775V124H148.982V109.604H145.379V124H134.586ZM163.379 124V116.811H177.775V109.604H163.379V88H188.568V95.207H174.172V102.414H188.568V124H163.379ZM199.361 124V95.207H192.172V88H217.361V95.207H210.172V124H199.361ZM220.965 124V88H246.154V95.207H231.758V102.414H242.551V109.604H231.758V116.811H246.154V124H220.965ZM264.154 102.414V95.207H260.551V102.414H264.154ZM249.758 124V88H274.947V102.414H271.344V106H274.947V124H264.154V109.604H260.551V124H249.758ZM285.74 124V106H278.551V88H289.344V98.8105H292.947V88H303.74V106H296.551V124H285.74Z" fill="black"/>
</svg>
