<svg width="775" height="62" viewBox="0 0 775 62" fill="none" xmlns="http://www.w3.org/2000/svg">
<path d="M51.8972 50.6251C44.9139 57.4295 35.5522 61.2391 25.7996 61.2391H0L48.4652 12.7739C56.641 4.59809 67.7321 0 79.3001 0H103.841L51.8972 50.6251ZM170.745 0H146.204C134.636 0 123.545 4.59146 115.369 12.7739L66.9038 61.2391H92.7034C102.456 61.2391 111.818 57.4295 118.801 50.6251L170.745 0ZM237.649 0H213.108C201.54 0 190.449 4.59146 182.273 12.7739L133.808 61.2391H159.607C169.36 61.2391 178.722 57.4295 185.705 50.6251L237.649 0ZM304.552 0H280.012C268.444 0 257.353 4.59146 249.177 12.7739L200.712 61.2391H226.511C236.264 61.2391 245.626 57.4295 252.609 50.6251L304.552 0ZM371.456 0H346.915C335.354 0 324.257 4.59146 316.081 12.7739L267.615 61.2391H293.415C303.168 61.2391 312.529 57.4295 319.513 50.6251L371.456 0ZM438.36 0H413.819C402.258 0 391.167 4.59146 382.985 12.7739L334.519 61.2391H360.319C370.071 61.2391 379.433 57.4295 386.416 50.6251L438.36 0ZM505.264 0H480.723C469.155 0 458.064 4.59146 449.888 12.7739L401.423 61.2391H427.223C436.975 61.2391 446.337 57.4295 453.32 50.6251L505.264 0ZM572.168 0H547.627C536.059 0 524.968 4.59146 516.792 12.7739L468.327 61.2391H494.126C503.879 61.2391 513.241 57.4295 520.224 50.6251L572.168 0ZM639.072 0H614.531C602.963 0 591.872 4.59146 583.696 12.7739L535.231 61.2391H561.03C570.783 61.2391 580.145 57.4295 587.128 50.6251L639.072 0ZM705.975 0H681.435C669.873 0 658.776 4.59146 650.6 12.7739L602.135 61.2391H627.934C637.687 61.2391 647.049 57.4295 654.032 50.6251L705.975 0ZM772.879 0H748.339C736.777 0 725.686 4.59146 717.504 12.7739L669.039 61.2391H694.838C704.591 61.2391 713.953 57.4295 720.936 50.6251L772.879 0ZM839.783 0H815.243C803.674 0 792.583 4.59146 784.408 12.7739L735.942 61.2391H761.742C771.495 61.2391 780.856 57.4295 787.84 50.6251L839.783 0ZM906.687 0H882.146C870.578 0 859.487 4.59146 851.312 12.7739L802.846 61.2391H828.646C838.398 61.2391 847.76 57.4295 854.743 50.6251L906.687 0ZM973.591 0H949.05C937.482 0 926.391 4.59146 918.215 12.7739L869.75 61.2391H895.55C905.302 61.2391 914.664 57.4295 921.647 50.6251L973.591 0ZM1040.49 0H1015.95C1004.39 0 993.295 4.59146 985.119 12.7739L936.654 61.2391H962.454C972.206 61.2391 981.568 57.4295 988.551 50.6251L1040.49 0ZM1107.4 0H1082.86C1071.3 0 1060.21 4.59146 1052.02 12.7739L1003.56 61.2391H1029.36C1039.11 61.2391 1048.47 57.4295 1055.45 50.6251L1107.4 0ZM1174.3 0H1149.76C1138.19 0 1127.1 4.59146 1118.93 12.7739L1070.46 61.2391H1096.26C1106.01 61.2391 1115.38 57.4295 1122.36 50.6251L1174.3 0ZM1241.21 0H1216.67C1205.1 0 1194.01 4.59146 1185.83 12.7739L1137.37 61.2391H1163.17C1172.92 61.2391 1182.28 57.4295 1189.26 50.6251L1241.21 0ZM1308.11 0H1283.57C1272 0 1260.91 4.59146 1252.73 12.7739L1204.27 61.2391H1230.07C1239.82 61.2391 1249.18 57.4295 1256.17 50.6251L1308.11 0ZM1375.01 0H1350.47C1338.91 0 1327.81 4.59146 1319.64 12.7739L1271.17 61.2391H1296.97C1306.73 61.2391 1316.09 57.4295 1323.07 50.6251L1375.01 0ZM1441.92 0H1417.38C1405.82 0 1394.72 4.59146 1386.54 12.7739L1338.08 61.2391H1363.88C1373.63 61.2391 1382.99 57.4295 1389.97 50.6251L1441.92 0Z" fill="url(#paint0_linear_105_236)" fill-opacity="0.5"/>
<defs>
<linearGradient id="paint0_linear_105_236" x1="0" y1="30.6196" x2="1441.92" y2="30.6196" gradientUnits="userSpaceOnUse">
<stop stop-color="#8000FF" stop-opacity="0.25"/>
<stop offset="1" stop-color="#8000FF"/>
</linearGradient>
</defs>
</svg>
