<?xml version="1.0" encoding="utf-8"?>
<!DOCTYPE svg PUBLIC "-//W3C//DTD SVG 1.1//EN" "http://www.w3.org/Graphics/SVG/1.1/DTD/svg11.dtd">
<svg version="1.1" id="Layer_1" xmlns="http://www.w3.org/2000/svg" xmlns:xlink="http://www.w3.org/1999/xlink" x="0px" y="0px"
width="232px" height="232px" viewBox="0 0 232 232" enable-background="new 0 0 232 232" xml:space="preserve">
<rect x="0" y="0" width="232" height="232" fill="rgb(255,255,255)" /><g transform="translate(16,16)"><g transform="translate(80,0) scale(0.08,0.08)"><g transform="" style="fill: rgb(0, 0, 0);">
<g>
	<circle cx="50" cy="50" r="30"/>
</g>
</g></g><g transform="translate(104,0) scale(0.08,0.08)"><g transform="" style="fill: rgb(0, 0, 0);">
<g>
	<circle cx="50" cy="50" r="30"/>
</g>
</g></g><g transform="translate(112,0) scale(0.08,0.08)"><g transform="" style="fill: rgb(0, 0, 0);">
<g>
	<circle cx="50" cy="50" r="30"/>
</g>
</g></g><g transform="translate(64,8) scale(0.08,0.08)"><g transform="" style="fill: rgb(0, 0, 0);">
<g>
	<circle cx="50" cy="50" r="30"/>
</g>
</g></g><g transform="translate(88,8) scale(0.08,0.08)"><g transform="" style="fill: rgb(0, 0, 0);">
<g>
	<circle cx="50" cy="50" r="30"/>
</g>
</g></g><g transform="translate(104,8) scale(0.08,0.08)"><g transform="" style="fill: rgb(0, 0, 0);">
<g>
	<circle cx="50" cy="50" r="30"/>
</g>
</g></g><g transform="translate(64,16) scale(0.08,0.08)"><g transform="" style="fill: rgb(0, 0, 0);">
<g>
	<circle cx="50" cy="50" r="30"/>
</g>
</g></g><g transform="translate(112,16) scale(0.08,0.08)"><g transform="" style="fill: rgb(0, 0, 0);">
<g>
	<circle cx="50" cy="50" r="30"/>
</g>
</g></g><g transform="translate(128,16) scale(0.08,0.08)"><g transform="" style="fill: rgb(0, 0, 0);">
<g>
	<circle cx="50" cy="50" r="30"/>
</g>
</g></g><g transform="translate(64,24) scale(0.08,0.08)"><g transform="" style="fill: rgb(0, 0, 0);">
<g>
	<circle cx="50" cy="50" r="30"/>
</g>
</g></g><g transform="translate(88,24) scale(0.08,0.08)"><g transform="" style="fill: rgb(0, 0, 0);">
<g>
	<circle cx="50" cy="50" r="30"/>
</g>
</g></g><g transform="translate(104,24) scale(0.08,0.08)"><g transform="" style="fill: rgb(0, 0, 0);">
<g>
	<circle cx="50" cy="50" r="30"/>
</g>
</g></g><g transform="translate(120,24) scale(0.08,0.08)"><g transform="" style="fill: rgb(0, 0, 0);">
<g>
	<circle cx="50" cy="50" r="30"/>
</g>
</g></g><g transform="translate(128,24) scale(0.08,0.08)"><g transform="" style="fill: rgb(0, 0, 0);">
<g>
	<circle cx="50" cy="50" r="30"/>
</g>
</g></g><g transform="translate(72,32) scale(0.08,0.08)"><g transform="" style="fill: rgb(0, 0, 0);">
<g>
	<circle cx="50" cy="50" r="30"/>
</g>
</g></g><g transform="translate(80,32) scale(0.08,0.08)"><g transform="" style="fill: rgb(0, 0, 0);">
<g>
	<circle cx="50" cy="50" r="30"/>
</g>
</g></g><g transform="translate(96,32) scale(0.08,0.08)"><g transform="" style="fill: rgb(0, 0, 0);">
<g>
	<circle cx="50" cy="50" r="30"/>
</g>
</g></g><g transform="translate(104,32) scale(0.08,0.08)"><g transform="" style="fill: rgb(0, 0, 0);">
<g>
	<circle cx="50" cy="50" r="30"/>
</g>
</g></g><g transform="translate(128,32) scale(0.08,0.08)"><g transform="" style="fill: rgb(0, 0, 0);">
<g>
	<circle cx="50" cy="50" r="30"/>
</g>
</g></g><g transform="translate(80,40) scale(0.08,0.08)"><g transform="" style="fill: rgb(0, 0, 0);">
<g>
	<circle cx="50" cy="50" r="30"/>
</g>
</g></g><g transform="translate(88,40) scale(0.08,0.08)"><g transform="" style="fill: rgb(0, 0, 0);">
<g>
	<circle cx="50" cy="50" r="30"/>
</g>
</g></g><g transform="translate(128,40) scale(0.08,0.08)"><g transform="" style="fill: rgb(0, 0, 0);">
<g>
	<circle cx="50" cy="50" r="30"/>
</g>
</g></g><g transform="translate(64,48) scale(0.08,0.08)"><g transform="" style="fill: rgb(0, 0, 0);">
<g>
	<circle cx="50" cy="50" r="30"/>
</g>
</g></g><g transform="translate(80,48) scale(0.08,0.08)"><g transform="" style="fill: rgb(0, 0, 0);">
<g>
	<circle cx="50" cy="50" r="30"/>
</g>
</g></g><g transform="translate(96,48) scale(0.08,0.08)"><g transform="" style="fill: rgb(0, 0, 0);">
<g>
	<circle cx="50" cy="50" r="30"/>
</g>
</g></g><g transform="translate(112,48) scale(0.08,0.08)"><g transform="" style="fill: rgb(0, 0, 0);">
<g>
	<circle cx="50" cy="50" r="30"/>
</g>
</g></g><g transform="translate(128,48) scale(0.08,0.08)"><g transform="" style="fill: rgb(0, 0, 0);">
<g>
	<circle cx="50" cy="50" r="30"/>
</g>
</g></g><g transform="translate(64,56) scale(0.08,0.08)"><g transform="" style="fill: rgb(0, 0, 0);">
<g>
	<circle cx="50" cy="50" r="30"/>
</g>
</g></g><g transform="translate(80,56) scale(0.08,0.08)"><g transform="" style="fill: rgb(0, 0, 0);">
<g>
	<circle cx="50" cy="50" r="30"/>
</g>
</g></g><g transform="translate(0,64) scale(0.08,0.08)"><g transform="" style="fill: rgb(0, 0, 0);">
<g>
	<circle cx="50" cy="50" r="30"/>
</g>
</g></g><g transform="translate(48,64) scale(0.08,0.08)"><g transform="" style="fill: rgb(0, 0, 0);">
<g>
	<circle cx="50" cy="50" r="30"/>
</g>
</g></g><g transform="translate(64,64) scale(0.08,0.08)"><g transform="" style="fill: rgb(0, 0, 0);">
<g>
	<circle cx="50" cy="50" r="30"/>
</g>
</g></g><g transform="translate(80,64) scale(0.08,0.08)"><g transform="" style="fill: rgb(0, 0, 0);">
<g>
	<circle cx="50" cy="50" r="30"/>
</g>
</g></g><g transform="translate(88,64) scale(0.08,0.08)"><g transform="" style="fill: rgb(0, 0, 0);">
<g>
	<circle cx="50" cy="50" r="30"/>
</g>
</g></g><g transform="translate(104,64) scale(0.08,0.08)"><g transform="" style="fill: rgb(0, 0, 0);">
<g>
	<circle cx="50" cy="50" r="30"/>
</g>
</g></g><g transform="translate(112,64) scale(0.08,0.08)"><g transform="" style="fill: rgb(0, 0, 0);">
<g>
	<circle cx="50" cy="50" r="30"/>
</g>
</g></g><g transform="translate(136,64) scale(0.08,0.08)"><g transform="" style="fill: rgb(0, 0, 0);">
<g>
	<circle cx="50" cy="50" r="30"/>
</g>
</g></g><g transform="translate(144,64) scale(0.08,0.08)"><g transform="" style="fill: rgb(0, 0, 0);">
<g>
	<circle cx="50" cy="50" r="30"/>
</g>
</g></g><g transform="translate(168,64) scale(0.08,0.08)"><g transform="" style="fill: rgb(0, 0, 0);">
<g>
	<circle cx="50" cy="50" r="30"/>
</g>
</g></g><g transform="translate(176,64) scale(0.08,0.08)"><g transform="" style="fill: rgb(0, 0, 0);">
<g>
	<circle cx="50" cy="50" r="30"/>
</g>
</g></g><g transform="translate(184,64) scale(0.08,0.08)"><g transform="" style="fill: rgb(0, 0, 0);">
<g>
	<circle cx="50" cy="50" r="30"/>
</g>
</g></g><g transform="translate(0,72) scale(0.08,0.08)"><g transform="" style="fill: rgb(0, 0, 0);">
<g>
	<circle cx="50" cy="50" r="30"/>
</g>
</g></g><g transform="translate(8,72) scale(0.08,0.08)"><g transform="" style="fill: rgb(0, 0, 0);">
<g>
	<circle cx="50" cy="50" r="30"/>
</g>
</g></g><g transform="translate(16,72) scale(0.08,0.08)"><g transform="" style="fill: rgb(0, 0, 0);">
<g>
	<circle cx="50" cy="50" r="30"/>
</g>
</g></g><g transform="translate(24,72) scale(0.08,0.08)"><g transform="" style="fill: rgb(0, 0, 0);">
<g>
	<circle cx="50" cy="50" r="30"/>
</g>
</g></g><g transform="translate(32,72) scale(0.08,0.08)"><g transform="" style="fill: rgb(0, 0, 0);">
<g>
	<circle cx="50" cy="50" r="30"/>
</g>
</g></g><g transform="translate(56,72) scale(0.08,0.08)"><g transform="" style="fill: rgb(0, 0, 0);">
<g>
	<circle cx="50" cy="50" r="30"/>
</g>
</g></g><g transform="translate(112,72) scale(0.08,0.08)"><g transform="" style="fill: rgb(0, 0, 0);">
<g>
	<circle cx="50" cy="50" r="30"/>
</g>
</g></g><g transform="translate(120,72) scale(0.08,0.08)"><g transform="" style="fill: rgb(0, 0, 0);">
<g>
	<circle cx="50" cy="50" r="30"/>
</g>
</g></g><g transform="translate(160,72) scale(0.08,0.08)"><g transform="" style="fill: rgb(0, 0, 0);">
<g>
	<circle cx="50" cy="50" r="30"/>
</g>
</g></g><g transform="translate(168,72) scale(0.08,0.08)"><g transform="" style="fill: rgb(0, 0, 0);">
<g>
	<circle cx="50" cy="50" r="30"/>
</g>
</g></g><g transform="translate(176,72) scale(0.08,0.08)"><g transform="" style="fill: rgb(0, 0, 0);">
<g>
	<circle cx="50" cy="50" r="30"/>
</g>
</g></g><g transform="translate(184,72) scale(0.08,0.08)"><g transform="" style="fill: rgb(0, 0, 0);">
<g>
	<circle cx="50" cy="50" r="30"/>
</g>
</g></g><g transform="translate(16,80) scale(0.08,0.08)"><g transform="" style="fill: rgb(0, 0, 0);">
<g>
	<circle cx="50" cy="50" r="30"/>
</g>
</g></g><g transform="translate(40,80) scale(0.08,0.08)"><g transform="" style="fill: rgb(0, 0, 0);">
<g>
	<circle cx="50" cy="50" r="30"/>
</g>
</g></g><g transform="translate(48,80) scale(0.08,0.08)"><g transform="" style="fill: rgb(0, 0, 0);">
<g>
	<circle cx="50" cy="50" r="30"/>
</g>
</g></g><g transform="translate(64,80) scale(0.08,0.08)"><g transform="" style="fill: rgb(0, 0, 0);">
<g>
	<circle cx="50" cy="50" r="30"/>
</g>
</g></g><g transform="translate(72,80) scale(0.08,0.08)"><g transform="" style="fill: rgb(0, 0, 0);">
<g>
	<circle cx="50" cy="50" r="30"/>
</g>
</g></g><g transform="translate(80,80) scale(0.08,0.08)"><g transform="" style="fill: rgb(0, 0, 0);">
<g>
	<circle cx="50" cy="50" r="30"/>
</g>
</g></g><g transform="translate(96,80) scale(0.08,0.08)"><g transform="" style="fill: rgb(0, 0, 0);">
<g>
	<circle cx="50" cy="50" r="30"/>
</g>
</g></g><g transform="translate(112,80) scale(0.08,0.08)"><g transform="" style="fill: rgb(0, 0, 0);">
<g>
	<circle cx="50" cy="50" r="30"/>
</g>
</g></g><g transform="translate(120,80) scale(0.08,0.08)"><g transform="" style="fill: rgb(0, 0, 0);">
<g>
	<circle cx="50" cy="50" r="30"/>
</g>
</g></g><g transform="translate(128,80) scale(0.08,0.08)"><g transform="" style="fill: rgb(0, 0, 0);">
<g>
	<circle cx="50" cy="50" r="30"/>
</g>
</g></g><g transform="translate(136,80) scale(0.08,0.08)"><g transform="" style="fill: rgb(0, 0, 0);">
<g>
	<circle cx="50" cy="50" r="30"/>
</g>
</g></g><g transform="translate(168,80) scale(0.08,0.08)"><g transform="" style="fill: rgb(0, 0, 0);">
<g>
	<circle cx="50" cy="50" r="30"/>
</g>
</g></g><g transform="translate(184,80) scale(0.08,0.08)"><g transform="" style="fill: rgb(0, 0, 0);">
<g>
	<circle cx="50" cy="50" r="30"/>
</g>
</g></g><g transform="translate(192,80) scale(0.08,0.08)"><g transform="" style="fill: rgb(0, 0, 0);">
<g>
	<circle cx="50" cy="50" r="30"/>
</g>
</g></g><g transform="translate(0,88) scale(0.08,0.08)"><g transform="" style="fill: rgb(0, 0, 0);">
<g>
	<circle cx="50" cy="50" r="30"/>
</g>
</g></g><g transform="translate(8,88) scale(0.08,0.08)"><g transform="" style="fill: rgb(0, 0, 0);">
<g>
	<circle cx="50" cy="50" r="30"/>
</g>
</g></g><g transform="translate(16,88) scale(0.08,0.08)"><g transform="" style="fill: rgb(0, 0, 0);">
<g>
	<circle cx="50" cy="50" r="30"/>
</g>
</g></g><g transform="translate(32,88) scale(0.08,0.08)"><g transform="" style="fill: rgb(0, 0, 0);">
<g>
	<circle cx="50" cy="50" r="30"/>
</g>
</g></g><g transform="translate(40,88) scale(0.08,0.08)"><g transform="" style="fill: rgb(0, 0, 0);">
<g>
	<circle cx="50" cy="50" r="30"/>
</g>
</g></g><g transform="translate(56,88) scale(0.08,0.08)"><g transform="" style="fill: rgb(0, 0, 0);">
<g>
	<circle cx="50" cy="50" r="30"/>
</g>
</g></g><g transform="translate(72,88) scale(0.08,0.08)"><g transform="" style="fill: rgb(0, 0, 0);">
<g>
	<circle cx="50" cy="50" r="30"/>
</g>
</g></g><g transform="translate(80,88) scale(0.08,0.08)"><g transform="" style="fill: rgb(0, 0, 0);">
<g>
	<circle cx="50" cy="50" r="30"/>
</g>
</g></g><g transform="translate(88,88) scale(0.08,0.08)"><g transform="" style="fill: rgb(0, 0, 0);">
<g>
	<circle cx="50" cy="50" r="30"/>
</g>
</g></g><g transform="translate(96,88) scale(0.08,0.08)"><g transform="" style="fill: rgb(0, 0, 0);">
<g>
	<circle cx="50" cy="50" r="30"/>
</g>
</g></g><g transform="translate(112,88) scale(0.08,0.08)"><g transform="" style="fill: rgb(0, 0, 0);">
<g>
	<circle cx="50" cy="50" r="30"/>
</g>
</g></g><g transform="translate(152,88) scale(0.08,0.08)"><g transform="" style="fill: rgb(0, 0, 0);">
<g>
	<circle cx="50" cy="50" r="30"/>
</g>
</g></g><g transform="translate(168,88) scale(0.08,0.08)"><g transform="" style="fill: rgb(0, 0, 0);">
<g>
	<circle cx="50" cy="50" r="30"/>
</g>
</g></g><g transform="translate(192,88) scale(0.08,0.08)"><g transform="" style="fill: rgb(0, 0, 0);">
<g>
	<circle cx="50" cy="50" r="30"/>
</g>
</g></g><g transform="translate(0,96) scale(0.08,0.08)"><g transform="" style="fill: rgb(0, 0, 0);">
<g>
	<circle cx="50" cy="50" r="30"/>
</g>
</g></g><g transform="translate(8,96) scale(0.08,0.08)"><g transform="" style="fill: rgb(0, 0, 0);">
<g>
	<circle cx="50" cy="50" r="30"/>
</g>
</g></g><g transform="translate(16,96) scale(0.08,0.08)"><g transform="" style="fill: rgb(0, 0, 0);">
<g>
	<circle cx="50" cy="50" r="30"/>
</g>
</g></g><g transform="translate(24,96) scale(0.08,0.08)"><g transform="" style="fill: rgb(0, 0, 0);">
<g>
	<circle cx="50" cy="50" r="30"/>
</g>
</g></g><g transform="translate(32,96) scale(0.08,0.08)"><g transform="" style="fill: rgb(0, 0, 0);">
<g>
	<circle cx="50" cy="50" r="30"/>
</g>
</g></g><g transform="translate(48,96) scale(0.08,0.08)"><g transform="" style="fill: rgb(0, 0, 0);">
<g>
	<circle cx="50" cy="50" r="30"/>
</g>
</g></g><g transform="translate(64,96) scale(0.08,0.08)"><g transform="" style="fill: rgb(0, 0, 0);">
<g>
	<circle cx="50" cy="50" r="30"/>
</g>
</g></g><g transform="translate(72,96) scale(0.08,0.08)"><g transform="" style="fill: rgb(0, 0, 0);">
<g>
	<circle cx="50" cy="50" r="30"/>
</g>
</g></g><g transform="translate(96,96) scale(0.08,0.08)"><g transform="" style="fill: rgb(0, 0, 0);">
<g>
	<circle cx="50" cy="50" r="30"/>
</g>
</g></g><g transform="translate(120,96) scale(0.08,0.08)"><g transform="" style="fill: rgb(0, 0, 0);">
<g>
	<circle cx="50" cy="50" r="30"/>
</g>
</g></g><g transform="translate(128,96) scale(0.08,0.08)"><g transform="" style="fill: rgb(0, 0, 0);">
<g>
	<circle cx="50" cy="50" r="30"/>
</g>
</g></g><g transform="translate(144,96) scale(0.08,0.08)"><g transform="" style="fill: rgb(0, 0, 0);">
<g>
	<circle cx="50" cy="50" r="30"/>
</g>
</g></g><g transform="translate(192,96) scale(0.08,0.08)"><g transform="" style="fill: rgb(0, 0, 0);">
<g>
	<circle cx="50" cy="50" r="30"/>
</g>
</g></g><g transform="translate(0,104) scale(0.08,0.08)"><g transform="" style="fill: rgb(0, 0, 0);">
<g>
	<circle cx="50" cy="50" r="30"/>
</g>
</g></g><g transform="translate(24,104) scale(0.08,0.08)"><g transform="" style="fill: rgb(0, 0, 0);">
<g>
	<circle cx="50" cy="50" r="30"/>
</g>
</g></g><g transform="translate(40,104) scale(0.08,0.08)"><g transform="" style="fill: rgb(0, 0, 0);">
<g>
	<circle cx="50" cy="50" r="30"/>
</g>
</g></g><g transform="translate(56,104) scale(0.08,0.08)"><g transform="" style="fill: rgb(0, 0, 0);">
<g>
	<circle cx="50" cy="50" r="30"/>
</g>
</g></g><g transform="translate(64,104) scale(0.08,0.08)"><g transform="" style="fill: rgb(0, 0, 0);">
<g>
	<circle cx="50" cy="50" r="30"/>
</g>
</g></g><g transform="translate(112,104) scale(0.08,0.08)"><g transform="" style="fill: rgb(0, 0, 0);">
<g>
	<circle cx="50" cy="50" r="30"/>
</g>
</g></g><g transform="translate(120,104) scale(0.08,0.08)"><g transform="" style="fill: rgb(0, 0, 0);">
<g>
	<circle cx="50" cy="50" r="30"/>
</g>
</g></g><g transform="translate(128,104) scale(0.08,0.08)"><g transform="" style="fill: rgb(0, 0, 0);">
<g>
	<circle cx="50" cy="50" r="30"/>
</g>
</g></g><g transform="translate(152,104) scale(0.08,0.08)"><g transform="" style="fill: rgb(0, 0, 0);">
<g>
	<circle cx="50" cy="50" r="30"/>
</g>
</g></g><g transform="translate(184,104) scale(0.08,0.08)"><g transform="" style="fill: rgb(0, 0, 0);">
<g>
	<circle cx="50" cy="50" r="30"/>
</g>
</g></g><g transform="translate(0,112) scale(0.08,0.08)"><g transform="" style="fill: rgb(0, 0, 0);">
<g>
	<circle cx="50" cy="50" r="30"/>
</g>
</g></g><g transform="translate(16,112) scale(0.08,0.08)"><g transform="" style="fill: rgb(0, 0, 0);">
<g>
	<circle cx="50" cy="50" r="30"/>
</g>
</g></g><g transform="translate(24,112) scale(0.08,0.08)"><g transform="" style="fill: rgb(0, 0, 0);">
<g>
	<circle cx="50" cy="50" r="30"/>
</g>
</g></g><g transform="translate(32,112) scale(0.08,0.08)"><g transform="" style="fill: rgb(0, 0, 0);">
<g>
	<circle cx="50" cy="50" r="30"/>
</g>
</g></g><g transform="translate(40,112) scale(0.08,0.08)"><g transform="" style="fill: rgb(0, 0, 0);">
<g>
	<circle cx="50" cy="50" r="30"/>
</g>
</g></g><g transform="translate(48,112) scale(0.08,0.08)"><g transform="" style="fill: rgb(0, 0, 0);">
<g>
	<circle cx="50" cy="50" r="30"/>
</g>
</g></g><g transform="translate(56,112) scale(0.08,0.08)"><g transform="" style="fill: rgb(0, 0, 0);">
<g>
	<circle cx="50" cy="50" r="30"/>
</g>
</g></g><g transform="translate(80,112) scale(0.08,0.08)"><g transform="" style="fill: rgb(0, 0, 0);">
<g>
	<circle cx="50" cy="50" r="30"/>
</g>
</g></g><g transform="translate(88,112) scale(0.08,0.08)"><g transform="" style="fill: rgb(0, 0, 0);">
<g>
	<circle cx="50" cy="50" r="30"/>
</g>
</g></g><g transform="translate(96,112) scale(0.08,0.08)"><g transform="" style="fill: rgb(0, 0, 0);">
<g>
	<circle cx="50" cy="50" r="30"/>
</g>
</g></g><g transform="translate(104,112) scale(0.08,0.08)"><g transform="" style="fill: rgb(0, 0, 0);">
<g>
	<circle cx="50" cy="50" r="30"/>
</g>
</g></g><g transform="translate(120,112) scale(0.08,0.08)"><g transform="" style="fill: rgb(0, 0, 0);">
<g>
	<circle cx="50" cy="50" r="30"/>
</g>
</g></g><g transform="translate(136,112) scale(0.08,0.08)"><g transform="" style="fill: rgb(0, 0, 0);">
<g>
	<circle cx="50" cy="50" r="30"/>
</g>
</g></g><g transform="translate(152,112) scale(0.08,0.08)"><g transform="" style="fill: rgb(0, 0, 0);">
<g>
	<circle cx="50" cy="50" r="30"/>
</g>
</g></g><g transform="translate(160,112) scale(0.08,0.08)"><g transform="" style="fill: rgb(0, 0, 0);">
<g>
	<circle cx="50" cy="50" r="30"/>
</g>
</g></g><g transform="translate(168,112) scale(0.08,0.08)"><g transform="" style="fill: rgb(0, 0, 0);">
<g>
	<circle cx="50" cy="50" r="30"/>
</g>
</g></g><g transform="translate(184,112) scale(0.08,0.08)"><g transform="" style="fill: rgb(0, 0, 0);">
<g>
	<circle cx="50" cy="50" r="30"/>
</g>
</g></g><g transform="translate(192,112) scale(0.08,0.08)"><g transform="" style="fill: rgb(0, 0, 0);">
<g>
	<circle cx="50" cy="50" r="30"/>
</g>
</g></g><g transform="translate(0,120) scale(0.08,0.08)"><g transform="" style="fill: rgb(0, 0, 0);">
<g>
	<circle cx="50" cy="50" r="30"/>
</g>
</g></g><g transform="translate(24,120) scale(0.08,0.08)"><g transform="" style="fill: rgb(0, 0, 0);">
<g>
	<circle cx="50" cy="50" r="30"/>
</g>
</g></g><g transform="translate(40,120) scale(0.08,0.08)"><g transform="" style="fill: rgb(0, 0, 0);">
<g>
	<circle cx="50" cy="50" r="30"/>
</g>
</g></g><g transform="translate(56,120) scale(0.08,0.08)"><g transform="" style="fill: rgb(0, 0, 0);">
<g>
	<circle cx="50" cy="50" r="30"/>
</g>
</g></g><g transform="translate(64,120) scale(0.08,0.08)"><g transform="" style="fill: rgb(0, 0, 0);">
<g>
	<circle cx="50" cy="50" r="30"/>
</g>
</g></g><g transform="translate(88,120) scale(0.08,0.08)"><g transform="" style="fill: rgb(0, 0, 0);">
<g>
	<circle cx="50" cy="50" r="30"/>
</g>
</g></g><g transform="translate(112,120) scale(0.08,0.08)"><g transform="" style="fill: rgb(0, 0, 0);">
<g>
	<circle cx="50" cy="50" r="30"/>
</g>
</g></g><g transform="translate(120,120) scale(0.08,0.08)"><g transform="" style="fill: rgb(0, 0, 0);">
<g>
	<circle cx="50" cy="50" r="30"/>
</g>
</g></g><g transform="translate(128,120) scale(0.08,0.08)"><g transform="" style="fill: rgb(0, 0, 0);">
<g>
	<circle cx="50" cy="50" r="30"/>
</g>
</g></g><g transform="translate(136,120) scale(0.08,0.08)"><g transform="" style="fill: rgb(0, 0, 0);">
<g>
	<circle cx="50" cy="50" r="30"/>
</g>
</g></g><g transform="translate(144,120) scale(0.08,0.08)"><g transform="" style="fill: rgb(0, 0, 0);">
<g>
	<circle cx="50" cy="50" r="30"/>
</g>
</g></g><g transform="translate(152,120) scale(0.08,0.08)"><g transform="" style="fill: rgb(0, 0, 0);">
<g>
	<circle cx="50" cy="50" r="30"/>
</g>
</g></g><g transform="translate(168,120) scale(0.08,0.08)"><g transform="" style="fill: rgb(0, 0, 0);">
<g>
	<circle cx="50" cy="50" r="30"/>
</g>
</g></g><g transform="translate(176,120) scale(0.08,0.08)"><g transform="" style="fill: rgb(0, 0, 0);">
<g>
	<circle cx="50" cy="50" r="30"/>
</g>
</g></g><g transform="translate(192,120) scale(0.08,0.08)"><g transform="" style="fill: rgb(0, 0, 0);">
<g>
	<circle cx="50" cy="50" r="30"/>
</g>
</g></g><g transform="translate(0,128) scale(0.08,0.08)"><g transform="" style="fill: rgb(0, 0, 0);">
<g>
	<circle cx="50" cy="50" r="30"/>
</g>
</g></g><g transform="translate(16,128) scale(0.08,0.08)"><g transform="" style="fill: rgb(0, 0, 0);">
<g>
	<circle cx="50" cy="50" r="30"/>
</g>
</g></g><g transform="translate(40,128) scale(0.08,0.08)"><g transform="" style="fill: rgb(0, 0, 0);">
<g>
	<circle cx="50" cy="50" r="30"/>
</g>
</g></g><g transform="translate(48,128) scale(0.08,0.08)"><g transform="" style="fill: rgb(0, 0, 0);">
<g>
	<circle cx="50" cy="50" r="30"/>
</g>
</g></g><g transform="translate(56,128) scale(0.08,0.08)"><g transform="" style="fill: rgb(0, 0, 0);">
<g>
	<circle cx="50" cy="50" r="30"/>
</g>
</g></g><g transform="translate(64,128) scale(0.08,0.08)"><g transform="" style="fill: rgb(0, 0, 0);">
<g>
	<circle cx="50" cy="50" r="30"/>
</g>
</g></g><g transform="translate(80,128) scale(0.08,0.08)"><g transform="" style="fill: rgb(0, 0, 0);">
<g>
	<circle cx="50" cy="50" r="30"/>
</g>
</g></g><g transform="translate(88,128) scale(0.08,0.08)"><g transform="" style="fill: rgb(0, 0, 0);">
<g>
	<circle cx="50" cy="50" r="30"/>
</g>
</g></g><g transform="translate(120,128) scale(0.08,0.08)"><g transform="" style="fill: rgb(0, 0, 0);">
<g>
	<circle cx="50" cy="50" r="30"/>
</g>
</g></g><g transform="translate(128,128) scale(0.08,0.08)"><g transform="" style="fill: rgb(0, 0, 0);">
<g>
	<circle cx="50" cy="50" r="30"/>
</g>
</g></g><g transform="translate(136,128) scale(0.08,0.08)"><g transform="" style="fill: rgb(0, 0, 0);">
<g>
	<circle cx="50" cy="50" r="30"/>
</g>
</g></g><g transform="translate(144,128) scale(0.08,0.08)"><g transform="" style="fill: rgb(0, 0, 0);">
<g>
	<circle cx="50" cy="50" r="30"/>
</g>
</g></g><g transform="translate(152,128) scale(0.08,0.08)"><g transform="" style="fill: rgb(0, 0, 0);">
<g>
	<circle cx="50" cy="50" r="30"/>
</g>
</g></g><g transform="translate(160,128) scale(0.08,0.08)"><g transform="" style="fill: rgb(0, 0, 0);">
<g>
	<circle cx="50" cy="50" r="30"/>
</g>
</g></g><g transform="translate(176,128) scale(0.08,0.08)"><g transform="" style="fill: rgb(0, 0, 0);">
<g>
	<circle cx="50" cy="50" r="30"/>
</g>
</g></g><g transform="translate(64,136) scale(0.08,0.08)"><g transform="" style="fill: rgb(0, 0, 0);">
<g>
	<circle cx="50" cy="50" r="30"/>
</g>
</g></g><g transform="translate(80,136) scale(0.08,0.08)"><g transform="" style="fill: rgb(0, 0, 0);">
<g>
	<circle cx="50" cy="50" r="30"/>
</g>
</g></g><g transform="translate(96,136) scale(0.08,0.08)"><g transform="" style="fill: rgb(0, 0, 0);">
<g>
	<circle cx="50" cy="50" r="30"/>
</g>
</g></g><g transform="translate(104,136) scale(0.08,0.08)"><g transform="" style="fill: rgb(0, 0, 0);">
<g>
	<circle cx="50" cy="50" r="30"/>
</g>
</g></g><g transform="translate(120,136) scale(0.08,0.08)"><g transform="" style="fill: rgb(0, 0, 0);">
<g>
	<circle cx="50" cy="50" r="30"/>
</g>
</g></g><g transform="translate(128,136) scale(0.08,0.08)"><g transform="" style="fill: rgb(0, 0, 0);">
<g>
	<circle cx="50" cy="50" r="30"/>
</g>
</g></g><g transform="translate(160,136) scale(0.08,0.08)"><g transform="" style="fill: rgb(0, 0, 0);">
<g>
	<circle cx="50" cy="50" r="30"/>
</g>
</g></g><g transform="translate(72,144) scale(0.08,0.08)"><g transform="" style="fill: rgb(0, 0, 0);">
<g>
	<circle cx="50" cy="50" r="30"/>
</g>
</g></g><g transform="translate(88,144) scale(0.08,0.08)"><g transform="" style="fill: rgb(0, 0, 0);">
<g>
	<circle cx="50" cy="50" r="30"/>
</g>
</g></g><g transform="translate(128,144) scale(0.08,0.08)"><g transform="" style="fill: rgb(0, 0, 0);">
<g>
	<circle cx="50" cy="50" r="30"/>
</g>
</g></g><g transform="translate(144,144) scale(0.08,0.08)"><g transform="" style="fill: rgb(0, 0, 0);">
<g>
	<circle cx="50" cy="50" r="30"/>
</g>
</g></g><g transform="translate(160,144) scale(0.08,0.08)"><g transform="" style="fill: rgb(0, 0, 0);">
<g>
	<circle cx="50" cy="50" r="30"/>
</g>
</g></g><g transform="translate(192,144) scale(0.08,0.08)"><g transform="" style="fill: rgb(0, 0, 0);">
<g>
	<circle cx="50" cy="50" r="30"/>
</g>
</g></g><g transform="translate(72,152) scale(0.08,0.08)"><g transform="" style="fill: rgb(0, 0, 0);">
<g>
	<circle cx="50" cy="50" r="30"/>
</g>
</g></g><g transform="translate(96,152) scale(0.08,0.08)"><g transform="" style="fill: rgb(0, 0, 0);">
<g>
	<circle cx="50" cy="50" r="30"/>
</g>
</g></g><g transform="translate(104,152) scale(0.08,0.08)"><g transform="" style="fill: rgb(0, 0, 0);">
<g>
	<circle cx="50" cy="50" r="30"/>
</g>
</g></g><g transform="translate(120,152) scale(0.08,0.08)"><g transform="" style="fill: rgb(0, 0, 0);">
<g>
	<circle cx="50" cy="50" r="30"/>
</g>
</g></g><g transform="translate(128,152) scale(0.08,0.08)"><g transform="" style="fill: rgb(0, 0, 0);">
<g>
	<circle cx="50" cy="50" r="30"/>
</g>
</g></g><g transform="translate(160,152) scale(0.08,0.08)"><g transform="" style="fill: rgb(0, 0, 0);">
<g>
	<circle cx="50" cy="50" r="30"/>
</g>
</g></g><g transform="translate(184,152) scale(0.08,0.08)"><g transform="" style="fill: rgb(0, 0, 0);">
<g>
	<circle cx="50" cy="50" r="30"/>
</g>
</g></g><g transform="translate(192,152) scale(0.08,0.08)"><g transform="" style="fill: rgb(0, 0, 0);">
<g>
	<circle cx="50" cy="50" r="30"/>
</g>
</g></g><g transform="translate(72,160) scale(0.08,0.08)"><g transform="" style="fill: rgb(0, 0, 0);">
<g>
	<circle cx="50" cy="50" r="30"/>
</g>
</g></g><g transform="translate(80,160) scale(0.08,0.08)"><g transform="" style="fill: rgb(0, 0, 0);">
<g>
	<circle cx="50" cy="50" r="30"/>
</g>
</g></g><g transform="translate(96,160) scale(0.08,0.08)"><g transform="" style="fill: rgb(0, 0, 0);">
<g>
	<circle cx="50" cy="50" r="30"/>
</g>
</g></g><g transform="translate(112,160) scale(0.08,0.08)"><g transform="" style="fill: rgb(0, 0, 0);">
<g>
	<circle cx="50" cy="50" r="30"/>
</g>
</g></g><g transform="translate(120,160) scale(0.08,0.08)"><g transform="" style="fill: rgb(0, 0, 0);">
<g>
	<circle cx="50" cy="50" r="30"/>
</g>
</g></g><g transform="translate(128,160) scale(0.08,0.08)"><g transform="" style="fill: rgb(0, 0, 0);">
<g>
	<circle cx="50" cy="50" r="30"/>
</g>
</g></g><g transform="translate(136,160) scale(0.08,0.08)"><g transform="" style="fill: rgb(0, 0, 0);">
<g>
	<circle cx="50" cy="50" r="30"/>
</g>
</g></g><g transform="translate(144,160) scale(0.08,0.08)"><g transform="" style="fill: rgb(0, 0, 0);">
<g>
	<circle cx="50" cy="50" r="30"/>
</g>
</g></g><g transform="translate(152,160) scale(0.08,0.08)"><g transform="" style="fill: rgb(0, 0, 0);">
<g>
	<circle cx="50" cy="50" r="30"/>
</g>
</g></g><g transform="translate(160,160) scale(0.08,0.08)"><g transform="" style="fill: rgb(0, 0, 0);">
<g>
	<circle cx="50" cy="50" r="30"/>
</g>
</g></g><g transform="translate(176,160) scale(0.08,0.08)"><g transform="" style="fill: rgb(0, 0, 0);">
<g>
	<circle cx="50" cy="50" r="30"/>
</g>
</g></g><g transform="translate(184,160) scale(0.08,0.08)"><g transform="" style="fill: rgb(0, 0, 0);">
<g>
	<circle cx="50" cy="50" r="30"/>
</g>
</g></g><g transform="translate(192,160) scale(0.08,0.08)"><g transform="" style="fill: rgb(0, 0, 0);">
<g>
	<circle cx="50" cy="50" r="30"/>
</g>
</g></g><g transform="translate(80,168) scale(0.08,0.08)"><g transform="" style="fill: rgb(0, 0, 0);">
<g>
	<circle cx="50" cy="50" r="30"/>
</g>
</g></g><g transform="translate(112,168) scale(0.08,0.08)"><g transform="" style="fill: rgb(0, 0, 0);">
<g>
	<circle cx="50" cy="50" r="30"/>
</g>
</g></g><g transform="translate(120,168) scale(0.08,0.08)"><g transform="" style="fill: rgb(0, 0, 0);">
<g>
	<circle cx="50" cy="50" r="30"/>
</g>
</g></g><g transform="translate(136,168) scale(0.08,0.08)"><g transform="" style="fill: rgb(0, 0, 0);">
<g>
	<circle cx="50" cy="50" r="30"/>
</g>
</g></g><g transform="translate(144,168) scale(0.08,0.08)"><g transform="" style="fill: rgb(0, 0, 0);">
<g>
	<circle cx="50" cy="50" r="30"/>
</g>
</g></g><g transform="translate(184,168) scale(0.08,0.08)"><g transform="" style="fill: rgb(0, 0, 0);">
<g>
	<circle cx="50" cy="50" r="30"/>
</g>
</g></g><g transform="translate(192,168) scale(0.08,0.08)"><g transform="" style="fill: rgb(0, 0, 0);">
<g>
	<circle cx="50" cy="50" r="30"/>
</g>
</g></g><g transform="translate(80,176) scale(0.08,0.08)"><g transform="" style="fill: rgb(0, 0, 0);">
<g>
	<circle cx="50" cy="50" r="30"/>
</g>
</g></g><g transform="translate(88,176) scale(0.08,0.08)"><g transform="" style="fill: rgb(0, 0, 0);">
<g>
	<circle cx="50" cy="50" r="30"/>
</g>
</g></g><g transform="translate(96,176) scale(0.08,0.08)"><g transform="" style="fill: rgb(0, 0, 0);">
<g>
	<circle cx="50" cy="50" r="30"/>
</g>
</g></g><g transform="translate(128,176) scale(0.08,0.08)"><g transform="" style="fill: rgb(0, 0, 0);">
<g>
	<circle cx="50" cy="50" r="30"/>
</g>
</g></g><g transform="translate(168,176) scale(0.08,0.08)"><g transform="" style="fill: rgb(0, 0, 0);">
<g>
	<circle cx="50" cy="50" r="30"/>
</g>
</g></g><g transform="translate(176,176) scale(0.08,0.08)"><g transform="" style="fill: rgb(0, 0, 0);">
<g>
	<circle cx="50" cy="50" r="30"/>
</g>
</g></g><g transform="translate(192,176) scale(0.08,0.08)"><g transform="" style="fill: rgb(0, 0, 0);">
<g>
	<circle cx="50" cy="50" r="30"/>
</g>
</g></g><g transform="translate(72,184) scale(0.08,0.08)"><g transform="" style="fill: rgb(0, 0, 0);">
<g>
	<circle cx="50" cy="50" r="30"/>
</g>
</g></g><g transform="translate(80,184) scale(0.08,0.08)"><g transform="" style="fill: rgb(0, 0, 0);">
<g>
	<circle cx="50" cy="50" r="30"/>
</g>
</g></g><g transform="translate(88,184) scale(0.08,0.08)"><g transform="" style="fill: rgb(0, 0, 0);">
<g>
	<circle cx="50" cy="50" r="30"/>
</g>
</g></g><g transform="translate(112,184) scale(0.08,0.08)"><g transform="" style="fill: rgb(0, 0, 0);">
<g>
	<circle cx="50" cy="50" r="30"/>
</g>
</g></g><g transform="translate(128,184) scale(0.08,0.08)"><g transform="" style="fill: rgb(0, 0, 0);">
<g>
	<circle cx="50" cy="50" r="30"/>
</g>
</g></g><g transform="translate(136,184) scale(0.08,0.08)"><g transform="" style="fill: rgb(0, 0, 0);">
<g>
	<circle cx="50" cy="50" r="30"/>
</g>
</g></g><g transform="translate(144,184) scale(0.08,0.08)"><g transform="" style="fill: rgb(0, 0, 0);">
<g>
	<circle cx="50" cy="50" r="30"/>
</g>
</g></g><g transform="translate(152,184) scale(0.08,0.08)"><g transform="" style="fill: rgb(0, 0, 0);">
<g>
	<circle cx="50" cy="50" r="30"/>
</g>
</g></g><g transform="translate(160,184) scale(0.08,0.08)"><g transform="" style="fill: rgb(0, 0, 0);">
<g>
	<circle cx="50" cy="50" r="30"/>
</g>
</g></g><g transform="translate(192,184) scale(0.08,0.08)"><g transform="" style="fill: rgb(0, 0, 0);">
<g>
	<circle cx="50" cy="50" r="30"/>
</g>
</g></g><g transform="translate(64,192) scale(0.08,0.08)"><g transform="" style="fill: rgb(0, 0, 0);">
<g>
	<circle cx="50" cy="50" r="30"/>
</g>
</g></g><g transform="translate(72,192) scale(0.08,0.08)"><g transform="" style="fill: rgb(0, 0, 0);">
<g>
	<circle cx="50" cy="50" r="30"/>
</g>
</g></g><g transform="translate(80,192) scale(0.08,0.08)"><g transform="" style="fill: rgb(0, 0, 0);">
<g>
	<circle cx="50" cy="50" r="30"/>
</g>
</g></g><g transform="translate(104,192) scale(0.08,0.08)"><g transform="" style="fill: rgb(0, 0, 0);">
<g>
	<circle cx="50" cy="50" r="30"/>
</g>
</g></g><g transform="translate(112,192) scale(0.08,0.08)"><g transform="" style="fill: rgb(0, 0, 0);">
<g>
	<circle cx="50" cy="50" r="30"/>
</g>
</g></g><g transform="translate(120,192) scale(0.08,0.08)"><g transform="" style="fill: rgb(0, 0, 0);">
<g>
	<circle cx="50" cy="50" r="30"/>
</g>
</g></g><g transform="translate(128,192) scale(0.08,0.08)"><g transform="" style="fill: rgb(0, 0, 0);">
<g>
	<circle cx="50" cy="50" r="30"/>
</g>
</g></g><g transform="translate(144,192) scale(0.08,0.08)"><g transform="" style="fill: rgb(0, 0, 0);">
<g>
	<circle cx="50" cy="50" r="30"/>
</g>
</g></g><g transform="translate(168,192) scale(0.08,0.08)"><g transform="" style="fill: rgb(0, 0, 0);">
<g>
	<circle cx="50" cy="50" r="30"/>
</g>
</g></g><g transform="translate(192,192) scale(0.08,0.08)"><g transform="" style="fill: rgb(0, 0, 0);">
<g>
	<circle cx="50" cy="50" r="30"/>
</g>
</g></g><g transform="translate(0,0) scale(0.56, 0.56)"><g transform=" translate(100, 0) scale(-1,1) " style="fill: rgb(0, 0, 0);">
<g>
	<path style="fill:none;" d="M85,66.221V33.75C85,23.411,76.414,15,65.859,15H34.14C23.586,15,15,23.411,15,33.75v51.246
		l50.855-0.016C76.414,84.98,85,76.564,85,66.221z"/>
	<path d="M100,66.221V33.75C100,15.141,84.68,0,65.859,0H34.14C15.32,0,0,15.141,0,33.75V100l65.859-0.02
		C84.68,99.98,100,84.84,100,66.221z M85,66.221c0,10.344-8.586,18.76-19.145,18.76L15,84.996V33.75C15,23.411,23.586,15,34.14,15
		h31.719C76.414,15,85,23.411,85,33.75V66.221z"/>
</g>
</g></g><g transform="translate(144,0) scale(0.56, 0.56)"><g transform="" style="fill: rgb(0, 0, 0);">
<g>
	<path style="fill:none;" d="M85,66.221V33.75C85,23.411,76.414,15,65.859,15H34.14C23.586,15,15,23.411,15,33.75v51.246
		l50.855-0.016C76.414,84.98,85,76.564,85,66.221z"/>
	<path d="M100,66.221V33.75C100,15.141,84.68,0,65.859,0H34.14C15.32,0,0,15.141,0,33.75V100l65.859-0.02
		C84.68,99.98,100,84.84,100,66.221z M85,66.221c0,10.344-8.586,18.76-19.145,18.76L15,84.996V33.75C15,23.411,23.586,15,34.14,15
		h31.719C76.414,15,85,23.411,85,33.75V66.221z"/>
</g>
</g></g><g transform="translate(0,144) scale(0.56, 0.56)"><g transform=" translate(100, 0) scale(-1,1)  translate(0,100) scale(1,-1) " style="fill: rgb(0, 0, 0);">
<g>
	<path style="fill:none;" d="M85,66.221V33.75C85,23.411,76.414,15,65.859,15H34.14C23.586,15,15,23.411,15,33.75v51.246
		l50.855-0.016C76.414,84.98,85,76.564,85,66.221z"/>
	<path d="M100,66.221V33.75C100,15.141,84.68,0,65.859,0H34.14C15.32,0,0,15.141,0,33.75V100l65.859-0.02
		C84.68,99.98,100,84.84,100,66.221z M85,66.221c0,10.344-8.586,18.76-19.145,18.76L15,84.996V33.75C15,23.411,23.586,15,34.14,15
		h31.719C76.414,15,85,23.411,85,33.75V66.221z"/>
</g>
</g></g><g transform="translate(16,16) scale(0.24, 0.24)"><g transform=" translate(100, 0) scale(-1,1) " style="fill: rgb(0, 0, 0);">
<path d="M100,72.779V27.195C100,12.203,87.604,0,72.37,0H27.63C12.397,0,0,12.203,0,27.195V100l72.37-0.042
	C87.604,99.958,100,87.771,100,72.779z"/>
</g></g><g transform="translate(160,16) scale(0.24, 0.24)"><g transform="" style="fill: rgb(0, 0, 0);">
<path d="M100,72.779V27.195C100,12.203,87.604,0,72.37,0H27.63C12.397,0,0,12.203,0,27.195V100l72.37-0.042
	C87.604,99.958,100,87.771,100,72.779z"/>
</g></g><g transform="translate(16,160) scale(0.24, 0.24)"><g transform=" translate(100, 0) scale(-1,1)  translate(0,100) scale(1,-1) " style="fill: rgb(0, 0, 0);">
<path d="M100,72.779V27.195C100,12.203,87.604,0,72.37,0H27.63C12.397,0,0,12.203,0,27.195V100l72.37-0.042
	C87.604,99.958,100,87.771,100,72.779z"/>
</g></g></g></svg>