<svg width="373" height="88" viewBox="0 0 373 88" fill="none" xmlns="http://www.w3.org/2000/svg">
<path d="M84.0007 11.3262C78.8394 9.7891 74.7648 5.68795 73.2343 0.486971C73.0422 -0.162324 72.1213 -0.162324 71.9291 0.486971C70.3986 5.69458 66.3306 9.79573 61.1628 11.3262C60.5135 11.5183 60.5135 12.4393 61.1628 12.6314C66.324 14.1685 70.3986 18.2697 71.9291 23.4707C72.1213 24.12 73.0422 24.12 73.2343 23.4707C74.7582 18.2631 78.8328 14.1619 84.0007 12.6314C84.65 12.4393 84.65 11.5183 84.0007 11.3262Z" fill="#8000FF"/>
<path d="M326.751 11.3262C321.589 9.7891 317.515 5.68795 315.984 0.486971C315.792 -0.162324 314.871 -0.162324 314.679 0.486971C313.149 5.69458 309.081 9.79573 303.913 11.3262C303.263 11.5183 303.263 12.4393 303.913 12.6314C309.074 14.1685 313.149 18.2697 314.679 23.4707C314.871 24.12 315.792 24.12 315.984 23.4707C317.508 18.2631 321.583 14.1619 326.751 12.6314C327.4 12.4393 327.4 11.5183 326.751 11.3262Z" fill="#8000FF"/>
<path d="M362.237 12.6314C367.398 14.1685 371.473 18.2697 373.003 23.4707C373.195 24.12 374.116 24.12 374.308 23.4707C375.839 18.2631 379.907 14.1619 385.075 12.6314C385.724 12.4393 385.724 11.5183 385.075 11.3262C379.913 9.7891 375.839 5.68795 374.308 0.486971C374.116 -0.162324 373.195 -0.162324 373.003 0.486971C371.473 5.69458 367.405 9.79573 362.237 11.3262C361.587 11.5183 361.587 12.4393 362.237 12.6314Z" fill="#8000FF"/>
<path d="M205.373 12.7709C200.211 11.2338 196.137 7.13266 194.606 1.93167C194.414 1.28238 193.493 1.28238 193.301 1.93167C191.77 7.13928 187.702 11.2404 182.535 12.7709C181.885 12.963 181.885 13.884 182.535 14.0761C187.696 15.6132 191.77 19.7144 193.301 24.9154C193.493 25.5647 194.414 25.5647 194.606 24.9154C196.13 19.7144 200.205 15.6066 205.373 14.0761C206.022 13.884 206.022 12.963 205.373 12.7709Z" fill="#8000FF"/>
<path d="M23.3116 11.3262C18.1504 9.7891 14.0758 5.68795 12.5519 0.486971C12.3598 -0.162324 11.4388 -0.162324 11.2467 0.486971C9.72285 5.69458 5.6482 9.79573 0.486971 11.3262C-0.162324 11.5183 -0.162324 12.4393 0.486971 12.6314C5.6482 14.1685 9.72285 18.2697 11.2467 23.4707C11.4388 24.12 12.3598 24.12 12.5519 23.4707C14.0758 18.2631 18.1504 14.1619 23.3116 12.6314C23.9609 12.4393 23.9609 11.5183 23.3116 11.3262Z" fill="#8000FF"/>
<path d="M266.062 11.3262C260.9 9.7891 256.826 5.68795 255.302 0.486971C255.11 -0.162324 254.189 -0.162324 253.997 0.486971C252.473 5.69458 248.398 9.79573 243.237 11.3262C242.588 11.5183 242.588 12.4393 243.237 12.6314C248.398 14.1685 252.473 18.2697 253.997 23.4707C254.189 24.12 255.11 24.12 255.302 23.4707C256.832 18.2631 260.9 14.1619 266.062 12.6314C266.711 12.4393 266.711 11.5183 266.062 11.3262Z" fill="#8000FF"/>
<path d="M144.683 12.7709C139.522 11.2338 135.447 7.13266 133.923 1.93167C133.731 1.28238 132.81 1.28238 132.618 1.93167C131.088 7.13928 127.02 11.2404 121.859 12.7709C121.209 12.963 121.209 13.884 121.859 14.0761C127.02 15.6132 131.094 19.7144 132.618 24.9154C132.81 25.5647 133.731 25.5647 133.923 24.9154C135.447 19.7144 139.522 15.6066 144.683 14.0761C145.333 13.884 145.333 12.963 144.683 12.7709Z" fill="#8000FF"/>
<path d="M84.0007 73.0494C78.8394 71.5122 74.7648 67.4111 73.2343 62.2101C73.0422 61.5608 72.1213 61.5608 71.9291 62.2101C70.3986 67.4111 66.3306 71.5189 61.1628 73.0494C60.5135 73.2415 60.5135 74.1624 61.1628 74.3546C66.324 75.8917 70.3986 79.9928 71.9291 85.1938C72.1213 85.8431 73.0422 85.8431 73.2343 85.1938C74.7582 79.9862 78.8328 75.8851 84.0007 74.3546C84.65 74.1624 84.65 73.2415 84.0007 73.0494Z" fill="#8000FF"/>
<path d="M326.751 73.0494C321.589 71.5122 317.515 67.4111 315.984 62.2101C315.792 61.5608 314.871 61.5608 314.679 62.2101C313.149 67.4111 309.081 71.5189 303.913 73.0494C303.263 73.2415 303.263 74.1624 303.913 74.3546C309.074 75.8917 313.149 79.9928 314.679 85.1938C314.871 85.8431 315.792 85.8431 315.984 85.1938C317.508 79.9862 321.583 75.8851 326.751 74.3546C327.4 74.1624 327.4 73.2415 326.751 73.0494Z" fill="#8000FF"/>
<path d="M385.068 73.0494C379.907 71.5122 375.832 67.4111 374.302 62.2101C374.11 61.5608 373.189 61.5608 372.997 62.2101C371.466 67.4111 367.398 71.5189 362.23 73.0494C361.581 73.2415 361.581 74.1624 362.23 74.3546C367.391 75.8917 371.466 79.9928 372.997 85.1938C373.189 85.8431 374.11 85.8431 374.302 85.1938C375.832 79.9862 379.9 75.8851 385.068 74.3546C385.717 74.1624 385.717 73.2415 385.068 73.0494Z" fill="#8000FF"/>
<path d="M205.373 74.4934C200.211 72.9563 196.137 68.8552 194.606 63.6542C194.414 63.0049 193.493 63.0049 193.301 63.6542C191.77 68.8618 187.702 72.963 182.535 74.4934C181.885 74.6856 181.885 75.6065 182.535 75.7987C187.696 77.3358 191.77 81.4369 193.301 86.6379C193.493 87.2872 194.414 87.2872 194.606 86.6379C196.13 81.4303 200.205 77.3292 205.373 75.7987C206.022 75.6065 206.022 74.6856 205.373 74.4934Z" fill="#8000FF"/>
<path d="M23.3116 73.0494C18.1504 71.5122 14.0758 67.4111 12.5519 62.2101C12.3598 61.5608 11.4388 61.5608 11.2467 62.2101C9.72285 67.4111 5.6482 71.5189 0.486971 73.0494C-0.162324 73.2415 -0.162324 74.1624 0.486971 74.3546C5.6482 75.8917 9.72285 79.9928 11.2467 85.1938C11.4388 85.8431 12.3598 85.8431 12.5519 85.1938C14.0758 79.9862 18.1504 75.8851 23.3116 74.3546C23.9609 74.1624 23.9609 73.2415 23.3116 73.0494Z" fill="#8000FF"/>
<path d="M266.062 73.0494C260.9 71.5122 256.826 67.4111 255.302 62.2101C255.11 61.5608 254.189 61.5608 253.997 62.2101C252.473 67.4111 248.398 71.5189 243.237 73.0494C242.588 73.2415 242.588 74.1624 243.237 74.3546C248.398 75.8917 252.473 79.9928 253.997 85.1938C254.189 85.8431 255.11 85.8431 255.302 85.1938C256.832 79.9862 260.9 75.8851 266.062 74.3546C266.711 74.1624 266.711 73.2415 266.062 73.0494Z" fill="#8000FF"/>
<path d="M144.683 74.4934C139.522 72.9563 135.447 68.8552 133.923 63.6542C133.731 63.0049 132.81 63.0049 132.618 63.6542C131.088 68.8618 127.02 72.963 121.859 74.4934C121.209 74.6856 121.209 75.6065 121.859 75.7987C127.02 77.3358 131.094 81.4369 132.618 86.6379C132.81 87.2872 133.731 87.2872 133.923 86.6379C135.447 81.4303 139.522 77.3292 144.683 75.7987C145.333 75.6065 145.333 74.6856 144.683 74.4934Z" fill="#8000FF"/>
</svg>
