<svg width="314" height="88" viewBox="0 0 314 88" fill="none" xmlns="http://www.w3.org/2000/svg">
<path d="M12.0007 11.3262C6.83945 9.7891 2.76479 5.68795 1.23431 0.486971C1.04218 -0.162324 0.121256 -0.162324 -0.0708818 0.486971C-1.60136 5.69458 -5.66939 9.79573 -10.8372 11.3262C-11.4865 11.5183 -11.4865 12.4393 -10.8372 12.6314C-5.67602 14.1685 -1.60136 18.2697 -0.0708818 23.4707C0.121256 24.12 1.04218 24.12 1.23431 23.4707C2.75817 18.2631 6.83282 14.1619 12.0007 12.6314C12.65 12.4393 12.65 11.5183 12.0007 11.3262Z" fill="#8000FF"/>
<path d="M254.751 11.3262C249.59 9.7891 245.515 5.68795 243.984 0.486971C243.792 -0.162324 242.871 -0.162324 242.679 0.486971C241.149 5.69458 237.081 9.79573 231.913 11.3262C231.264 11.5183 231.264 12.4393 231.913 12.6314C237.074 14.1685 241.149 18.2697 242.679 23.4707C242.871 24.12 243.792 24.12 243.984 23.4707C245.508 18.2631 249.583 14.1619 254.751 12.6314C255.4 12.4393 255.4 11.5183 254.751 11.3262Z" fill="#8000FF"/>
<path d="M290.237 12.6314C295.398 14.1685 299.473 18.2697 301.003 23.4707C301.195 24.12 302.116 24.12 302.308 23.4707C303.839 18.2631 307.907 14.1619 313.075 12.6314C313.724 12.4393 313.724 11.5183 313.075 11.3262C307.914 9.7891 303.839 5.68795 302.308 0.486971C302.116 -0.162324 301.195 -0.162324 301.003 0.486971C299.473 5.69458 295.405 9.79573 290.237 11.3262C289.588 11.5183 289.588 12.4393 290.237 12.6314Z" fill="#8000FF"/>
<path d="M133.372 12.7708C128.211 11.2337 124.137 7.13253 122.606 1.93155C122.414 1.28226 121.493 1.28226 121.301 1.93155C119.77 7.13916 115.702 11.2403 110.534 12.7708C109.885 12.9629 109.885 13.8838 110.534 14.076C115.696 15.6131 119.77 19.7143 121.301 24.9153C121.493 25.5646 122.414 25.5646 122.606 24.9153C124.13 19.7143 128.205 15.6065 133.372 14.076C134.022 13.8838 134.022 12.9629 133.372 12.7708Z" fill="#8000FF"/>
<path d="M194.062 11.3262C188.9 9.7891 184.826 5.68795 183.302 0.486971C183.11 -0.162324 182.189 -0.162324 181.997 0.486971C180.473 5.69458 176.398 9.79573 171.237 11.3262C170.588 11.5183 170.588 12.4393 171.237 12.6314C176.398 14.1685 180.473 18.2697 181.997 23.4707C182.189 24.12 183.11 24.12 183.302 23.4707C184.832 18.2631 188.9 14.1619 194.062 12.6314C194.711 12.4393 194.711 11.5183 194.062 11.3262Z" fill="#8000FF"/>
<path d="M72.6833 12.7708C67.5221 11.2337 63.4475 7.13253 61.9236 1.93155C61.7315 1.28226 60.8105 1.28226 60.6184 1.93155C59.0879 7.13916 55.0199 11.2403 49.8587 12.7708C49.2094 12.9629 49.2094 13.8838 49.8587 14.076C55.0199 15.6131 59.0946 19.7143 60.6184 24.9153C60.8105 25.5646 61.7315 25.5646 61.9236 24.9153C63.4475 19.7143 67.5221 15.6065 72.6833 14.076C73.3326 13.8838 73.3326 12.9629 72.6833 12.7708Z" fill="#8000FF"/>
<path d="M12.0007 73.0494C6.83945 71.5122 2.76479 67.4111 1.23431 62.2101C1.04218 61.5608 0.121256 61.5608 -0.0708818 62.2101C-1.60136 67.4111 -5.66939 71.5189 -10.8372 73.0494C-11.4865 73.2415 -11.4865 74.1624 -10.8372 74.3546C-5.67602 75.8917 -1.60136 79.9928 -0.0708818 85.1938C0.121256 85.8431 1.04218 85.8431 1.23431 85.1938C2.75817 79.9862 6.83282 75.8851 12.0007 74.3546C12.65 74.1624 12.65 73.2415 12.0007 73.0494Z" fill="#8000FF"/>
<path d="M254.751 73.0494C249.59 71.5122 245.515 67.4111 243.984 62.2101C243.792 61.5608 242.871 61.5608 242.679 62.2101C241.149 67.4111 237.081 71.5189 231.913 73.0494C231.264 73.2415 231.264 74.1624 231.913 74.3546C237.074 75.8917 241.149 79.9928 242.679 85.1938C242.871 85.8431 243.792 85.8431 243.984 85.1938C245.508 79.9862 249.583 75.8851 254.751 74.3546C255.4 74.1624 255.4 73.2415 254.751 73.0494Z" fill="#8000FF"/>
<path d="M313.068 73.0494C307.907 71.5122 303.832 67.4111 302.302 62.2101C302.11 61.5608 301.189 61.5608 300.997 62.2101C299.466 67.4111 295.398 71.5189 290.23 73.0494C289.581 73.2415 289.581 74.1624 290.23 74.3546C295.391 75.8917 299.466 79.9928 300.997 85.1938C301.189 85.8431 302.11 85.8431 302.302 85.1938C303.832 79.9862 307.9 75.8851 313.068 74.3546C313.717 74.1624 313.717 73.2415 313.068 73.0494Z" fill="#8000FF"/>
<path d="M133.372 74.4934C128.211 72.9563 124.137 68.8552 122.606 63.6542C122.414 63.0049 121.493 63.0049 121.301 63.6542C119.77 68.8618 115.702 72.963 110.534 74.4934C109.885 74.6856 109.885 75.6065 110.534 75.7987C115.696 77.3358 119.77 81.4369 121.301 86.6379C121.493 87.2872 122.414 87.2872 122.606 86.6379C124.13 81.4303 128.205 77.3292 133.372 75.7987C134.022 75.6065 134.022 74.6856 133.372 74.4934Z" fill="#8000FF"/>
<path d="M194.062 73.0494C188.9 71.5122 184.826 67.4111 183.302 62.2101C183.11 61.5608 182.189 61.5608 181.997 62.2101C180.473 67.4111 176.398 71.5189 171.237 73.0494C170.588 73.2415 170.588 74.1625 171.237 74.3546C176.398 75.8917 180.473 79.9928 181.997 85.1938C182.189 85.8431 183.11 85.8431 183.302 85.1938C184.832 79.9862 188.9 75.8851 194.062 74.3546C194.711 74.1625 194.711 73.2415 194.062 73.0494Z" fill="#8000FF"/>
<path d="M72.6833 74.4934C67.5221 72.9563 63.4475 68.8552 61.9236 63.6542C61.7315 63.0049 60.8105 63.0049 60.6184 63.6542C59.0879 68.8618 55.0199 72.963 49.8587 74.4934C49.2094 74.6856 49.2094 75.6065 49.8587 75.7987C55.0199 77.3358 59.0946 81.4369 60.6184 86.6379C60.8105 87.2872 61.7315 87.2872 61.9236 86.6379C63.4475 81.4303 67.5221 77.3292 72.6833 75.7987C73.3326 75.6065 73.3326 74.6856 72.6833 74.4934Z" fill="#8000FF"/>
</svg>
