<svg width="107" height="107" viewBox="0 0 107 107" fill="none" xmlns="http://www.w3.org/2000/svg">
<g clip-path="url(#clip0_221_62)">
<path fill-rule="evenodd" clip-rule="evenodd" d="M0 11.5C0 5.14873 5.14873 0 11.5 0H24.3425H82.711H95.5C101.851 0 107 5.14873 107 11.5V24.3425V27.178V79.822V82.711V95.5C107 101.851 101.851 107 95.5 107H82.6575H24.289H11.5C5.14873 107 0 101.851 0 95.5V82.6575V79.822V27.178V24.289V11.5ZM36.38 86.135C41.9929 89.2619 48.3055 90.9183 54.7305 90.95C62.3117 90.8972 69.7077 88.6022 75.9871 84.354C82.2665 80.1059 87.1484 74.0946 90.018 67.0773C92.8875 60.0599 93.6164 52.3504 92.1128 44.9196C90.6092 37.4888 86.9404 30.6691 81.5684 25.3194C76.1964 19.9697 69.3615 16.3293 61.9246 14.8566C54.4876 13.3839 46.7811 14.1449 39.7758 17.0436C32.7705 19.9423 26.7795 24.8491 22.5575 31.1461C18.3355 37.4431 16.0713 44.8487 16.05 52.43C16.1034 59.1758 17.9499 65.786 21.4 71.583L16.05 91.485L36.38 86.135ZM38.627 24.3425C43.4966 21.4334 49.005 20.1809 54.677 20.116C63.1905 20.116 71.3552 23.498 77.3751 29.5179C83.3951 35.5378 86.777 43.7026 86.777 52.216C86.777 60.7295 83.3951 68.8942 77.3751 74.9141C71.3552 80.9341 63.1905 84.316 54.677 84.316C49.0295 84.2735 43.4932 82.7418 38.627 79.8755L37.45 79.18L25.252 82.497L28.462 70.7805L27.713 69.55C24.7535 64.7108 23.1292 59.1739 23.0055 53.5028C22.8817 47.8318 24.2629 42.2292 27.0084 37.2655C29.7539 32.3019 33.7574 27.2516 38.627 24.3425ZM70.7014 69.2473C71.8165 68.464 72.7548 67.4553 73.4555 66.2865V66.126C73.9331 64.7895 74.062 63.3532 73.83 61.953C73.6134 61.6064 73.1862 61.4001 72.5201 61.0785C72.3637 61.003 72.1941 60.9211 72.011 60.8295C71.048 60.348 66.2865 58.0475 65.4305 57.7265C64.5745 57.4055 63.9325 57.245 63.2905 58.208C62.6485 59.171 60.776 61.525 60.241 61.953C59.706 62.381 59.1175 62.4345 58.1545 61.953C55.3345 60.8153 52.7292 59.205 50.4505 57.1915C48.358 55.2484 46.5562 53.0142 45.1005 50.5575C44.5655 49.5945 45.1005 49.0595 45.5285 48.6315C45.8574 48.3026 46.2495 47.8158 46.6319 47.3409C46.7471 47.1978 46.8615 47.0558 46.973 46.9195C47.3747 46.4372 47.6995 45.8959 47.936 45.3145C48.0675 45.0578 48.136 44.7736 48.136 44.4852C48.136 44.1969 48.0675 43.9127 47.936 43.656C47.8009 43.4127 47.2287 42.0224 46.5991 40.4923C45.9824 38.9937 45.3106 37.3611 44.94 36.5405C44.191 34.882 43.3885 34.882 42.8 34.882H41.302C40.8154 34.8876 40.3355 34.9953 39.8931 35.198C39.4508 35.4007 39.0559 35.6941 38.734 36.059C37.6413 37.0858 36.7765 38.3308 36.1959 39.7133C35.6152 41.0958 35.3316 42.5849 35.3635 44.084C35.6748 47.6928 37.0321 51.1325 39.269 53.9815C43.3855 60.1308 49.026 65.1077 55.64 68.4265C57.381 69.2108 59.1675 69.8897 60.99 70.4595C62.927 71.0706 64.984 71.1992 66.982 70.834C68.3192 70.5712 69.5863 70.0307 70.7014 69.2473Z" fill="#E6FF53"/>
</g>
<defs>
<clipPath id="clip0_221_62">
<rect width="107" height="107" fill="white"/>
</clipPath>
</defs>
</svg>
