<svg width="884" height="143" viewBox="0 0 884 143" fill="none" xmlns="http://www.w3.org/2000/svg">
<path d="M320.594 0H303.924C299.545 0.0132509 296.013 3.54459 296 7.92402V24.5937C296.013 28.9731 299.545 32.5045 303.924 32.5177H320.594C324.966 32.5045 328.504 28.9731 328.518 24.5937V7.92402C328.504 3.54459 324.966 0.0132509 320.594 0ZM322.608 24.5871C322.608 25.137 322.389 25.6273 322.012 26.0049C321.634 26.3826 321.144 26.6012 320.587 26.6012H303.917C303.361 26.6012 302.871 26.3826 302.493 26.0049C302.115 25.6273 301.897 25.137 301.897 24.5804V7.91084C301.897 7.36092 302.115 6.87062 302.493 6.48635C302.871 6.11532 303.361 5.89004 303.917 5.89004H320.587C321.137 5.89004 321.627 6.1087 322.012 6.48635C322.389 6.864 322.608 7.3543 322.608 7.91084V24.5804V24.5871Z" fill="#8000FF"/>
<path d="M357.332 0H340.662C336.283 0.0132509 332.752 3.54459 332.738 7.92402V24.5937C332.752 28.9731 336.283 32.5045 340.662 32.5177H357.332V29.5694V32.5243C361.711 32.5111 365.243 28.9797 365.256 24.6003V7.93065C365.243 3.55122 361.711 0.0198828 357.332 0.00663193V0ZM359.346 24.5871C359.346 25.137 359.127 25.6339 358.75 26.0115C358.372 26.3892 357.882 26.6079 357.325 26.6079H340.656C340.099 26.6079 339.609 26.3892 339.231 26.0115C338.854 25.6339 338.635 25.1436 338.635 24.5871V7.91739C338.635 7.36747 338.854 6.87726 339.231 6.49298C339.609 6.12195 340.099 5.89667 340.656 5.89667H357.325C357.882 5.89667 358.372 6.11533 358.75 6.49298C359.127 6.87063 359.346 7.36085 359.346 7.91739V24.5871Z" fill="#8000FF"/>
<path d="M394.097 0H377.427C373.048 0.0132509 369.516 3.54459 369.503 7.92402V24.5937C369.516 28.9731 373.048 32.5045 377.427 32.5177H394.097C398.476 32.5045 402.007 28.9731 402.021 24.5937V7.92402C402.007 3.54459 398.476 0.0132509 394.097 0ZM396.117 24.5871C396.117 25.137 395.899 25.6339 395.521 26.0115C395.143 26.3892 394.653 26.6079 394.097 26.6079H377.427C376.877 26.6079 376.387 26.3892 376.003 26.0115C375.625 25.6339 375.406 25.1436 375.406 24.5871V7.91739C375.406 7.36747 375.625 6.87726 376.003 6.49298C376.38 6.12195 376.87 5.89667 377.427 5.89667H394.097C394.653 5.89667 395.143 6.11533 395.521 6.49298C395.899 6.87063 396.117 7.36085 396.117 7.91739V24.5871Z" fill="#8000FF"/>
<path d="M430.835 0H414.165C409.793 0.0132509 406.254 3.54459 406.241 7.92402V24.5937C406.254 28.9731 409.786 32.5045 414.165 32.5177H430.835C435.214 32.5045 438.746 28.9731 438.759 24.5937V7.92402C438.746 3.54459 435.214 0.0132509 430.835 0ZM432.856 24.5871C432.856 25.137 432.637 25.6339 432.259 26.0115C431.882 26.3892 431.392 26.6079 430.835 26.6079H414.165C413.615 26.6079 413.125 26.3892 412.741 26.0115C412.363 25.6339 412.145 25.1436 412.145 24.5871V7.91739C412.145 7.36747 412.363 6.87726 412.741 6.49298C413.118 6.11533 413.609 5.89667 414.165 5.89667H430.835C431.392 5.89667 431.882 6.11533 432.259 6.49298C432.637 6.87063 432.856 7.36085 432.856 7.91739V24.5871Z" fill="#8000FF"/>
<path d="M469.282 0H452.619C448.24 0.0132509 444.709 3.54459 444.695 7.92402V24.5937C444.709 28.9731 448.24 32.5045 452.619 32.5177H469.282C473.662 32.5045 477.193 28.9731 477.206 24.5937V7.92402C477.193 3.54459 473.662 0.0132509 469.282 0ZM471.297 24.5871C471.297 25.137 471.078 25.6339 470.7 26.0115C470.323 26.3892 469.832 26.6079 469.276 26.6079H452.613C452.063 26.6079 451.573 26.3892 451.188 26.0115C450.811 25.6339 450.592 25.1436 450.592 24.5871V7.91739C450.592 7.36747 450.811 6.87726 451.188 6.49298C451.566 6.12195 452.056 5.89667 452.613 5.89667H469.276C469.832 5.89667 470.323 6.11533 470.7 6.49298C471.078 6.87063 471.297 7.36085 471.297 7.91739V24.5871Z" fill="#8000FF"/>
<path d="M542.785 0H526.122C521.743 0.0132509 518.211 3.54459 518.198 7.92402V24.5937C518.211 28.9731 521.743 32.5045 526.122 32.5177H542.785C547.165 32.5045 550.696 28.9731 550.709 24.5937V7.92402C550.696 3.54459 547.158 0.0132509 542.785 0ZM544.806 24.5871C544.806 25.137 544.587 25.6273 544.21 26.0115C543.832 26.3892 543.342 26.6079 542.785 26.6079H526.122C525.572 26.6079 525.082 26.3892 524.698 26.0115C524.32 25.6339 524.101 25.1436 524.101 24.5871V7.91739C524.101 7.36747 524.32 6.87726 524.698 6.49298C525.075 6.12195 525.566 5.89667 526.122 5.89667H542.785C543.342 5.89667 543.832 6.11533 544.21 6.49298C544.587 6.87063 544.806 7.36085 544.806 7.91739V24.5871Z" fill="#8000FF"/>
<path d="M579.523 0H562.854C558.474 0.0132509 554.943 3.54459 554.93 7.92402V24.5937C554.943 28.9731 558.474 32.5045 562.854 32.5177H579.523C583.903 32.5045 587.434 28.9731 587.447 24.5937V7.92402C587.434 3.54459 583.903 0.0132509 579.523 0ZM581.544 24.5871C581.544 25.137 581.326 25.6339 580.948 26.0115C580.57 26.3892 580.08 26.6079 579.523 26.6079H562.854C562.304 26.6079 561.814 26.3892 561.429 26.0115C561.052 25.6339 560.833 25.1436 560.833 24.5871V7.91739C560.833 7.36747 561.052 6.87726 561.429 6.49298C561.807 6.12195 562.297 5.89667 562.854 5.89667H579.523C580.08 5.89667 580.57 6.11533 580.948 6.49298C581.326 6.87063 581.544 7.36085 581.544 7.91739V24.5871Z" fill="#8000FF"/>
<path d="M320.594 36.8041H303.924C299.545 36.8173 296.013 40.3487 296 44.7281V61.3978C296.013 65.7772 299.545 69.3085 303.924 69.3218H320.594C324.973 69.3085 328.504 65.7772 328.518 61.3978V44.7281C328.504 40.3487 324.966 36.8173 320.594 36.8041ZM322.608 61.3911C322.608 61.941 322.389 62.4313 322.012 62.8156C321.634 63.1933 321.144 63.4118 320.587 63.4118H303.917C303.367 63.4118 302.877 63.1933 302.493 62.8156C302.115 62.438 301.897 61.9477 301.897 61.3911V44.7215C301.897 44.1716 302.115 43.6813 302.493 43.297C302.871 42.9259 303.361 42.7007 303.917 42.7007H320.587C321.137 42.7007 321.627 42.9193 322.012 43.297C322.389 43.6746 322.608 44.1649 322.608 44.7148V61.3845V61.3911Z" fill="#8000FF"/>
<path d="M394.097 36.8041H377.427C373.048 36.8173 369.516 40.3487 369.503 44.7281V61.3978C369.516 65.7772 373.048 69.3085 377.427 69.3218H394.097C398.476 69.3085 402.007 65.7772 402.021 61.3978V44.7281C402.007 40.3487 398.476 36.8173 394.097 36.8041ZM396.117 61.3911C396.117 61.941 395.899 62.4313 395.521 62.8156C395.143 63.1933 394.653 63.4118 394.097 63.4118H377.427C376.877 63.4118 376.387 63.1933 376.003 62.8156C375.625 62.438 375.406 61.9477 375.406 61.3911V44.7215C375.406 44.1716 375.625 43.6813 376.003 43.297C376.38 42.9259 376.87 42.7007 377.427 42.7007H394.097C394.653 42.7007 395.143 42.9193 395.521 43.297C395.899 43.6746 396.117 44.1649 396.117 44.7215V61.3911Z" fill="#8000FF"/>
<path d="M430.835 36.8041H414.165C409.793 36.8173 406.254 40.3487 406.241 44.7281V61.3978C406.254 65.7772 409.786 69.3085 414.165 69.3218H430.835C435.214 69.3085 438.746 65.7772 438.759 61.3978V44.7281C438.746 40.3487 435.214 36.8173 430.835 36.8041ZM432.856 61.3911C432.856 61.941 432.637 62.438 432.259 62.8156C431.882 63.1933 431.392 63.4118 430.835 63.4118H414.165C413.615 63.4118 413.125 63.1933 412.741 62.8156C412.363 62.438 412.145 61.9477 412.145 61.3911V44.7215C412.145 44.1716 412.363 43.6813 412.741 43.3036C413.118 42.926 413.609 42.7073 414.165 42.7073H430.835C431.392 42.7073 431.882 42.926 432.259 43.3036C432.637 43.6813 432.856 44.1716 432.856 44.7281V61.3978V61.3911Z" fill="#8000FF"/>
<path d="M469.282 36.8041H452.619C448.24 36.8173 444.709 40.3487 444.695 44.7281V61.3978C444.709 65.7772 448.24 69.3085 452.619 69.3218H469.282C473.662 69.3085 477.193 65.7772 477.206 61.3978V44.7281C477.193 40.3487 473.662 36.8173 469.282 36.8041ZM471.297 61.3911C471.297 61.941 471.078 62.438 470.7 62.8156C470.323 63.1933 469.832 63.4118 469.276 63.4118H452.613C452.063 63.4118 451.573 63.1933 451.188 62.8156C450.811 62.438 450.592 61.9477 450.592 61.3911V44.7215C450.592 44.1716 450.811 43.6813 451.188 43.297C451.566 42.9259 452.056 42.7007 452.613 42.7007H469.276C469.832 42.7007 470.323 42.9193 470.7 43.297C471.078 43.6746 471.297 44.1649 471.297 44.7215V61.3911Z" fill="#8000FF"/>
<path d="M506.02 36.8041H489.351C484.971 36.8173 481.44 40.3487 481.427 44.7281V61.3978C481.44 65.7772 484.971 69.3085 489.351 69.3218H506.02C510.4 69.3085 513.931 65.7772 513.944 61.3978V44.7281C513.931 40.3487 510.393 36.8173 506.02 36.8041ZM508.041 61.3911C508.041 61.941 507.822 62.4313 507.445 62.8156C507.067 63.1933 506.577 63.4118 506.02 63.4118H489.351C488.801 63.4118 488.31 63.1933 487.926 62.8156C487.549 62.438 487.33 61.9477 487.33 61.3911V44.7215C487.33 44.1716 487.549 43.6813 487.926 43.297C488.304 42.9259 488.794 42.7007 489.351 42.7007H506.02C506.57 42.7007 507.06 42.9193 507.445 43.297C507.822 43.6746 508.041 44.1649 508.041 44.7148V61.3845V61.3911Z" fill="#8000FF"/>
<path d="M542.785 36.8041H526.122C521.743 36.8173 518.211 40.3487 518.198 44.7281V61.3978C518.211 65.7772 521.743 69.3085 526.122 69.3218H542.785C547.165 69.3085 550.696 65.7772 550.709 61.3978V44.7281C550.696 40.3487 547.158 36.8173 542.785 36.8041ZM544.806 61.3911C544.806 61.941 544.587 62.4313 544.21 62.8156C543.832 63.1933 543.342 63.4118 542.785 63.4118H526.122C525.572 63.4118 525.082 63.1933 524.698 62.8156C524.32 62.438 524.101 61.9477 524.101 61.3911V44.7215C524.101 44.1716 524.32 43.6813 524.698 43.297C525.075 42.9259 525.566 42.7007 526.122 42.7007H542.785C543.342 42.7007 543.832 42.9193 544.21 43.297C544.587 43.6746 544.806 44.1649 544.806 44.7148V61.3845V61.3911Z" fill="#8000FF"/>
<path d="M320.594 73.6021H303.924C299.545 73.6153 296.013 77.1468 296 81.5262V98.1958C296.013 102.575 299.545 106.107 303.924 106.12H320.594C324.973 106.107 328.504 102.575 328.518 98.1958V81.5262C328.504 77.1468 324.966 73.6153 320.594 73.6021ZM322.608 98.1891C322.608 98.7391 322.389 99.2294 322.012 99.6136C321.634 99.9913 321.144 100.21 320.587 100.21H303.917C303.367 100.21 302.877 99.9913 302.493 99.6136C302.115 99.236 301.897 98.7457 301.897 98.1891V81.5196C301.897 80.9696 302.115 80.4793 302.493 80.0951C302.871 79.724 303.361 79.4988 303.917 79.4988H320.587C321.137 79.4988 321.627 79.7174 322.012 80.0951C322.389 80.4727 322.608 80.963 322.608 81.5129V98.1826V98.1891Z" fill="#8000FF"/>
<path d="M357.332 73.6021H340.662C336.283 73.6153 332.752 77.1468 332.738 81.5262V98.1958C332.752 102.575 336.283 106.107 340.662 106.12H357.332C361.711 106.107 365.243 102.575 365.256 98.1958V81.5262C365.243 77.1468 361.711 73.6153 357.332 73.6021ZM359.346 98.1891C359.346 98.7391 359.127 99.236 358.75 99.6136C358.372 99.9913 357.882 100.21 357.325 100.21H340.656C340.106 100.21 339.616 99.9913 339.231 99.6136C338.854 99.236 338.635 98.7457 338.635 98.1891V81.5196C338.635 80.9696 338.854 80.4793 339.231 80.0951C339.609 79.724 340.099 79.4988 340.656 79.4988H357.325C357.882 79.4988 358.372 79.7174 358.75 80.0951C359.127 80.4727 359.346 80.963 359.346 81.5196V98.1891Z" fill="#8000FF"/>
<path d="M394.097 73.6021H377.427C373.048 73.6153 369.516 77.1468 369.503 81.5262V98.1958C369.516 102.575 373.048 106.107 377.427 106.12H394.097C398.476 106.107 402.007 102.575 402.021 98.1958V81.5262C402.007 77.1468 398.47 73.6153 394.097 73.6021ZM396.117 98.1891C396.117 98.7391 395.899 99.2294 395.521 99.6136C395.143 99.9913 394.653 100.21 394.097 100.21H377.427C376.877 100.21 376.387 99.9913 376.003 99.6136C375.625 99.236 375.406 98.7457 375.406 98.1891V81.5196C375.406 80.9696 375.625 80.4793 376.003 80.0951C376.38 79.724 376.87 79.4988 377.427 79.4988H394.097C394.647 79.4988 395.137 79.7174 395.521 80.0951C395.899 80.4727 396.117 80.963 396.117 81.5129V98.1826V98.1891Z" fill="#8000FF"/>
<path d="M430.835 73.6021H414.165C409.786 73.6153 406.254 77.1468 406.241 81.5262V98.1958C406.254 102.575 409.786 106.107 414.165 106.12H430.835C435.214 106.107 438.746 102.575 438.759 98.1958V81.5262C438.746 77.1468 435.214 73.6153 430.835 73.6021ZM432.856 98.1891C432.856 98.7391 432.637 99.236 432.259 99.6136C431.882 99.9913 431.392 100.21 430.835 100.21H414.165C413.615 100.21 413.125 99.9913 412.741 99.6136C412.363 99.236 412.145 98.7457 412.145 98.1891V81.5196C412.145 80.9696 412.363 80.4793 412.741 80.0951C413.118 79.724 413.609 79.4988 414.165 79.4988H430.835C431.392 79.4988 431.882 79.7174 432.259 80.0951C432.637 80.4727 432.856 80.963 432.856 81.5196V98.1891Z" fill="#8000FF"/>
<path d="M469.282 73.6021H452.619C448.24 73.6153 444.709 77.1468 444.695 81.5262V98.1958C444.709 102.575 448.24 106.107 452.619 106.12H469.282C473.662 106.107 477.193 102.575 477.206 98.1958V81.5262C477.193 77.1468 473.662 73.6153 469.282 73.6021ZM471.297 98.1891C471.297 98.7391 471.078 99.236 470.7 99.6136C470.323 99.9913 469.832 100.21 469.276 100.21H452.613C452.063 100.21 451.573 99.9913 451.188 99.6136C450.811 99.236 450.592 98.7457 450.592 98.1891V81.5196C450.592 80.9696 450.811 80.4793 451.188 80.0951C451.566 79.724 452.056 79.4988 452.613 79.4988H469.276C469.832 79.4988 470.323 79.7174 470.7 80.0951C471.078 80.4727 471.297 80.963 471.297 81.5196V98.1891Z" fill="#8000FF"/>
<path d="M542.785 73.6021H526.122C521.743 73.6153 518.211 77.1468 518.198 81.5262V98.1958C518.211 102.575 521.743 106.107 526.122 106.12H542.785C547.165 106.107 550.696 102.575 550.709 98.1958V81.5262C550.696 77.1468 547.158 73.6153 542.785 73.6021ZM544.806 98.1891C544.806 98.7391 544.587 99.2294 544.21 99.6136C543.832 99.9913 543.342 100.21 542.785 100.21H526.122C525.572 100.21 525.082 99.9913 524.698 99.6136C524.32 99.236 524.101 98.7457 524.101 98.1891V81.5196C524.101 80.9696 524.32 80.4793 524.698 80.0951C525.075 79.724 525.566 79.4988 526.122 79.4988H542.785C543.342 79.4988 543.832 79.7174 544.21 80.0951C544.587 80.4727 544.806 80.963 544.806 81.5129V98.1826V98.1891Z" fill="#8000FF"/>
<path d="M579.523 73.6021H562.854C558.474 73.6153 554.943 77.1468 554.93 81.5262V98.1958C554.943 102.575 558.474 106.107 562.854 106.12H579.523C583.903 106.107 587.434 102.575 587.447 98.1958V81.5262C587.434 77.1468 583.903 73.6153 579.523 73.6021ZM581.544 98.1891C581.544 98.7391 581.326 99.236 580.948 99.6136C580.57 99.9913 580.08 100.21 579.523 100.21H562.854C562.304 100.21 561.814 99.9913 561.429 99.6136C561.052 99.236 560.833 98.7457 560.833 98.1891V81.5196C560.833 80.9696 561.052 80.4793 561.429 80.0951C561.807 79.724 562.297 79.4988 562.854 79.4988H579.523C580.08 79.4988 580.57 79.7174 580.948 80.0951C581.326 80.4727 581.544 80.963 581.544 81.5196V98.1891Z" fill="#8000FF"/>
<path d="M320.594 110.407H303.924C299.545 110.42 296.013 113.951 296 118.331V135C296.013 139.38 299.545 142.911 303.924 142.924H320.594C324.973 142.911 328.504 139.38 328.518 135V118.331C328.504 113.951 324.966 110.42 320.594 110.407ZM322.608 134.994C322.608 135.544 322.389 136.034 322.012 136.418C321.634 136.796 321.144 137.014 320.587 137.014H303.917C303.367 137.014 302.877 136.796 302.493 136.418C302.115 136.041 301.897 135.55 301.897 134.994V118.324C301.897 117.774 302.115 117.284 302.493 116.9C302.871 116.529 303.361 116.303 303.917 116.303H320.587C321.137 116.303 321.627 116.522 322.012 116.9C322.389 117.277 322.608 117.767 322.608 118.324V134.994Z" fill="#8000FF"/>
<path d="M394.097 110.407H377.427C373.048 110.42 369.516 113.951 369.503 118.331V135C369.516 139.38 373.048 142.911 377.427 142.924H394.097C398.476 142.911 402.007 139.38 402.021 135V118.331C402.007 113.951 398.47 110.42 394.097 110.407ZM396.117 134.994C396.117 135.544 395.899 136.034 395.521 136.418C395.143 136.796 394.653 137.014 394.097 137.014H377.427C376.877 137.014 376.387 136.796 376.003 136.418C375.625 136.041 375.406 135.55 375.406 134.994V118.324C375.406 117.774 375.625 117.284 376.003 116.9C376.38 116.529 376.87 116.303 377.427 116.303H394.097C394.647 116.303 395.137 116.522 395.521 116.9C395.899 117.277 396.117 117.767 396.117 118.324V134.994Z" fill="#8000FF"/>
<path d="M430.835 110.407H414.165C409.786 110.42 406.254 113.951 406.241 118.331V135C406.254 139.38 409.786 142.911 414.165 142.924H430.835C435.214 142.911 438.746 139.38 438.759 135V118.331C438.746 113.951 435.214 110.42 430.835 110.407ZM432.856 134.994C432.856 135.544 432.637 136.041 432.259 136.418C431.882 136.796 431.392 137.014 430.835 137.014H414.165C413.615 137.014 413.125 136.796 412.741 136.418C412.363 136.041 412.145 135.55 412.145 134.994V118.324C412.145 117.774 412.363 117.284 412.741 116.9C413.118 116.529 413.609 116.303 414.165 116.303H430.835C431.392 116.303 431.882 116.522 432.259 116.9C432.637 117.277 432.856 117.767 432.856 118.324V134.994Z" fill="#8000FF"/>
<path d="M469.282 110.407H452.619C448.24 110.42 444.709 113.951 444.695 118.331V135C444.709 139.38 448.24 142.911 452.619 142.924H469.282C473.662 142.911 477.193 139.38 477.206 135V118.331C477.193 113.951 473.662 110.42 469.282 110.407ZM471.297 134.994C471.297 135.544 471.078 136.041 470.7 136.418C470.323 136.796 469.832 137.014 469.276 137.014H452.613C452.063 137.014 451.573 136.796 451.188 136.418C450.811 136.041 450.592 135.55 450.592 134.994V118.324C450.592 117.774 450.811 117.284 451.188 116.9C451.566 116.529 452.056 116.303 452.613 116.303H469.276C469.832 116.303 470.323 116.522 470.7 116.9C471.078 117.277 471.297 117.767 471.297 118.324V134.994Z" fill="#8000FF"/>
<path d="M506.02 110.407H489.351C484.971 110.42 481.44 113.951 481.427 118.331V135C481.44 139.38 484.971 142.911 489.351 142.924H506.02C510.4 142.911 513.931 139.38 513.944 135V118.331C513.931 113.951 510.393 110.42 506.02 110.407ZM508.041 134.994C508.041 135.544 507.822 136.034 507.445 136.418C507.067 136.796 506.577 137.014 506.02 137.014H489.351C488.801 137.014 488.31 136.796 487.926 136.418C487.549 136.041 487.33 135.55 487.33 134.994V118.324C487.33 117.774 487.549 117.284 487.926 116.9C488.304 116.529 488.794 116.303 489.351 116.303H506.02C506.57 116.303 507.06 116.522 507.445 116.9C507.822 117.277 508.041 117.767 508.041 118.324V134.994Z" fill="#8000FF"/>
<path d="M542.785 110.407H526.122C521.743 110.42 518.211 113.951 518.198 118.331V135C518.211 139.38 521.743 142.911 526.122 142.924H542.785C547.165 142.911 550.696 139.38 550.709 135V118.331C550.696 113.951 547.165 110.42 542.785 110.407ZM544.799 134.994C544.799 135.544 544.581 136.041 544.203 136.418C543.826 136.796 543.335 137.014 542.779 137.014H526.116C525.566 137.014 525.075 136.796 524.691 136.418C524.313 136.041 524.095 135.55 524.095 134.994V118.324C524.095 117.774 524.313 117.284 524.691 116.9C525.069 116.529 525.559 116.303 526.116 116.303H542.779C543.335 116.303 543.826 116.522 544.203 116.9C544.581 117.277 544.799 117.767 544.799 118.324V134.994Z" fill="#8000FF"/>
<path d="M579.523 110.407H562.854C558.474 110.42 554.943 113.951 554.93 118.331V135C554.943 139.38 558.474 142.911 562.854 142.924H579.523C583.903 142.911 587.434 139.38 587.447 135V118.331C587.434 113.951 583.903 110.42 579.523 110.407ZM581.544 134.994C581.544 135.544 581.326 136.041 580.948 136.418C580.57 136.796 580.08 137.014 579.523 137.014H562.854C562.304 137.014 561.814 136.796 561.429 136.418C561.052 136.041 560.833 135.55 560.833 134.994V118.324C560.833 117.774 561.052 117.284 561.429 116.9C561.807 116.529 562.297 116.303 562.854 116.303H579.523C580.08 116.303 580.57 116.522 580.948 116.9C581.326 117.277 581.544 117.767 581.544 118.324V134.994Z" fill="#8000FF"/>
<path d="M616.594 0H599.924C595.545 0.0132509 592.013 3.54459 592 7.92402V24.5937C592.013 28.9731 595.545 32.5045 599.924 32.5177H616.594C620.966 32.5045 624.504 28.9731 624.518 24.5937V7.92402C624.504 3.54459 620.966 0.0132509 616.594 0ZM618.608 24.5871C618.608 25.137 618.389 25.6273 618.012 26.0049C617.634 26.3826 617.144 26.6012 616.587 26.6012H599.917C599.361 26.6012 598.871 26.3826 598.493 26.0049C598.115 25.6273 597.897 25.137 597.897 24.5804V7.91084C597.897 7.36092 598.115 6.87062 598.493 6.48635C598.871 6.11532 599.361 5.89004 599.917 5.89004H616.587C617.137 5.89004 617.627 6.1087 618.012 6.48635C618.389 6.864 618.608 7.3543 618.608 7.91084V24.5804V24.5871Z" fill="#8000FF"/>
<path d="M653.332 0H636.662C632.283 0.0132509 628.752 3.54459 628.738 7.92402V24.5937C628.752 28.9731 632.283 32.5045 636.662 32.5177H653.332V29.5694V32.5243C657.711 32.5111 661.243 28.9797 661.256 24.6003V7.93065C661.243 3.55122 657.711 0.0198828 653.332 0.00663193V0ZM655.346 24.5871C655.346 25.137 655.127 25.6339 654.75 26.0115C654.372 26.3892 653.882 26.6079 653.325 26.6079H636.656C636.099 26.6079 635.609 26.3892 635.231 26.0115C634.854 25.6339 634.635 25.1436 634.635 24.5871V7.91739C634.635 7.36747 634.854 6.87726 635.231 6.49298C635.609 6.12195 636.099 5.89667 636.656 5.89667H653.325C653.882 5.89667 654.372 6.11533 654.75 6.49298C655.127 6.87063 655.346 7.36085 655.346 7.91739V24.5871Z" fill="#8000FF"/>
<path d="M690.097 0H673.427C669.048 0.0132509 665.516 3.54459 665.503 7.92402V24.5937C665.516 28.9731 669.048 32.5045 673.427 32.5177H690.097C694.476 32.5045 698.007 28.9731 698.021 24.5937V7.92402C698.007 3.54459 694.476 0.0132509 690.097 0ZM692.117 24.5871C692.117 25.137 691.899 25.6339 691.521 26.0115C691.143 26.3892 690.653 26.6079 690.097 26.6079H673.427C672.877 26.6079 672.387 26.3892 672.003 26.0115C671.625 25.6339 671.406 25.1436 671.406 24.5871V7.91739C671.406 7.36747 671.625 6.87726 672.003 6.49298C672.38 6.12195 672.87 5.89667 673.427 5.89667H690.097C690.653 5.89667 691.143 6.11533 691.521 6.49298C691.899 6.87063 692.117 7.36085 692.117 7.91739V24.5871Z" fill="#8000FF"/>
<path d="M726.835 0H710.165C705.793 0.0132509 702.254 3.54459 702.241 7.92402V24.5937C702.254 28.9731 705.786 32.5045 710.165 32.5177H726.835C731.214 32.5045 734.746 28.9731 734.759 24.5937V7.92402C734.746 3.54459 731.214 0.0132509 726.835 0ZM728.856 24.5871C728.856 25.137 728.637 25.6339 728.259 26.0115C727.882 26.3892 727.392 26.6079 726.835 26.6079H710.165C709.615 26.6079 709.125 26.3892 708.741 26.0115C708.363 25.6339 708.145 25.1436 708.145 24.5871V7.91739C708.145 7.36747 708.363 6.87726 708.741 6.49298C709.118 6.11533 709.609 5.89667 710.165 5.89667H726.835C727.392 5.89667 727.882 6.11533 728.259 6.49298C728.637 6.87063 728.856 7.36085 728.856 7.91739V24.5871Z" fill="#8000FF"/>
<path d="M765.282 0H748.619C744.24 0.0132509 740.709 3.54459 740.695 7.92402V24.5937C740.709 28.9731 744.24 32.5045 748.619 32.5177H765.282C769.662 32.5045 773.193 28.9731 773.206 24.5937V7.92402C773.193 3.54459 769.662 0.0132509 765.282 0ZM767.297 24.5871C767.297 25.137 767.078 25.6339 766.7 26.0115C766.323 26.3892 765.832 26.6079 765.276 26.6079H748.613C748.063 26.6079 747.573 26.3892 747.188 26.0115C746.811 25.6339 746.592 25.1436 746.592 24.5871V7.91739C746.592 7.36747 746.811 6.87726 747.188 6.49298C747.566 6.12195 748.056 5.89667 748.613 5.89667H765.276C765.832 5.89667 766.323 6.11533 766.7 6.49298C767.078 6.87063 767.297 7.36085 767.297 7.91739V24.5871Z" fill="#8000FF"/>
<path d="M838.785 0H822.122C817.743 0.0132509 814.211 3.54459 814.198 7.92402V24.5937C814.211 28.9731 817.743 32.5045 822.122 32.5177H838.785C843.165 32.5045 846.696 28.9731 846.709 24.5937V7.92402C846.696 3.54459 843.158 0.0132509 838.785 0ZM840.806 24.5871C840.806 25.137 840.587 25.6273 840.21 26.0115C839.832 26.3892 839.342 26.6079 838.785 26.6079H822.122C821.572 26.6079 821.082 26.3892 820.698 26.0115C820.32 25.6339 820.101 25.1436 820.101 24.5871V7.91739C820.101 7.36747 820.32 6.87726 820.698 6.49298C821.075 6.12195 821.566 5.89667 822.122 5.89667H838.785C839.342 5.89667 839.832 6.11533 840.21 6.49298C840.587 6.87063 840.806 7.36085 840.806 7.91739V24.5871Z" fill="#8000FF"/>
<path d="M875.523 0H858.854C854.474 0.0132509 850.943 3.54459 850.93 7.92402V24.5937C850.943 28.9731 854.474 32.5045 858.854 32.5177H875.523C879.903 32.5045 883.434 28.9731 883.447 24.5937V7.92402C883.434 3.54459 879.903 0.0132509 875.523 0ZM877.544 24.5871C877.544 25.137 877.326 25.6339 876.948 26.0115C876.57 26.3892 876.08 26.6079 875.523 26.6079H858.854C858.304 26.6079 857.814 26.3892 857.429 26.0115C857.052 25.6339 856.833 25.1436 856.833 24.5871V7.91739C856.833 7.36747 857.052 6.87726 857.429 6.49298C857.807 6.12195 858.297 5.89667 858.854 5.89667H875.523C876.08 5.89667 876.57 6.11533 876.948 6.49298C877.326 6.87063 877.544 7.36085 877.544 7.91739V24.5871Z" fill="#8000FF"/>
<path d="M616.594 36.8041H599.924C595.545 36.8173 592.013 40.3487 592 44.7281V61.3978C592.013 65.7772 595.545 69.3085 599.924 69.3218H616.594C620.973 69.3085 624.504 65.7772 624.518 61.3978V44.7281C624.504 40.3487 620.966 36.8173 616.594 36.8041ZM618.608 61.3911C618.608 61.941 618.389 62.4313 618.012 62.8156C617.634 63.1933 617.144 63.4118 616.587 63.4118H599.917C599.367 63.4118 598.877 63.1933 598.493 62.8156C598.115 62.438 597.897 61.9477 597.897 61.3911V44.7215C597.897 44.1716 598.115 43.6813 598.493 43.297C598.871 42.9259 599.361 42.7007 599.917 42.7007H616.587C617.137 42.7007 617.627 42.9193 618.012 43.297C618.389 43.6746 618.608 44.1649 618.608 44.7148V61.3845V61.3911Z" fill="#8000FF"/>
<path d="M690.097 36.8041H673.427C669.048 36.8173 665.516 40.3487 665.503 44.7281V61.3978C665.516 65.7772 669.048 69.3085 673.427 69.3218H690.097C694.476 69.3085 698.007 65.7772 698.021 61.3978V44.7281C698.007 40.3487 694.476 36.8173 690.097 36.8041ZM692.117 61.3911C692.117 61.941 691.899 62.4313 691.521 62.8156C691.143 63.1933 690.653 63.4118 690.097 63.4118H673.427C672.877 63.4118 672.387 63.1933 672.003 62.8156C671.625 62.438 671.406 61.9477 671.406 61.3911V44.7215C671.406 44.1716 671.625 43.6813 672.003 43.297C672.38 42.9259 672.87 42.7007 673.427 42.7007H690.097C690.653 42.7007 691.143 42.9193 691.521 43.297C691.899 43.6746 692.117 44.1649 692.117 44.7215V61.3911Z" fill="#8000FF"/>
<path d="M726.835 36.8041H710.165C705.793 36.8173 702.254 40.3487 702.241 44.7281V61.3978C702.254 65.7772 705.786 69.3085 710.165 69.3218H726.835C731.214 69.3085 734.746 65.7772 734.759 61.3978V44.7281C734.746 40.3487 731.214 36.8173 726.835 36.8041ZM728.856 61.3911C728.856 61.941 728.637 62.438 728.259 62.8156C727.882 63.1933 727.392 63.4118 726.835 63.4118H710.165C709.615 63.4118 709.125 63.1933 708.741 62.8156C708.363 62.438 708.145 61.9477 708.145 61.3911V44.7215C708.145 44.1716 708.363 43.6813 708.741 43.3036C709.118 42.926 709.609 42.7073 710.165 42.7073H726.835C727.392 42.7073 727.882 42.926 728.259 43.3036C728.637 43.6813 728.856 44.1716 728.856 44.7281V61.3978V61.3911Z" fill="#8000FF"/>
<path d="M765.282 36.8041H748.619C744.24 36.8173 740.709 40.3487 740.695 44.7281V61.3978C740.709 65.7772 744.24 69.3085 748.619 69.3218H765.282C769.662 69.3085 773.193 65.7772 773.206 61.3978V44.7281C773.193 40.3487 769.662 36.8173 765.282 36.8041ZM767.297 61.3911C767.297 61.941 767.078 62.438 766.7 62.8156C766.323 63.1933 765.832 63.4118 765.276 63.4118H748.613C748.063 63.4118 747.573 63.1933 747.188 62.8156C746.811 62.438 746.592 61.9477 746.592 61.3911V44.7215C746.592 44.1716 746.811 43.6813 747.188 43.297C747.566 42.9259 748.056 42.7007 748.613 42.7007H765.276C765.832 42.7007 766.323 42.9193 766.7 43.297C767.078 43.6746 767.297 44.1649 767.297 44.7215V61.3911Z" fill="#8000FF"/>
<path d="M802.02 36.8041H785.351C780.971 36.8173 777.44 40.3487 777.427 44.7281V61.3978C777.44 65.7772 780.971 69.3085 785.351 69.3218H802.02C806.4 69.3085 809.931 65.7772 809.944 61.3978V44.7281C809.931 40.3487 806.393 36.8173 802.02 36.8041ZM804.041 61.3911C804.041 61.941 803.822 62.4313 803.445 62.8156C803.067 63.1933 802.577 63.4118 802.02 63.4118H785.351C784.801 63.4118 784.31 63.1933 783.926 62.8156C783.549 62.438 783.33 61.9477 783.33 61.3911V44.7215C783.33 44.1716 783.549 43.6813 783.926 43.297C784.304 42.9259 784.794 42.7007 785.351 42.7007H802.02C802.57 42.7007 803.06 42.9193 803.445 43.297C803.822 43.6746 804.041 44.1649 804.041 44.7148V61.3845V61.3911Z" fill="#8000FF"/>
<path d="M838.785 36.8041H822.122C817.743 36.8173 814.211 40.3487 814.198 44.7281V61.3978C814.211 65.7772 817.743 69.3085 822.122 69.3218H838.785C843.165 69.3085 846.696 65.7772 846.709 61.3978V44.7281C846.696 40.3487 843.158 36.8173 838.785 36.8041ZM840.806 61.3911C840.806 61.941 840.587 62.4313 840.21 62.8156C839.832 63.1933 839.342 63.4118 838.785 63.4118H822.122C821.572 63.4118 821.082 63.1933 820.698 62.8156C820.32 62.438 820.101 61.9477 820.101 61.3911V44.7215C820.101 44.1716 820.32 43.6813 820.698 43.297C821.075 42.9259 821.566 42.7007 822.122 42.7007H838.785C839.342 42.7007 839.832 42.9193 840.21 43.297C840.587 43.6746 840.806 44.1649 840.806 44.7148V61.3845V61.3911Z" fill="#8000FF"/>
<path d="M616.594 73.6021H599.924C595.545 73.6153 592.013 77.1468 592 81.5262V98.1958C592.013 102.575 595.545 106.107 599.924 106.12H616.594C620.973 106.107 624.504 102.575 624.518 98.1958V81.5262C624.504 77.1468 620.966 73.6153 616.594 73.6021ZM618.608 98.1891C618.608 98.7391 618.389 99.2294 618.012 99.6136C617.634 99.9913 617.144 100.21 616.587 100.21H599.917C599.367 100.21 598.877 99.9913 598.493 99.6136C598.115 99.236 597.897 98.7457 597.897 98.1891V81.5196C597.897 80.9696 598.115 80.4793 598.493 80.0951C598.871 79.724 599.361 79.4988 599.917 79.4988H616.587C617.137 79.4988 617.627 79.7174 618.012 80.0951C618.389 80.4727 618.608 80.963 618.608 81.5129V98.1826V98.1891Z" fill="#8000FF"/>
<path d="M653.332 73.6021H636.662C632.283 73.6153 628.752 77.1468 628.738 81.5262V98.1958C628.752 102.575 632.283 106.107 636.662 106.12H653.332C657.711 106.107 661.243 102.575 661.256 98.1958V81.5262C661.243 77.1468 657.711 73.6153 653.332 73.6021ZM655.346 98.1891C655.346 98.7391 655.127 99.236 654.75 99.6136C654.372 99.9913 653.882 100.21 653.325 100.21H636.656C636.106 100.21 635.616 99.9913 635.231 99.6136C634.854 99.236 634.635 98.7457 634.635 98.1891V81.5196C634.635 80.9696 634.854 80.4793 635.231 80.0951C635.609 79.724 636.099 79.4988 636.656 79.4988H653.325C653.882 79.4988 654.372 79.7174 654.75 80.0951C655.127 80.4727 655.346 80.963 655.346 81.5196V98.1891Z" fill="#8000FF"/>
<path d="M690.097 73.6021H673.427C669.048 73.6153 665.516 77.1468 665.503 81.5262V98.1958C665.516 102.575 669.048 106.107 673.427 106.12H690.097C694.476 106.107 698.007 102.575 698.021 98.1958V81.5262C698.007 77.1468 694.47 73.6153 690.097 73.6021ZM692.117 98.1891C692.117 98.7391 691.899 99.2294 691.521 99.6136C691.143 99.9913 690.653 100.21 690.097 100.21H673.427C672.877 100.21 672.387 99.9913 672.003 99.6136C671.625 99.236 671.406 98.7457 671.406 98.1891V81.5196C671.406 80.9696 671.625 80.4793 672.003 80.0951C672.38 79.724 672.87 79.4988 673.427 79.4988H690.097C690.647 79.4988 691.137 79.7174 691.521 80.0951C691.899 80.4727 692.117 80.963 692.117 81.5129V98.1826V98.1891Z" fill="#8000FF"/>
<path d="M726.835 73.6021H710.165C705.786 73.6153 702.254 77.1468 702.241 81.5262V98.1958C702.254 102.575 705.786 106.107 710.165 106.12H726.835C731.214 106.107 734.746 102.575 734.759 98.1958V81.5262C734.746 77.1468 731.214 73.6153 726.835 73.6021ZM728.856 98.1891C728.856 98.7391 728.637 99.236 728.259 99.6136C727.882 99.9913 727.392 100.21 726.835 100.21H710.165C709.615 100.21 709.125 99.9913 708.741 99.6136C708.363 99.236 708.145 98.7457 708.145 98.1891V81.5196C708.145 80.9696 708.363 80.4793 708.741 80.0951C709.118 79.724 709.609 79.4988 710.165 79.4988H726.835C727.392 79.4988 727.882 79.7174 728.259 80.0951C728.637 80.4727 728.856 80.963 728.856 81.5196V98.1891Z" fill="#8000FF"/>
<path d="M765.282 73.6021H748.619C744.24 73.6153 740.709 77.1468 740.695 81.5262V98.1958C740.709 102.575 744.24 106.107 748.619 106.12H765.282C769.662 106.107 773.193 102.575 773.206 98.1958V81.5262C773.193 77.1468 769.662 73.6153 765.282 73.6021ZM767.297 98.1891C767.297 98.7391 767.078 99.236 766.7 99.6136C766.323 99.9913 765.832 100.21 765.276 100.21H748.613C748.063 100.21 747.573 99.9913 747.188 99.6136C746.811 99.236 746.592 98.7457 746.592 98.1891V81.5196C746.592 80.9696 746.811 80.4793 747.188 80.0951C747.566 79.724 748.056 79.4988 748.613 79.4988H765.276C765.832 79.4988 766.323 79.7174 766.7 80.0951C767.078 80.4727 767.297 80.963 767.297 81.5196V98.1891Z" fill="#8000FF"/>
<path d="M838.785 73.6021H822.122C817.743 73.6153 814.211 77.1468 814.198 81.5262V98.1958C814.211 102.575 817.743 106.107 822.122 106.12H838.785C843.165 106.107 846.696 102.575 846.709 98.1958V81.5262C846.696 77.1468 843.158 73.6153 838.785 73.6021ZM840.806 98.1891C840.806 98.7391 840.587 99.2294 840.21 99.6136C839.832 99.9913 839.342 100.21 838.785 100.21H822.122C821.572 100.21 821.082 99.9913 820.698 99.6136C820.32 99.236 820.101 98.7457 820.101 98.1891V81.5196C820.101 80.9696 820.32 80.4793 820.698 80.0951C821.075 79.724 821.566 79.4988 822.122 79.4988H838.785C839.342 79.4988 839.832 79.7174 840.21 80.0951C840.587 80.4727 840.806 80.963 840.806 81.5129V98.1826V98.1891Z" fill="#8000FF"/>
<path d="M875.523 73.6021H858.854C854.474 73.6153 850.943 77.1468 850.93 81.5262V98.1958C850.943 102.575 854.474 106.107 858.854 106.12H875.523C879.903 106.107 883.434 102.575 883.447 98.1958V81.5262C883.434 77.1468 879.903 73.6153 875.523 73.6021ZM877.544 98.1891C877.544 98.7391 877.326 99.236 876.948 99.6136C876.57 99.9913 876.08 100.21 875.523 100.21H858.854C858.304 100.21 857.814 99.9913 857.429 99.6136C857.052 99.236 856.833 98.7457 856.833 98.1891V81.5196C856.833 80.9696 857.052 80.4793 857.429 80.0951C857.807 79.724 858.297 79.4988 858.854 79.4988H875.523C876.08 79.4988 876.57 79.7174 876.948 80.0951C877.326 80.4727 877.544 80.963 877.544 81.5196V98.1891Z" fill="#8000FF"/>
<path d="M616.594 110.407H599.924C595.545 110.42 592.013 113.951 592 118.331V135C592.013 139.38 595.545 142.911 599.924 142.924H616.594C620.973 142.911 624.504 139.38 624.518 135V118.331C624.504 113.951 620.966 110.42 616.594 110.407ZM618.608 134.994C618.608 135.544 618.389 136.034 618.012 136.418C617.634 136.796 617.144 137.014 616.587 137.014H599.917C599.367 137.014 598.877 136.796 598.493 136.418C598.115 136.041 597.897 135.55 597.897 134.994V118.324C597.897 117.774 598.115 117.284 598.493 116.9C598.871 116.529 599.361 116.303 599.917 116.303H616.587C617.137 116.303 617.627 116.522 618.012 116.9C618.389 117.277 618.608 117.767 618.608 118.324V134.994Z" fill="#8000FF"/>
<path d="M690.097 110.407H673.427C669.048 110.42 665.516 113.951 665.503 118.331V135C665.516 139.38 669.048 142.911 673.427 142.924H690.097C694.476 142.911 698.007 139.38 698.021 135V118.331C698.007 113.951 694.47 110.42 690.097 110.407ZM692.117 134.994C692.117 135.544 691.899 136.034 691.521 136.418C691.143 136.796 690.653 137.014 690.097 137.014H673.427C672.877 137.014 672.387 136.796 672.003 136.418C671.625 136.041 671.406 135.55 671.406 134.994V118.324C671.406 117.774 671.625 117.284 672.003 116.9C672.38 116.529 672.87 116.303 673.427 116.303H690.097C690.647 116.303 691.137 116.522 691.521 116.9C691.899 117.277 692.117 117.767 692.117 118.324V134.994Z" fill="#8000FF"/>
<path d="M726.835 110.407H710.165C705.786 110.42 702.254 113.951 702.241 118.331V135C702.254 139.38 705.786 142.911 710.165 142.924H726.835C731.214 142.911 734.746 139.38 734.759 135V118.331C734.746 113.951 731.214 110.42 726.835 110.407ZM728.856 134.994C728.856 135.544 728.637 136.041 728.259 136.418C727.882 136.796 727.392 137.014 726.835 137.014H710.165C709.615 137.014 709.125 136.796 708.741 136.418C708.363 136.041 708.145 135.55 708.145 134.994V118.324C708.145 117.774 708.363 117.284 708.741 116.9C709.118 116.529 709.609 116.303 710.165 116.303H726.835C727.392 116.303 727.882 116.522 728.259 116.9C728.637 117.277 728.856 117.767 728.856 118.324V134.994Z" fill="#8000FF"/>
<path d="M765.282 110.407H748.619C744.24 110.42 740.709 113.951 740.695 118.331V135C740.709 139.38 744.24 142.911 748.619 142.924H765.282C769.662 142.911 773.193 139.38 773.206 135V118.331C773.193 113.951 769.662 110.42 765.282 110.407ZM767.297 134.994C767.297 135.544 767.078 136.041 766.7 136.418C766.323 136.796 765.832 137.014 765.276 137.014H748.613C748.063 137.014 747.573 136.796 747.188 136.418C746.811 136.041 746.592 135.55 746.592 134.994V118.324C746.592 117.774 746.811 117.284 747.188 116.9C747.566 116.529 748.056 116.303 748.613 116.303H765.276C765.832 116.303 766.323 116.522 766.7 116.9C767.078 117.277 767.297 117.767 767.297 118.324V134.994Z" fill="#8000FF"/>
<path d="M802.02 110.407H785.351C780.971 110.42 777.44 113.951 777.427 118.331V135C777.44 139.38 780.971 142.911 785.351 142.924H802.02C806.4 142.911 809.931 139.38 809.944 135V118.331C809.931 113.951 806.393 110.42 802.02 110.407ZM804.041 134.994C804.041 135.544 803.822 136.034 803.445 136.418C803.067 136.796 802.577 137.014 802.02 137.014H785.351C784.801 137.014 784.31 136.796 783.926 136.418C783.549 136.041 783.33 135.55 783.33 134.994V118.324C783.33 117.774 783.549 117.284 783.926 116.9C784.304 116.529 784.794 116.303 785.351 116.303H802.02C802.57 116.303 803.06 116.522 803.445 116.9C803.822 117.277 804.041 117.767 804.041 118.324V134.994Z" fill="#8000FF"/>
<path d="M838.785 110.407H822.122C817.743 110.42 814.211 113.951 814.198 118.331V135C814.211 139.38 817.743 142.911 822.122 142.924H838.785C843.165 142.911 846.696 139.38 846.709 135V118.331C846.696 113.951 843.165 110.42 838.785 110.407ZM840.799 134.994C840.799 135.544 840.581 136.041 840.203 136.418C839.826 136.796 839.335 137.014 838.779 137.014H822.116C821.566 137.014 821.075 136.796 820.691 136.418C820.313 136.041 820.095 135.55 820.095 134.994V118.324C820.095 117.774 820.313 117.284 820.691 116.9C821.069 116.529 821.559 116.303 822.116 116.303H838.779C839.335 116.303 839.826 116.522 840.203 116.9C840.581 117.277 840.799 117.767 840.799 118.324V134.994Z" fill="#8000FF"/>
<path d="M875.523 110.407H858.854C854.474 110.42 850.943 113.951 850.93 118.331V135C850.943 139.38 854.474 142.911 858.854 142.924H875.523C879.903 142.911 883.434 139.38 883.447 135V118.331C883.434 113.951 879.903 110.42 875.523 110.407ZM877.544 134.994C877.544 135.544 877.326 136.041 876.948 136.418C876.57 136.796 876.08 137.014 875.523 137.014H858.854C858.304 137.014 857.814 136.796 857.429 136.418C857.052 136.041 856.833 135.55 856.833 134.994V118.324C856.833 117.774 857.052 117.284 857.429 116.9C857.807 116.529 858.297 116.303 858.854 116.303H875.523C876.08 116.303 876.57 116.522 876.948 116.9C877.326 117.277 877.544 117.767 877.544 118.324V134.994Z" fill="#8000FF"/>
<path d="M24.5937 0H7.92402C3.54459 0.0132509 0.0132509 3.54459 0 7.92402V24.5937C0.0132509 28.9731 3.54459 32.5045 7.92402 32.5177H24.5937C28.9665 32.5045 32.5045 28.9731 32.5177 24.5937V7.92402C32.5045 3.54459 28.9665 0.0132509 24.5937 0ZM26.6079 24.5871C26.6079 25.137 26.3892 25.6273 26.0115 26.0049C25.6339 26.3826 25.1436 26.6012 24.5871 26.6012H7.91739C7.36085 26.6012 6.87063 26.3826 6.49298 26.0049C6.11533 25.6273 5.89667 25.137 5.89667 24.5804V7.91084C5.89667 7.36092 6.11533 6.87062 6.49298 6.48635C6.87063 6.11532 7.36085 5.89004 7.91739 5.89004H24.5871C25.137 5.89004 25.6273 6.1087 26.0115 6.48635C26.3892 6.864 26.6079 7.3543 26.6079 7.91084V24.5804V24.5871Z" fill="#8000FF"/>
<path d="M61.3321 0H44.6624C40.283 0.0132509 36.7515 3.54459 36.7383 7.92402V24.5937C36.7515 28.9731 40.283 32.5045 44.6624 32.5177H61.3321V29.5694V32.5243C65.7115 32.5111 69.2428 28.9797 69.2561 24.6003V7.93065C69.2428 3.55122 65.7115 0.0198828 61.3321 0.00663193V0ZM63.3462 24.5871C63.3462 25.137 63.1275 25.6339 62.7498 26.0115C62.3722 26.3892 61.882 26.6079 61.3254 26.6079H44.6557C44.0992 26.6079 43.6089 26.3892 43.2313 26.0115C42.8536 25.6339 42.635 25.1436 42.635 24.5871V7.91739C42.635 7.36747 42.8536 6.87726 43.2313 6.49298C43.6089 6.12195 44.0992 5.89667 44.6557 5.89667H61.3254C61.882 5.89667 62.3722 6.11533 62.7498 6.49298C63.1275 6.87063 63.3462 7.36085 63.3462 7.91739V24.5871Z" fill="#8000FF"/>
<path d="M98.0967 0H81.4269C77.0475 0.0132509 73.5162 3.54459 73.5029 7.92402V24.5937C73.5162 28.9731 77.0475 32.5045 81.4269 32.5177H98.0967C102.476 32.5045 106.007 28.9731 106.021 24.5937V7.92402C106.007 3.54459 102.476 0.0132509 98.0967 0ZM100.117 24.5871C100.117 25.137 99.8988 25.6339 99.5211 26.0115C99.1435 26.3892 98.6532 26.6079 98.0967 26.6079H81.4269C80.877 26.6079 80.3868 26.3892 80.0025 26.0115C79.6249 25.6339 79.4063 25.1436 79.4063 24.5871V7.91739C79.4063 7.36747 79.6249 6.87726 80.0025 6.49298C80.3802 6.12195 80.8704 5.89667 81.4269 5.89667H98.0967C98.6532 5.89667 99.1435 6.11533 99.5211 6.49298C99.8988 6.87063 100.117 7.36085 100.117 7.91739V24.5871Z" fill="#8000FF"/>
<path d="M134.835 0H118.165C113.793 0.0132509 110.254 3.54459 110.241 7.92402V24.5937C110.254 28.9731 113.786 32.5045 118.165 32.5177H134.835C139.214 32.5045 142.746 28.9731 142.759 24.5937V7.92402C142.746 3.54459 139.214 0.0132509 134.835 0ZM136.856 24.5871C136.856 25.137 136.637 25.6339 136.259 26.0115C135.882 26.3892 135.392 26.6079 134.835 26.6079H118.165C117.615 26.6079 117.125 26.3892 116.741 26.0115C116.363 25.6339 116.145 25.1436 116.145 24.5871V7.91739C116.145 7.36747 116.363 6.87726 116.741 6.49298C117.118 6.11533 117.609 5.89667 118.165 5.89667H134.835C135.392 5.89667 135.882 6.11533 136.259 6.49298C136.637 6.87063 136.856 7.36085 136.856 7.91739V24.5871Z" fill="#8000FF"/>
<path d="M173.282 0H156.619C152.24 0.0132509 148.709 3.54459 148.695 7.92402V24.5937C148.709 28.9731 152.24 32.5045 156.619 32.5177H173.282C177.662 32.5045 181.193 28.9731 181.206 24.5937V7.92402C181.193 3.54459 177.662 0.0132509 173.282 0ZM175.297 24.5871C175.297 25.137 175.078 25.6339 174.7 26.0115C174.323 26.3892 173.832 26.6079 173.276 26.6079H156.613C156.063 26.6079 155.573 26.3892 155.188 26.0115C154.811 25.6339 154.592 25.1436 154.592 24.5871V7.91739C154.592 7.36747 154.811 6.87726 155.188 6.49298C155.566 6.12195 156.056 5.89667 156.613 5.89667H173.276C173.832 5.89667 174.323 6.11533 174.7 6.49298C175.078 6.87063 175.297 7.36085 175.297 7.91739V24.5871Z" fill="#8000FF"/>
<path d="M246.785 0H230.122C225.743 0.0132509 222.211 3.54459 222.198 7.92402V24.5937C222.211 28.9731 225.743 32.5045 230.122 32.5177H246.785C251.165 32.5045 254.696 28.9731 254.709 24.5937V7.92402C254.696 3.54459 251.158 0.0132509 246.785 0ZM248.806 24.5871C248.806 25.137 248.587 25.6273 248.21 26.0115C247.832 26.3892 247.342 26.6079 246.785 26.6079H230.122C229.572 26.6079 229.082 26.3892 228.698 26.0115C228.32 25.6339 228.101 25.1436 228.101 24.5871V7.91739C228.101 7.36747 228.32 6.87726 228.698 6.49298C229.075 6.12195 229.566 5.89667 230.122 5.89667H246.785C247.342 5.89667 247.832 6.11533 248.21 6.49298C248.587 6.87063 248.806 7.36085 248.806 7.91739V24.5871Z" fill="#8000FF"/>
<path d="M283.523 0H266.854C262.474 0.0132509 258.943 3.54459 258.93 7.92402V24.5937C258.943 28.9731 262.474 32.5045 266.854 32.5177H283.523C287.903 32.5045 291.434 28.9731 291.447 24.5937V7.92402C291.434 3.54459 287.903 0.0132509 283.523 0ZM285.544 24.5871C285.544 25.137 285.326 25.6339 284.948 26.0115C284.57 26.3892 284.08 26.6079 283.523 26.6079H266.854C266.304 26.6079 265.814 26.3892 265.429 26.0115C265.052 25.6339 264.833 25.1436 264.833 24.5871V7.91739C264.833 7.36747 265.052 6.87726 265.429 6.49298C265.807 6.12195 266.297 5.89667 266.854 5.89667H283.523C284.08 5.89667 284.57 6.11533 284.948 6.49298C285.326 6.87063 285.544 7.36085 285.544 7.91739V24.5871Z" fill="#8000FF"/>
<path d="M24.5937 36.8041H7.92402C3.54459 36.8173 0.0132509 40.3487 0 44.7281V61.3978C0.0132509 65.7772 3.54459 69.3085 7.92402 69.3218H24.5937C28.9731 69.3085 32.5045 65.7772 32.5177 61.3978V44.7281C32.5045 40.3487 28.9665 36.8173 24.5937 36.8041ZM26.6079 61.3911C26.6079 61.941 26.3892 62.4313 26.0115 62.8156C25.6339 63.1933 25.1436 63.4118 24.5871 63.4118H7.91739C7.36747 63.4118 6.87726 63.1933 6.49298 62.8156C6.11533 62.438 5.89667 61.9477 5.89667 61.3911V44.7215C5.89667 44.1716 6.11533 43.6813 6.49298 43.297C6.87063 42.9259 7.36085 42.7007 7.91739 42.7007H24.5871C25.137 42.7007 25.6273 42.9193 26.0115 43.297C26.3892 43.6746 26.6079 44.1649 26.6079 44.7148V61.3845V61.3911Z" fill="#8000FF"/>
<path d="M98.0967 36.8041H81.4269C77.0475 36.8173 73.5162 40.3487 73.5029 44.7281V61.3978C73.5162 65.7772 77.0475 69.3085 81.4269 69.3218H98.0967C102.476 69.3085 106.007 65.7772 106.021 61.3978V44.7281C106.007 40.3487 102.476 36.8173 98.0967 36.8041ZM100.117 61.3911C100.117 61.941 99.8988 62.4313 99.5211 62.8156C99.1435 63.1933 98.6532 63.4118 98.0967 63.4118H81.4269C80.877 63.4118 80.3868 63.1933 80.0025 62.8156C79.6249 62.438 79.4063 61.9477 79.4063 61.3911V44.7215C79.4063 44.1716 79.6249 43.6813 80.0025 43.297C80.3802 42.9259 80.8704 42.7007 81.4269 42.7007H98.0967C98.6532 42.7007 99.1435 42.9193 99.5211 43.297C99.8988 43.6746 100.117 44.1649 100.117 44.7215V61.3911Z" fill="#8000FF"/>
<path d="M134.835 36.8041H118.165C113.793 36.8173 110.254 40.3487 110.241 44.7281V61.3978C110.254 65.7772 113.786 69.3085 118.165 69.3218H134.835C139.214 69.3085 142.746 65.7772 142.759 61.3978V44.7281C142.746 40.3487 139.214 36.8173 134.835 36.8041ZM136.856 61.3911C136.856 61.941 136.637 62.438 136.259 62.8156C135.882 63.1933 135.392 63.4118 134.835 63.4118H118.165C117.615 63.4118 117.125 63.1933 116.741 62.8156C116.363 62.438 116.145 61.9477 116.145 61.3911V44.7215C116.145 44.1716 116.363 43.6813 116.741 43.3036C117.118 42.926 117.609 42.7073 118.165 42.7073H134.835C135.392 42.7073 135.882 42.926 136.259 43.3036C136.637 43.6813 136.856 44.1716 136.856 44.7281V61.3978V61.3911Z" fill="#8000FF"/>
<path d="M173.282 36.8041H156.619C152.24 36.8173 148.709 40.3487 148.695 44.7281V61.3978C148.709 65.7772 152.24 69.3085 156.619 69.3218H173.282C177.662 69.3085 181.193 65.7772 181.206 61.3978V44.7281C181.193 40.3487 177.662 36.8173 173.282 36.8041ZM175.297 61.3911C175.297 61.941 175.078 62.438 174.7 62.8156C174.323 63.1933 173.832 63.4118 173.276 63.4118H156.613C156.063 63.4118 155.573 63.1933 155.188 62.8156C154.811 62.438 154.592 61.9477 154.592 61.3911V44.7215C154.592 44.1716 154.811 43.6813 155.188 43.297C155.566 42.9259 156.056 42.7007 156.613 42.7007H173.276C173.832 42.7007 174.323 42.9193 174.7 43.297C175.078 43.6746 175.297 44.1649 175.297 44.7215V61.3911Z" fill="#8000FF"/>
<path d="M210.02 36.8041H193.351C188.971 36.8173 185.44 40.3487 185.427 44.7281V61.3978C185.44 65.7772 188.971 69.3085 193.351 69.3218H210.02C214.4 69.3085 217.931 65.7772 217.944 61.3978V44.7281C217.931 40.3487 214.393 36.8173 210.02 36.8041ZM212.041 61.3911C212.041 61.941 211.822 62.4313 211.445 62.8156C211.067 63.1933 210.577 63.4118 210.02 63.4118H193.351C192.801 63.4118 192.31 63.1933 191.926 62.8156C191.549 62.438 191.33 61.9477 191.33 61.3911V44.7215C191.33 44.1716 191.549 43.6813 191.926 43.297C192.304 42.9259 192.794 42.7007 193.351 42.7007H210.02C210.57 42.7007 211.06 42.9193 211.445 43.297C211.822 43.6746 212.041 44.1649 212.041 44.7148V61.3845V61.3911Z" fill="#8000FF"/>
<path d="M246.785 36.8041H230.122C225.743 36.8173 222.211 40.3487 222.198 44.7281V61.3978C222.211 65.7772 225.743 69.3085 230.122 69.3218H246.785C251.165 69.3085 254.696 65.7772 254.709 61.3978V44.7281C254.696 40.3487 251.158 36.8173 246.785 36.8041ZM248.806 61.3911C248.806 61.941 248.587 62.4313 248.21 62.8156C247.832 63.1933 247.342 63.4118 246.785 63.4118H230.122C229.572 63.4118 229.082 63.1933 228.698 62.8156C228.32 62.438 228.101 61.9477 228.101 61.3911V44.7215C228.101 44.1716 228.32 43.6813 228.698 43.297C229.075 42.9259 229.566 42.7007 230.122 42.7007H246.785C247.342 42.7007 247.832 42.9193 248.21 43.297C248.587 43.6746 248.806 44.1649 248.806 44.7148V61.3845V61.3911Z" fill="#8000FF"/>
<path d="M24.5937 73.6021H7.92402C3.54459 73.6153 0.0132509 77.1468 0 81.5262V98.1958C0.0132509 102.575 3.54459 106.107 7.92402 106.12H24.5937C28.9731 106.107 32.5045 102.575 32.5177 98.1958V81.5262C32.5045 77.1468 28.9665 73.6153 24.5937 73.6021ZM26.6079 98.1891C26.6079 98.7391 26.3892 99.2294 26.0115 99.6136C25.6339 99.9913 25.1436 100.21 24.5871 100.21H7.91739C7.36747 100.21 6.87726 99.9913 6.49298 99.6136C6.11533 99.236 5.89667 98.7457 5.89667 98.1891V81.5196C5.89667 80.9696 6.11533 80.4793 6.49298 80.0951C6.87063 79.724 7.36085 79.4988 7.91739 79.4988H24.5871C25.137 79.4988 25.6273 79.7174 26.0115 80.0951C26.3892 80.4727 26.6079 80.963 26.6079 81.5129V98.1826V98.1891Z" fill="#8000FF"/>
<path d="M61.3321 73.6021H44.6624C40.283 73.6153 36.7515 77.1468 36.7383 81.5262V98.1958C36.7515 102.575 40.283 106.107 44.6624 106.12H61.3321C65.7115 106.107 69.2428 102.575 69.2561 98.1958V81.5262C69.2428 77.1468 65.7115 73.6153 61.3321 73.6021ZM63.3462 98.1891C63.3462 98.7391 63.1275 99.236 62.7498 99.6136C62.3722 99.9913 61.882 100.21 61.3254 100.21H44.6557C44.1058 100.21 43.6155 99.9913 43.2313 99.6136C42.8536 99.236 42.635 98.7457 42.635 98.1891V81.5196C42.635 80.9696 42.8536 80.4793 43.2313 80.0951C43.6089 79.724 44.0992 79.4988 44.6557 79.4988H61.3254C61.882 79.4988 62.3722 79.7174 62.7498 80.0951C63.1275 80.4727 63.3462 80.963 63.3462 81.5196V98.1891Z" fill="#8000FF"/>
<path d="M98.0967 73.6021H81.4269C77.0475 73.6153 73.5162 77.1468 73.5029 81.5262V98.1958C73.5162 102.575 77.0475 106.107 81.4269 106.12H98.0967C102.476 106.107 106.007 102.575 106.021 98.1958V81.5262C106.007 77.1468 102.47 73.6153 98.0967 73.6021ZM100.117 98.1891C100.117 98.7391 99.8988 99.2294 99.5211 99.6136C99.1435 99.9913 98.6532 100.21 98.0967 100.21H81.4269C80.877 100.21 80.3868 99.9913 80.0025 99.6136C79.6249 99.236 79.4063 98.7457 79.4063 98.1891V81.5196C79.4063 80.9696 79.6249 80.4793 80.0025 80.0951C80.3802 79.724 80.8704 79.4988 81.4269 79.4988H98.0967C98.6466 79.4988 99.1368 79.7174 99.5211 80.0951C99.8988 80.4727 100.117 80.963 100.117 81.5129V98.1826V98.1891Z" fill="#8000FF"/>
<path d="M134.835 73.6021H118.165C113.786 73.6153 110.254 77.1468 110.241 81.5262V98.1958C110.254 102.575 113.786 106.107 118.165 106.12H134.835C139.214 106.107 142.746 102.575 142.759 98.1958V81.5262C142.746 77.1468 139.214 73.6153 134.835 73.6021ZM136.856 98.1891C136.856 98.7391 136.637 99.236 136.259 99.6136C135.882 99.9913 135.392 100.21 134.835 100.21H118.165C117.615 100.21 117.125 99.9913 116.741 99.6136C116.363 99.236 116.145 98.7457 116.145 98.1891V81.5196C116.145 80.9696 116.363 80.4793 116.741 80.0951C117.118 79.724 117.609 79.4988 118.165 79.4988H134.835C135.392 79.4988 135.882 79.7174 136.259 80.0951C136.637 80.4727 136.856 80.963 136.856 81.5196V98.1891Z" fill="#8000FF"/>
<path d="M173.282 73.6021H156.619C152.24 73.6153 148.709 77.1468 148.695 81.5262V98.1958C148.709 102.575 152.24 106.107 156.619 106.12H173.282C177.662 106.107 181.193 102.575 181.206 98.1958V81.5262C181.193 77.1468 177.662 73.6153 173.282 73.6021ZM175.297 98.1891C175.297 98.7391 175.078 99.236 174.7 99.6136C174.323 99.9913 173.832 100.21 173.276 100.21H156.613C156.063 100.21 155.573 99.9913 155.188 99.6136C154.811 99.236 154.592 98.7457 154.592 98.1891V81.5196C154.592 80.9696 154.811 80.4793 155.188 80.0951C155.566 79.724 156.056 79.4988 156.613 79.4988H173.276C173.832 79.4988 174.323 79.7174 174.7 80.0951C175.078 80.4727 175.297 80.963 175.297 81.5196V98.1891Z" fill="#8000FF"/>
<path d="M246.785 73.6021H230.122C225.743 73.6153 222.211 77.1468 222.198 81.5262V98.1958C222.211 102.575 225.743 106.107 230.122 106.12H246.785C251.165 106.107 254.696 102.575 254.709 98.1958V81.5262C254.696 77.1468 251.158 73.6153 246.785 73.6021ZM248.806 98.1891C248.806 98.7391 248.587 99.2294 248.21 99.6136C247.832 99.9913 247.342 100.21 246.785 100.21H230.122C229.572 100.21 229.082 99.9913 228.698 99.6136C228.32 99.236 228.101 98.7457 228.101 98.1891V81.5196C228.101 80.9696 228.32 80.4793 228.698 80.0951C229.075 79.724 229.566 79.4988 230.122 79.4988H246.785C247.342 79.4988 247.832 79.7174 248.21 80.0951C248.587 80.4727 248.806 80.963 248.806 81.5129V98.1826V98.1891Z" fill="#8000FF"/>
<path d="M283.523 73.6021H266.854C262.474 73.6153 258.943 77.1468 258.93 81.5262V98.1958C258.943 102.575 262.474 106.107 266.854 106.12H283.523C287.903 106.107 291.434 102.575 291.447 98.1958V81.5262C291.434 77.1468 287.903 73.6153 283.523 73.6021ZM285.544 98.1891C285.544 98.7391 285.326 99.236 284.948 99.6136C284.57 99.9913 284.08 100.21 283.523 100.21H266.854C266.304 100.21 265.814 99.9913 265.429 99.6136C265.052 99.236 264.833 98.7457 264.833 98.1891V81.5196C264.833 80.9696 265.052 80.4793 265.429 80.0951C265.807 79.724 266.297 79.4988 266.854 79.4988H283.523C284.08 79.4988 284.57 79.7174 284.948 80.0951C285.326 80.4727 285.544 80.963 285.544 81.5196V98.1891Z" fill="#8000FF"/>
<path d="M24.5937 110.407H7.92402C3.54459 110.42 0.0132509 113.951 0 118.331V135C0.0132509 139.38 3.54459 142.911 7.92402 142.924H24.5937C28.9731 142.911 32.5045 139.38 32.5177 135V118.331C32.5045 113.951 28.9665 110.42 24.5937 110.407ZM26.6079 134.994C26.6079 135.544 26.3892 136.034 26.0115 136.418C25.6339 136.796 25.1436 137.014 24.5871 137.014H7.91739C7.36747 137.014 6.87726 136.796 6.49298 136.418C6.11533 136.041 5.89667 135.55 5.89667 134.994V118.324C5.89667 117.774 6.11533 117.284 6.49298 116.9C6.87063 116.529 7.36085 116.303 7.91739 116.303H24.5871C25.137 116.303 25.6273 116.522 26.0115 116.9C26.3892 117.277 26.6079 117.767 26.6079 118.324V134.994Z" fill="#8000FF"/>
<path d="M98.0967 110.407H81.4269C77.0475 110.42 73.5162 113.951 73.5029 118.331V135C73.5162 139.38 77.0475 142.911 81.4269 142.924H98.0967C102.476 142.911 106.007 139.38 106.021 135V118.331C106.007 113.951 102.47 110.42 98.0967 110.407ZM100.117 134.994C100.117 135.544 99.8988 136.034 99.5211 136.418C99.1435 136.796 98.6532 137.014 98.0967 137.014H81.4269C80.877 137.014 80.3868 136.796 80.0025 136.418C79.6249 136.041 79.4063 135.55 79.4063 134.994V118.324C79.4063 117.774 79.6249 117.284 80.0025 116.9C80.3802 116.529 80.8704 116.303 81.4269 116.303H98.0967C98.6466 116.303 99.1368 116.522 99.5211 116.9C99.8988 117.277 100.117 117.767 100.117 118.324V134.994Z" fill="#8000FF"/>
<path d="M134.835 110.407H118.165C113.786 110.42 110.254 113.951 110.241 118.331V135C110.254 139.38 113.786 142.911 118.165 142.924H134.835C139.214 142.911 142.746 139.38 142.759 135V118.331C142.746 113.951 139.214 110.42 134.835 110.407ZM136.856 134.994C136.856 135.544 136.637 136.041 136.259 136.418C135.882 136.796 135.392 137.014 134.835 137.014H118.165C117.615 137.014 117.125 136.796 116.741 136.418C116.363 136.041 116.145 135.55 116.145 134.994V118.324C116.145 117.774 116.363 117.284 116.741 116.9C117.118 116.529 117.609 116.303 118.165 116.303H134.835C135.392 116.303 135.882 116.522 136.259 116.9C136.637 117.277 136.856 117.767 136.856 118.324V134.994Z" fill="#8000FF"/>
<path d="M173.282 110.407H156.619C152.24 110.42 148.709 113.951 148.695 118.331V135C148.709 139.38 152.24 142.911 156.619 142.924H173.282C177.662 142.911 181.193 139.38 181.206 135V118.331C181.193 113.951 177.662 110.42 173.282 110.407ZM175.297 134.994C175.297 135.544 175.078 136.041 174.7 136.418C174.323 136.796 173.832 137.014 173.276 137.014H156.613C156.063 137.014 155.573 136.796 155.188 136.418C154.811 136.041 154.592 135.55 154.592 134.994V118.324C154.592 117.774 154.811 117.284 155.188 116.9C155.566 116.529 156.056 116.303 156.613 116.303H173.276C173.832 116.303 174.323 116.522 174.7 116.9C175.078 117.277 175.297 117.767 175.297 118.324V134.994Z" fill="#8000FF"/>
<path d="M210.02 110.407H193.351C188.971 110.42 185.44 113.951 185.427 118.331V135C185.44 139.38 188.971 142.911 193.351 142.924H210.02C214.4 142.911 217.931 139.38 217.944 135V118.331C217.931 113.951 214.393 110.42 210.02 110.407ZM212.041 134.994C212.041 135.544 211.822 136.034 211.445 136.418C211.067 136.796 210.577 137.014 210.02 137.014H193.351C192.801 137.014 192.31 136.796 191.926 136.418C191.549 136.041 191.33 135.55 191.33 134.994V118.324C191.33 117.774 191.549 117.284 191.926 116.9C192.304 116.529 192.794 116.303 193.351 116.303H210.02C210.57 116.303 211.06 116.522 211.445 116.9C211.822 117.277 212.041 117.767 212.041 118.324V134.994Z" fill="#8000FF"/>
<path d="M246.785 110.407H230.122C225.743 110.42 222.211 113.951 222.198 118.331V135C222.211 139.38 225.743 142.911 230.122 142.924H246.785C251.165 142.911 254.696 139.38 254.709 135V118.331C254.696 113.951 251.165 110.42 246.785 110.407ZM248.799 134.994C248.799 135.544 248.581 136.041 248.203 136.418C247.826 136.796 247.335 137.014 246.779 137.014H230.116C229.566 137.014 229.075 136.796 228.691 136.418C228.313 136.041 228.095 135.55 228.095 134.994V118.324C228.095 117.774 228.313 117.284 228.691 116.9C229.069 116.529 229.559 116.303 230.116 116.303H246.779C247.335 116.303 247.826 116.522 248.203 116.9C248.581 117.277 248.799 117.767 248.799 118.324V134.994Z" fill="#8000FF"/>
<path d="M283.523 110.407H266.854C262.474 110.42 258.943 113.951 258.93 118.331V135C258.943 139.38 262.474 142.911 266.854 142.924H283.523C287.903 142.911 291.434 139.38 291.447 135V118.331C291.434 113.951 287.903 110.42 283.523 110.407ZM285.544 134.994C285.544 135.544 285.326 136.041 284.948 136.418C284.57 136.796 284.08 137.014 283.523 137.014H266.854C266.304 137.014 265.814 136.796 265.429 136.418C265.052 136.041 264.833 135.55 264.833 134.994V118.324C264.833 117.774 265.052 117.284 265.429 116.9C265.807 116.529 266.297 116.303 266.854 116.303H283.523C284.08 116.303 284.57 116.522 284.948 116.9C285.326 117.277 285.544 117.767 285.544 118.324V134.994Z" fill="#8000FF"/>
</svg>
