<svg width="585" height="208" viewBox="0 0 585 208" fill="none" xmlns="http://www.w3.org/2000/svg">
<path d="M71.5337 1.60986H528.669C559.531 1.60986 584.5 25.2597 584.5 54.3751V153.735C584.5 182.85 559.531 206.5 528.669 206.5H71.5337C40.6726 206.5 15.7031 182.85 15.7031 153.735V54.3751C15.7031 25.2597 40.6726 1.60986 71.5337 1.60986Z" fill="#8000FF" stroke="#E6FF53"/>
<path d="M514.466 1.10986H57.3306C26.2201 1.10986 1 24.9575 1 54.3751V153.735C1 183.152 26.2201 207 57.3306 207H514.466C545.577 207 570.797 183.152 570.797 153.735V54.3751C570.797 24.9575 545.577 1.10986 514.466 1.10986Z" fill="white" stroke="#E6FF53" stroke-width="0.75" stroke-linecap="round" stroke-linejoin="round"/>
<path d="M84.1895 124V106H77V88H87.793V98.8105H91.3965V88H102.189V106H95V124H84.1895ZM105.793 124V88H116.586V116.811H120.189V88H130.982V124H105.793ZM134.586 124V88H145.379V98.8105H148.982V88H159.775V102.414H152.586V106H159.775V124H148.982V113.207H145.379V124H134.586ZM177.775 116.811V95.207H174.172V116.811H177.775ZM163.379 124V88H188.568V124H163.379ZM199.361 124V116.811H195.758V109.604H192.172V88H202.965V102.414H206.568V88H217.361V109.604H213.758V116.811H210.172V124H199.361ZM220.965 124V88H231.758V98.8105H235.361V88H246.154V102.414H238.965V106H246.154V124H235.361V113.207H231.758V124H220.965ZM264.154 102.414V95.207H260.551V102.414H264.154ZM249.758 124V88H274.947V124H264.154V109.604H260.551V124H249.758Z" fill="black"/>
</svg>
